<svg width="70" height="71" viewBox="0 0 70 71" fill="none" xmlns="http://www.w3.org/2000/svg">
<path d="M27.4216 19.5911C27.7907 19.4898 27.9991 19.2173 28.1054 18.9873C28.206 18.7696 28.2482 18.5275 28.2689 18.3122C28.3108 17.8761 28.2838 17.3064 28.2334 16.6719C28.1958 16.1985 28.1445 15.678 28.0884 15.109C27.9872 14.0833 27.8706 12.8998 27.7905 11.55C27.6573 9.29488 27.5613 7.6606 27.6104 6.43652C27.6598 5.20257 27.8554 4.5418 28.1752 4.13029L28.1752 4.13026C29.007 3.05965 30.4554 2.42538 32.1355 2.07272C33.796 1.72414 35.5483 1.67775 36.8428 1.67413C38.6084 1.66928 41.2699 1.70363 45.0273 3.2058C49.6241 5.04492 56.3127 7.73039 61.7305 14.5763C62.4428 15.477 65.6653 19.6488 67.4768 26.0198L67.4769 26.0201C67.6147 26.5041 68.8306 30.9335 68.6953 36.8572C68.56 42.7799 67.0762 50.1433 61.8702 56.5663C57.67 61.7471 53.8991 65.0868 46.9586 67.4778C41.6924 69.292 38.3071 69.5772 32.6021 69.1153C23.4997 68.3784 17.281 67.004 11.2462 60.4142C3.13833 51.5603 1.48083 45.6482 1.08507 40.1421L1.08507 40.1421C1.07493 40.0011 1.05461 39.803 1.02894 39.5526C0.747492 36.8075 -0.177391 27.7868 4.61671 19.1177C8.14524 12.7385 11.7561 11.3097 13.3585 10.8471L13.3586 10.8471C14.7169 10.4548 15.6089 10.2114 16.7326 10.4792L16.7326 10.4792C18.1218 10.81 19.5939 11.868 21.117 13.3682C22.6266 14.8551 24.0973 16.6841 25.5083 18.4398L25.5088 18.4404C25.5176 18.4513 25.5267 18.4626 25.5361 18.4743C25.6817 18.6554 25.9012 18.9284 26.1342 19.1462C26.2584 19.2623 26.419 19.3945 26.6062 19.4897C26.7888 19.5826 27.0842 19.6838 27.4216 19.5911ZM27.4216 19.5911L27.2231 18.8678L27.4223 19.5909C27.4221 19.591 27.4218 19.591 27.4216 19.5911Z" fill="#AEDC64" stroke="black" stroke-width="1.5"/>
<path d="M25.8099 43.7662L22.8219 40.3822C22.5879 40.0762 22.5879 39.6082 22.8219 39.3382L25.5399 36.1882C25.9719 35.6842 26.4939 35.7382 26.7459 36.0082C26.9979 36.2782 26.9799 36.6922 26.7459 36.9262L24.1359 39.7702L27.0159 42.9022C27.1599 43.0642 27.2319 43.2442 27.2319 43.4422C27.2319 43.8022 26.9619 44.1262 26.5119 44.1262C26.2419 44.1262 26.0079 44.0002 25.8099 43.7662ZM22.0299 36.4942V43.4422C22.1019 44.3242 20.5179 44.3242 20.5899 43.4422V36.4942C20.5179 35.6122 22.1019 35.6122 22.0299 36.4942ZM35.6995 37.9162C35.6995 38.8702 35.0335 39.6262 34.0795 39.7882C35.3395 40.0222 35.9695 40.6702 35.9695 41.7142C35.9695 43.2802 34.7275 44.0722 32.2435 44.0722C32.1175 44.0722 31.3615 44.0542 29.9575 44.0182C29.5795 44.0002 29.2735 43.6762 29.2735 43.2982V36.6022C29.2735 36.2242 29.5795 35.9002 29.9575 35.8822C31.2535 35.8462 32.0095 35.8282 32.2075 35.8282C34.5295 35.8282 35.6995 36.5302 35.6995 37.9162ZM32.4415 40.3642H30.7135V42.8482C31.5775 42.8842 32.1355 42.9022 32.3695 42.9022C33.7555 42.9022 34.4395 42.4702 34.4395 41.6062C34.4395 40.7782 33.7735 40.3642 32.4415 40.3642ZM30.7135 37.0522V39.4642H32.5315C33.5215 39.4642 34.1695 38.9782 34.1695 38.2042C34.1695 37.3942 33.5575 36.9982 32.3155 36.9982C31.9735 36.9982 31.4335 37.0162 30.7135 37.0522ZM37.5921 41.6242C37.5921 40.0222 38.8521 39.0502 40.6521 39.0502C41.5161 39.0502 42.1821 39.2302 42.6681 39.5722C42.6681 37.8442 42.3261 37.0162 40.8321 37.0162C40.3101 37.0162 39.7701 37.1242 39.2121 37.3402C39.1221 37.3762 39.0321 37.3942 38.9421 37.3942C38.6721 37.3942 38.4921 37.2682 38.3841 37.0342C38.3481 36.9442 38.3301 36.8722 38.3301 36.7822C38.3301 36.4942 38.4561 36.2962 38.6901 36.2062C39.4641 35.8822 40.2201 35.7202 40.9221 35.7202C43.1541 35.7202 44.0361 36.8182 44.0361 39.0322V43.4962C44.0361 43.8382 43.7301 44.1262 43.3521 44.1262C42.9741 44.1262 42.6681 43.8382 42.6681 43.4962V42.9562C42.0381 43.7302 41.1741 44.1262 40.0761 44.1262C38.5821 44.1262 37.5921 43.1542 37.5921 41.6242ZM42.6681 41.7862V40.7602C42.1641 40.4002 41.5521 40.2202 40.8501 40.2202C39.8961 40.2202 39.1221 40.6882 39.1221 41.5522C39.1221 42.3442 39.6621 42.8302 40.5801 42.8302C41.3901 42.8302 42.0741 42.4882 42.6681 41.7862ZM47.1674 39.3742V32.0482C47.1674 31.6342 47.5094 31.3102 47.9414 31.3102C48.3554 31.3102 48.6974 31.6342 48.6974 32.0482V39.3742C48.6974 39.7882 48.3554 40.1302 47.9414 40.1302C47.5094 40.1302 47.1674 39.7882 47.1674 39.3742ZM47.9774 44.0542C47.3474 44.0542 46.9334 43.5862 46.9334 43.0282C46.9334 42.5242 47.3474 42.0742 47.9774 42.0742C48.4994 42.0742 48.9314 42.5422 48.9314 43.0282C48.9314 43.5862 48.5354 44.0542 47.9774 44.0542Z" fill="black"/>
</svg>
