<svg width="1440" height="960" viewBox="0 0 1440 960" fill="none" xmlns="http://www.w3.org/2000/svg">
<g clip-path="url(#clip0_271_3)">
<rect width="1440" height="960" fill="#D0DAFF"/>
<path d="M174.577 93.0797L174.085 92.5138L174.577 93.0796C208.615 63.4663 289.691 -5.24997 391.676 2.58062C393.802 2.74481 418.476 4.87391 444.375 12.8368C457.325 16.8184 470.546 22.248 481.401 29.5954C492.256 36.9433 500.69 46.171 504.176 57.7358C505.857 63.3239 505.86 70.1887 504.537 79.8378C503.215 89.4805 500.585 101.808 497.068 118.297L497.065 118.31C492.794 138.308 488.572 153.493 485.438 164.768C484.686 167.47 483.997 169.948 483.385 172.214C481.807 178.055 480.724 182.536 480.419 185.808C480.119 189.022 480.532 191.426 482.407 192.645C483.941 193.643 485.816 193.422 487.83 192.555C489.855 191.683 492.212 190.081 494.889 187.988C497.794 185.715 501.166 182.788 504.986 179.473C508.178 176.702 511.683 173.66 515.489 170.503C532.292 156.561 555.367 140.003 585.456 132.511C595.896 129.91 605.349 128.861 615.65 130.982C622.821 132.46 643.768 138.242 666.087 172.911C685.901 203.684 705.023 254.436 703.438 310.609C700.387 419.424 619.414 558.752 482.951 624.204C379.301 673.917 243.307 681.179 142.075 619.389L141.684 620.03L142.074 619.389C141.728 619.178 141.373 618.961 141.009 618.74C121.999 607.155 79.7089 581.383 52.261 529.604C12.4538 454.481 23.6669 379.133 30.6652 337.898C54.0156 200.375 146.176 117.779 174.577 93.0797Z" fill="#B2C0F2" stroke="white" stroke-width="1.5"/>
<mask id="path-2-inside-1_271_3" fill="white">
<path d="M892.431 693.639C897.335 672.432 899.595 650.575 898.789 628.804C897.428 592.236 888.129 543.294 859.668 516.924C855.392 512.96 850.396 509.658 844.743 508.097C831.731 504.504 818.024 508.758 806.307 514.49C794.749 520.144 783.952 527.413 774.212 535.812C769.803 539.619 765.614 543.687 761.184 547.473C758.78 549.526 755.847 552.232 752.574 552.687C747.932 553.328 746.433 548.25 746.212 544.526C745.756 536.912 746.618 528.991 747.373 521.417C748.485 510.297 750.764 499.413 752.447 488.387C753.796 479.548 753.58 471.108 749.018 463.112C743.472 453.4 734.133 446.23 724.684 440.6C708.863 431.182 690.612 424.251 672.358 421.668C646.951 418.073 621.431 423.077 597.907 432.718C573.225 442.838 550.141 456.865 529.666 473.971C509.089 491.155 491.049 511.615 477.286 534.68C463.796 557.297 454.481 582.449 451.225 608.667C447.384 639.56 452.43 670.898 463.517 699.867C475.184 730.364 493.116 758.212 513.942 783.223C524.305 795.667 535.424 807.529 547.228 818.611C558.507 829.196 570.706 839.118 583.824 847.065C596.941 855.012 611.139 860.998 626.142 864.221C641.067 867.422 656.44 868.028 671.616 866.75C696.317 864.672 719.918 857.512 742.98 848.759C759.259 842.587 775.092 835.271 790.097 826.414C811.675 813.685 831.51 797.919 848.168 779.153C857.979 768.105 866.668 756.066 874.002 743.232C876.663 738.573 879.262 733.857 881.341 728.908C886.104 717.545 889.656 705.639 892.431 693.639Z"/>
<path d="M881.645 546.538C881.756 546.781 881.866 547.023 881.975 547.264C882.597 548.643 881.574 546.368 881.645 546.538C874.404 530.641 863.51 511.552 845.581 506.322C833.423 502.773 820.409 506.022 809.162 511.013C797.551 516.169 786.497 523.154 776.684 531.184C771.749 535.227 767.105 539.591 762.353 543.85C759.665 546.254 756.466 549.672 752.855 550.633C746.695 552.276 748.096 540.285 748.222 537.014C748.527 529.06 749.203 521.118 750.275 513.224C751.628 503.234 754.154 493.341 755.011 483.288C755.811 473.988 753.435 465.36 747.857 457.815C741.315 448.978 732.018 442.418 722.519 437.115C714.16 432.445 705.307 428.653 696.269 425.538C673.259 417.607 648.822 416.668 625.129 421.956C601.436 427.244 579.191 437.893 558.804 450.519C535.715 464.822 514.729 482.674 497.205 503.463C480.04 523.823 466.154 547.148 457.583 572.44C448.477 599.307 445.788 627.891 449.884 655.999C454.565 688.134 467.436 718.567 484.505 746.021C501.709 773.693 523.194 798.947 547.026 821.111C569.544 842.049 595.648 859.771 626.106 866.217C656.024 872.551 687.217 868.634 716.247 860.075C732.709 855.218 749.07 848.996 764.675 841.846C784.676 832.683 803.71 821.345 820.917 807.602C842.927 790.029 861.75 768.575 875.747 744.077C880.96 734.956 884.919 725.874 888.212 715.92C893.866 698.819 897.634 681.065 899.517 663.149C902.148 638.15 901.01 612.767 895.544 588.201C892.409 574.134 887.845 560.426 881.968 547.266C881.756 546.79 881.664 546.582 881.645 546.538C881.574 546.368 882.597 548.643 881.975 547.264C881.866 547.023 881.756 546.781 881.645 546.538C881.664 546.582 881.756 546.79 881.968 547.266C887.845 560.426 892.409 574.134 895.544 588.201C901.01 612.767 902.148 638.15 899.517 663.149C897.634 681.065 893.866 698.819 888.212 715.92C884.919 725.874 880.96 734.956 875.747 744.077C861.75 768.575 842.927 790.029 820.917 807.602C803.71 821.345 784.676 832.683 764.675 841.846C749.07 848.996 732.709 855.218 716.247 860.075C687.217 868.634 656.024 872.551 626.106 866.217C595.648 859.771 569.544 842.049 547.026 821.111C523.194 798.947 501.709 773.693 484.505 746.021C467.436 718.567 454.565 688.134 449.884 655.999C445.788 627.891 448.477 599.307 457.583 572.44C466.154 547.148 480.04 523.823 497.205 503.463C514.729 482.674 535.715 464.822 558.804 450.519C579.191 437.893 601.436 427.244 625.129 421.956C648.822 416.668 673.259 417.607 696.269 425.538C705.307 428.653 714.16 432.445 722.519 437.115C732.018 442.418 741.315 448.978 747.857 457.815C753.435 465.36 755.811 473.988 755.011 483.288C754.154 493.341 751.628 503.234 750.275 513.224C749.203 521.118 748.527 529.06 748.222 537.014C748.096 540.285 746.695 552.276 752.855 550.633C756.466 549.672 759.665 546.254 762.353 543.85C767.105 539.591 771.749 535.227 776.684 531.184C786.497 523.154 797.551 516.169 809.162 511.013C820.409 506.022 833.423 502.773 845.581 506.322C863.51 511.552 874.404 530.641 881.645 546.538Z"/>
</mask>
<path d="M892.431 693.639C897.335 672.432 899.595 650.575 898.789 628.804C897.428 592.236 888.129 543.294 859.668 516.924C855.392 512.96 850.396 509.658 844.743 508.097C831.731 504.504 818.024 508.758 806.307 514.49C794.749 520.144 783.952 527.413 774.212 535.812C769.803 539.619 765.614 543.687 761.184 547.473C758.78 549.526 755.847 552.232 752.574 552.687C747.932 553.328 746.433 548.25 746.212 544.526C745.756 536.912 746.618 528.991 747.373 521.417C748.485 510.297 750.764 499.413 752.447 488.387C753.796 479.548 753.58 471.108 749.018 463.112C743.472 453.4 734.133 446.23 724.684 440.6C708.863 431.182 690.612 424.251 672.358 421.668C646.951 418.073 621.431 423.077 597.907 432.718C573.225 442.838 550.141 456.865 529.666 473.971C509.089 491.155 491.049 511.615 477.286 534.68C463.796 557.297 454.481 582.449 451.225 608.667C447.384 639.56 452.43 670.898 463.517 699.867C475.184 730.364 493.116 758.212 513.942 783.223C524.305 795.667 535.424 807.529 547.228 818.611C558.507 829.196 570.706 839.118 583.824 847.065C596.941 855.012 611.139 860.998 626.142 864.221C641.067 867.422 656.44 868.028 671.616 866.75C696.317 864.672 719.918 857.512 742.98 848.759C759.259 842.587 775.092 835.271 790.097 826.414C811.675 813.685 831.51 797.919 848.168 779.153C857.979 768.105 866.668 756.066 874.002 743.232C876.663 738.573 879.262 733.857 881.341 728.908C886.104 717.545 889.656 705.639 892.431 693.639Z" fill="#B2C0F2"/>
<path d="M881.645 546.538C881.756 546.781 881.866 547.023 881.975 547.264C882.597 548.643 881.574 546.368 881.645 546.538C874.404 530.641 863.51 511.552 845.581 506.322C833.423 502.773 820.409 506.022 809.162 511.013C797.551 516.169 786.497 523.154 776.684 531.184C771.749 535.227 767.105 539.591 762.353 543.85C759.665 546.254 756.466 549.672 752.855 550.633C746.695 552.276 748.096 540.285 748.222 537.014C748.527 529.06 749.203 521.118 750.275 513.224C751.628 503.234 754.154 493.341 755.011 483.288C755.811 473.988 753.435 465.36 747.857 457.815C741.315 448.978 732.018 442.418 722.519 437.115C714.16 432.445 705.307 428.653 696.269 425.538C673.259 417.607 648.822 416.668 625.129 421.956C601.436 427.244 579.191 437.893 558.804 450.519C535.715 464.822 514.729 482.674 497.205 503.463C480.04 523.823 466.154 547.148 457.583 572.44C448.477 599.307 445.788 627.891 449.884 655.999C454.565 688.134 467.436 718.567 484.505 746.021C501.709 773.693 523.194 798.947 547.026 821.111C569.544 842.049 595.648 859.771 626.106 866.217C656.024 872.551 687.217 868.634 716.247 860.075C732.709 855.218 749.07 848.996 764.675 841.846C784.676 832.683 803.71 821.345 820.917 807.602C842.927 790.029 861.75 768.575 875.747 744.077C880.96 734.956 884.919 725.874 888.212 715.92C893.866 698.819 897.634 681.065 899.517 663.149C902.148 638.15 901.01 612.767 895.544 588.201C892.409 574.134 887.845 560.426 881.968 547.266C881.756 546.79 881.664 546.582 881.645 546.538C881.574 546.368 882.597 548.643 881.975 547.264C881.866 547.023 881.756 546.781 881.645 546.538C881.664 546.582 881.756 546.79 881.968 547.266C887.845 560.426 892.409 574.134 895.544 588.201C901.01 612.767 902.148 638.15 899.517 663.149C897.634 681.065 893.866 698.819 888.212 715.92C884.919 725.874 880.96 734.956 875.747 744.077C861.75 768.575 842.927 790.029 820.917 807.602C803.71 821.345 784.676 832.683 764.675 841.846C749.07 848.996 732.709 855.218 716.247 860.075C687.217 868.634 656.024 872.551 626.106 866.217C595.648 859.771 569.544 842.049 547.026 821.111C523.194 798.947 501.709 773.693 484.505 746.021C467.436 718.567 454.565 688.134 449.884 655.999C445.788 627.891 448.477 599.307 457.583 572.44C466.154 547.148 480.04 523.823 497.205 503.463C514.729 482.674 535.715 464.822 558.804 450.519C579.191 437.893 601.436 427.244 625.129 421.956C648.822 416.668 673.259 417.607 696.269 425.538C705.307 428.653 714.16 432.445 722.519 437.115C732.018 442.418 741.315 448.978 747.857 457.815C753.435 465.36 755.811 473.988 755.011 483.288C754.154 493.341 751.628 503.234 750.275 513.224C749.203 521.118 748.527 529.06 748.222 537.014C748.096 540.285 746.695 552.276 752.855 550.633C756.466 549.672 759.665 546.254 762.353 543.85C767.105 539.591 771.749 535.227 776.684 531.184C786.497 523.154 797.551 516.169 809.162 511.013C820.409 506.022 833.423 502.773 845.581 506.322C863.51 511.552 874.404 530.641 881.645 546.538Z" fill="#B2C0F2"/>
<path d="M881.975 547.264L881.291 547.573L881.291 547.573L881.975 547.264ZM845.581 506.322L845.371 507.042L845.371 507.042L845.581 506.322ZM809.162 511.013L808.858 510.328L808.858 510.328L809.162 511.013ZM776.684 531.184L776.209 530.603L776.209 530.604L776.684 531.184ZM762.353 543.85L762.853 544.409L762.854 544.408L762.353 543.85ZM752.855 550.633L752.662 549.908L752.662 549.909L752.855 550.633ZM748.222 537.014L747.472 536.985L747.472 536.985L748.222 537.014ZM750.275 513.224L751.018 513.325L751.018 513.325L750.275 513.224ZM755.011 483.288L754.264 483.224L754.264 483.224L755.011 483.288ZM747.857 457.815L748.46 457.369L748.46 457.369L747.857 457.815ZM722.519 437.115L722.153 437.769L722.153 437.769L722.519 437.115ZM696.269 425.538L696.513 424.829L696.513 424.829L696.269 425.538ZM625.129 421.956L624.966 421.224L624.966 421.224L625.129 421.956ZM558.804 450.519L558.409 449.882L558.409 449.882L558.804 450.519ZM497.205 503.463L497.779 503.946L497.779 503.946L497.205 503.463ZM457.583 572.44L458.293 572.68L458.293 572.68L457.583 572.44ZM449.884 655.999L450.626 655.891L450.626 655.891L449.884 655.999ZM484.505 746.021L485.142 745.625L485.142 745.625L484.505 746.021ZM547.026 821.111L546.515 821.661L546.515 821.661L547.026 821.111ZM626.106 866.217L626.262 865.483L626.262 865.483L626.106 866.217ZM716.247 860.075L716.459 860.795L716.459 860.795L716.247 860.075ZM764.675 841.846L764.363 841.164L764.363 841.164L764.675 841.846ZM820.917 807.602L820.449 807.016L820.449 807.016L820.917 807.602ZM875.747 744.077L875.095 743.704L875.095 743.705L875.747 744.077ZM888.212 715.92L888.924 716.155L888.925 716.155L888.212 715.92ZM899.517 663.149L898.771 663.071L898.771 663.071L899.517 663.149ZM895.544 588.201L896.276 588.039L896.276 588.038L895.544 588.201ZM881.968 547.266L881.283 547.572L881.283 547.572L881.968 547.266ZM882.658 546.956C882.549 546.714 882.439 546.471 882.328 546.227L880.963 546.849C881.073 547.091 881.183 547.332 881.291 547.573L882.658 546.956ZM882.328 546.227C878.698 538.259 874.135 529.448 868.209 521.964C862.283 514.48 854.957 508.276 845.791 505.602L845.371 507.042C854.134 509.598 861.22 515.554 867.033 522.895C872.847 530.238 877.351 538.92 880.963 546.849L882.328 546.227ZM845.791 505.602C833.381 501.98 820.166 505.309 808.858 510.328L809.467 511.699C820.653 506.734 833.465 503.567 845.371 507.042L845.791 505.602ZM808.858 510.328C797.18 515.513 786.069 522.535 776.209 530.603L777.159 531.764C786.924 523.773 797.922 516.824 809.467 511.699L808.858 510.328ZM776.209 530.604C771.256 534.661 766.587 539.048 761.852 543.291L762.854 544.408C767.623 540.134 772.241 535.793 777.16 531.764L776.209 530.604ZM761.853 543.291C760.468 544.529 759.049 545.938 757.481 547.198C755.923 548.449 754.318 549.468 752.662 549.908L753.048 551.358C755.004 550.837 756.803 549.666 758.42 548.367C760.025 547.077 761.55 545.575 762.853 544.409L761.853 543.291ZM752.662 549.909C751.999 550.085 751.497 550.064 751.112 549.94C750.729 549.817 750.398 549.573 750.107 549.198C749.502 548.419 749.123 547.14 748.925 545.572C748.532 542.452 748.906 538.751 748.971 537.043L747.472 536.985C747.412 538.548 747.023 542.477 747.437 545.76C747.643 547.394 748.061 549.009 748.922 550.118C749.364 550.688 749.934 551.137 750.653 551.368C751.369 551.598 752.171 551.592 753.048 551.358L752.662 549.909ZM748.971 537.043C749.276 529.112 749.949 521.194 751.018 513.325L749.532 513.123C748.456 521.042 747.779 529.007 747.472 536.985L748.971 537.043ZM751.018 513.325C751.691 508.352 752.657 503.406 753.567 498.414C754.475 493.433 755.327 488.416 755.759 483.352L754.264 483.224C753.839 488.213 752.998 493.169 752.091 498.145C751.186 503.111 750.211 508.107 749.532 513.124L751.018 513.325ZM755.759 483.352C756.574 473.874 754.149 465.063 748.46 457.369L747.254 458.261C752.722 465.656 755.049 474.103 754.264 483.224L755.759 483.352ZM748.46 457.369C741.825 448.407 732.422 441.784 722.884 436.46L722.153 437.769C731.614 443.051 740.804 449.549 747.254 458.261L748.46 457.369ZM722.885 436.46C714.48 431.765 705.585 427.956 696.513 424.829L696.024 426.247C705.028 429.351 713.84 433.125 722.153 437.769L722.885 436.46ZM696.513 424.829C673.363 416.85 648.785 415.908 624.966 421.224L625.292 422.688C648.859 417.428 673.154 418.365 696.024 426.247L696.513 424.829ZM624.966 421.224C601.164 426.536 578.84 437.229 558.409 449.882L559.198 451.157C579.543 438.558 601.708 427.951 625.292 422.688L624.966 421.224ZM558.409 449.882C535.256 464.224 514.209 482.128 496.632 502.979L497.779 503.946C515.249 483.221 536.174 465.42 559.199 451.157L558.409 449.882ZM496.632 502.979C479.414 523.402 465.477 546.807 456.873 572.199L458.293 572.68C466.83 547.488 480.666 524.244 497.779 503.946L496.632 502.979ZM456.873 572.199C447.729 599.177 445.028 627.88 449.142 656.107L450.626 655.891C446.547 627.901 449.225 599.437 458.293 572.68L456.873 572.199ZM449.142 656.107C453.842 688.368 466.759 718.898 483.868 746.417L485.142 745.625C468.113 718.235 455.289 687.9 450.626 655.891L449.142 656.107ZM483.868 746.417C501.111 774.152 522.641 799.457 546.515 821.661L547.536 820.562C523.747 798.437 502.307 773.234 485.142 745.625L483.868 746.417ZM546.515 821.661C569.083 842.644 595.305 860.465 625.951 866.951L626.262 865.483C595.99 859.077 570.005 841.454 547.536 820.562L546.515 821.661ZM625.951 866.951C656.031 873.319 687.357 869.375 716.459 860.795L716.035 859.356C687.078 867.894 656.017 871.783 626.262 865.483L625.951 866.951ZM716.459 860.795C732.958 855.927 749.352 849.691 764.988 842.528L764.363 841.164C748.788 848.3 732.46 854.51 716.034 859.356L716.459 860.795ZM764.988 842.528C785.037 833.342 804.125 821.973 821.385 808.188L820.449 807.016C803.296 820.716 784.315 832.023 764.363 841.164L764.988 842.528ZM821.385 808.188C843.464 790.56 862.351 769.035 876.398 744.449L875.095 743.705C861.149 768.116 842.39 789.498 820.449 807.016L821.385 808.188ZM876.398 744.449C881.638 735.281 885.617 726.153 888.924 716.155L887.5 715.684C884.221 725.595 880.282 734.63 875.095 743.704L876.398 744.449ZM888.925 716.155C894.595 699.002 898.375 681.196 900.263 663.228L898.771 663.071C896.894 680.935 893.136 698.635 887.5 715.684L888.925 716.155ZM900.263 663.228C902.902 638.154 901.762 612.689 896.276 588.039L894.812 588.364C900.259 612.844 901.395 638.146 898.771 663.071L900.263 663.228ZM896.276 588.038C893.13 573.921 888.55 560.166 882.653 546.961L881.283 547.572C887.14 560.687 891.688 574.348 894.812 588.365L896.276 588.038ZM882.653 546.961C882.438 546.479 882.351 546.282 882.337 546.247L880.954 546.829C880.977 546.882 881.073 547.101 881.283 547.572L882.653 546.961ZM882.337 546.247C882.336 546.246 882.337 546.248 882.339 546.253C882.34 546.255 882.342 546.261 882.345 546.269C882.347 546.273 882.35 546.281 882.353 546.29C882.355 546.296 882.362 546.317 882.369 546.345C882.373 546.361 882.381 546.402 882.385 546.428C882.39 546.477 882.383 546.643 882.356 546.758C882.193 547.037 881.624 547.278 881.322 547.207C881.224 547.152 881.102 547.05 881.07 547.015C881.029 546.966 881.003 546.921 881.001 546.919C880.993 546.906 880.987 546.895 880.985 546.89C880.979 546.88 880.975 546.872 880.974 546.869C880.972 546.866 880.971 546.864 880.97 546.862C880.969 546.86 880.972 546.867 880.983 546.891C881.002 546.932 881.033 546.999 881.071 547.083C881.147 547.25 881.248 547.475 881.333 547.662C881.375 547.756 881.413 547.84 881.441 547.903C881.455 547.934 881.467 547.96 881.475 547.979C881.485 548 881.488 548.008 881.488 548.007C881.488 548.007 881.486 548.003 881.484 547.998C881.484 547.997 881.48 547.988 881.476 547.977C881.473 547.97 881.464 547.945 881.459 547.928C881.442 547.864 881.766 547.082 882.555 547.062C882.691 547.164 882.814 547.315 882.828 547.338C882.833 547.348 882.841 547.362 882.844 547.367C882.848 547.375 882.851 547.382 882.852 547.383C882.854 547.387 882.855 547.391 882.855 547.391C882.856 547.392 882.855 547.391 882.852 547.383C882.846 547.37 882.835 547.347 882.82 547.312C882.788 547.243 882.736 547.128 882.658 546.955L881.291 547.573C881.369 547.745 881.421 547.861 881.453 547.931C881.469 547.966 881.48 547.991 881.487 548.006C881.49 548.012 881.494 548.02 881.496 548.026C881.497 548.027 881.499 548.031 881.501 548.036C881.502 548.037 881.505 548.044 881.509 548.052C881.512 548.058 881.52 548.072 881.525 548.081C881.539 548.104 881.662 548.256 881.798 548.357C882.587 548.337 882.911 547.556 882.894 547.492C882.889 547.475 882.88 547.45 882.877 547.442C882.873 547.431 882.869 547.422 882.869 547.421C882.866 547.415 882.864 547.411 882.864 547.41C882.854 547.387 882.783 547.229 882.7 547.046C882.616 546.858 882.514 546.632 882.437 546.463C882.399 546.379 882.366 546.308 882.346 546.263C882.337 546.243 882.326 546.22 882.318 546.204C882.317 546.202 882.31 546.187 882.3 546.169C882.297 546.164 882.291 546.153 882.283 546.139C882.281 546.136 882.255 546.092 882.213 546.043C882.181 546.008 882.059 545.906 881.961 545.85C881.66 545.779 881.09 546.02 880.928 546.299C880.901 546.414 880.894 546.581 880.899 546.63C880.903 546.656 880.911 546.697 880.915 546.713C880.922 546.741 880.929 546.762 880.931 546.769C880.934 546.778 880.937 546.786 880.939 546.79C880.942 546.799 880.945 546.807 880.946 546.81C880.949 546.818 880.952 546.825 880.954 546.829L882.337 546.247ZM898.789 628.804L900.288 628.749L900.288 628.748L898.789 628.804ZM892.431 693.639L890.969 693.301L890.969 693.301L892.431 693.639ZM881.341 728.908L882.724 729.489L882.725 729.487L881.341 728.908ZM874.002 743.232L875.304 743.976L875.304 743.976L874.002 743.232ZM848.168 779.153L847.046 778.156L847.046 778.157L848.168 779.153ZM790.097 826.414L789.335 825.122L789.335 825.122L790.097 826.414ZM742.98 848.759L742.448 847.357L742.448 847.357L742.98 848.759ZM671.616 866.75L671.491 865.255L671.49 865.255L671.616 866.75ZM626.142 864.221L625.827 865.687L625.828 865.687L626.142 864.221ZM547.228 818.611L546.202 819.705L546.202 819.705L547.228 818.611ZM513.942 783.223L512.79 784.183L512.79 784.183L513.942 783.223ZM463.517 699.867L464.918 699.331L464.918 699.331L463.517 699.867ZM451.225 608.667L452.713 608.852L452.713 608.852L451.225 608.667ZM477.286 534.68L475.998 533.911L475.998 533.912L477.286 534.68ZM529.666 473.971L530.627 475.122L530.627 475.122L529.666 473.971ZM597.907 432.718L597.338 431.33L597.338 431.33L597.907 432.718ZM672.358 421.668L672.147 423.154L672.147 423.154L672.358 421.668ZM724.684 440.6L725.452 439.311L725.451 439.311L724.684 440.6ZM749.018 463.112L750.321 462.369L750.32 462.369L749.018 463.112ZM752.447 488.387L753.93 488.613L753.93 488.613L752.447 488.387ZM747.373 521.417L745.88 521.268L745.88 521.268L747.373 521.417ZM746.212 544.526L747.71 544.438L747.71 544.436L746.212 544.526ZM752.574 552.687L752.779 554.173L752.78 554.172L752.574 552.687ZM761.184 547.473L762.158 548.614L762.158 548.614L761.184 547.473ZM774.212 535.812L773.233 534.676L773.232 534.676L774.212 535.812ZM806.307 514.49L805.648 513.142L805.648 513.142L806.307 514.49ZM844.743 508.097L845.142 506.651L845.142 506.651L844.743 508.097ZM859.668 516.924L858.648 518.024L858.649 518.025L859.668 516.924ZM897.29 628.86C898.091 650.49 895.846 672.215 890.969 693.301L893.892 693.977C898.825 672.649 901.099 650.659 900.288 628.749L897.29 628.86ZM890.969 693.301C888.209 705.241 884.679 717.063 879.958 728.328L882.725 729.487C887.528 718.028 891.104 706.036 893.892 693.977L890.969 693.301ZM879.958 728.327C877.917 733.186 875.358 737.835 872.699 742.488L875.304 743.976C877.969 739.311 880.607 734.528 882.724 729.489L879.958 728.327ZM872.699 742.488C865.418 755.23 856.791 767.185 847.046 778.156L849.289 780.149C859.168 769.026 867.918 756.902 875.304 743.976L872.699 742.488ZM847.046 778.157C830.503 796.793 810.793 812.463 789.335 825.122L790.859 827.706C812.556 814.907 832.516 799.044 849.29 780.148L847.046 778.157ZM789.335 825.122C774.416 833.928 758.662 841.209 742.448 847.357L743.512 850.162C759.856 843.965 775.769 836.613 790.86 827.706L789.335 825.122ZM742.448 847.357C719.441 856.088 695.99 863.194 671.491 865.255L671.742 868.244C696.644 866.149 720.395 858.935 743.512 850.162L742.448 847.357ZM671.49 865.255C656.436 866.523 641.214 865.919 626.457 862.754L625.828 865.687C640.92 868.924 656.444 869.533 671.742 868.244L671.49 865.255ZM626.458 862.754C611.637 859.57 597.594 853.654 584.601 845.782L583.046 848.348C596.288 856.37 610.64 862.425 625.827 865.687L626.458 862.754ZM584.601 845.782C571.6 837.906 559.484 828.056 548.255 817.517L546.202 819.705C557.529 830.335 569.812 840.33 583.046 848.348L584.601 845.782ZM548.255 817.518C536.497 806.479 525.42 794.662 515.095 782.263L512.79 784.183C523.19 796.672 534.35 808.579 546.202 819.705L548.255 817.518ZM515.095 782.263C494.345 757.343 476.512 729.637 464.918 699.331L462.116 700.403C473.857 731.092 491.887 759.08 512.79 784.183L515.095 782.263ZM464.918 699.331C453.904 670.552 448.908 639.462 452.713 608.852L449.736 608.482C445.86 639.657 450.956 671.244 462.116 700.404L464.918 699.331ZM452.713 608.852C455.941 582.864 465.178 557.909 478.574 535.448L475.998 533.912C462.415 556.686 453.021 582.034 449.736 608.482L452.713 608.852ZM478.574 535.449C492.242 512.542 510.167 492.208 530.627 475.122L528.704 472.819C508.011 490.101 489.855 510.687 475.998 533.911L478.574 535.449ZM530.627 475.122C550.987 458.113 573.94 444.166 598.476 434.106L597.338 431.33C572.511 441.509 549.294 455.618 528.704 472.819L530.627 475.122ZM598.476 434.106C621.825 424.537 647.072 419.605 672.147 423.154L672.568 420.183C646.831 416.541 621.037 421.617 597.338 431.33L598.476 434.106ZM672.147 423.154C690.181 425.705 708.244 432.56 723.917 441.889L725.451 439.311C709.482 429.805 691.044 422.797 672.568 420.183L672.147 423.154ZM723.916 441.889C733.289 447.473 742.362 454.48 747.715 463.856L750.32 462.369C744.583 452.32 734.978 444.987 725.452 439.311L723.916 441.889ZM747.715 463.856C752.038 471.434 752.289 479.48 750.964 488.161L753.93 488.613C755.303 479.616 755.121 470.783 750.321 462.369L747.715 463.856ZM750.964 488.16C749.299 499.071 746.997 510.104 745.88 521.268L748.865 521.567C749.974 510.49 752.229 499.756 753.93 488.613L750.964 488.16ZM745.88 521.268C745.129 528.805 744.25 536.857 744.715 544.616L747.71 544.436C747.262 536.966 748.107 529.177 748.865 521.566L745.88 521.268ZM744.715 544.615C744.832 546.589 745.289 549.061 746.446 551.009C747.034 552 747.837 552.911 748.923 553.516C750.027 554.132 751.323 554.374 752.779 554.173L752.369 551.201C751.504 551.32 750.872 551.168 750.383 550.896C749.875 550.613 749.42 550.142 749.025 549.478C748.216 548.116 747.813 546.188 747.71 544.438L744.715 544.615ZM752.78 554.172C754.747 553.899 756.523 552.966 758.054 551.916C759.58 550.869 760.992 549.609 762.158 548.614L760.209 546.333C758.972 547.39 757.716 548.51 756.356 549.442C755.001 550.372 753.675 551.019 752.368 551.201L752.78 554.172ZM762.158 548.614C764.395 546.702 766.567 544.723 768.718 542.758C770.874 540.788 773.007 538.834 775.193 536.947L773.232 534.676C771.008 536.597 768.843 538.581 766.694 540.543C764.541 542.511 762.403 544.458 760.209 546.333L762.158 548.614ZM775.192 536.948C784.842 528.626 795.532 521.431 806.966 515.837L805.648 513.142C793.966 518.857 783.063 526.199 773.233 534.676L775.192 536.948ZM806.966 515.837C818.593 510.15 831.876 506.1 844.344 509.543L845.142 506.651C831.586 502.908 817.456 507.366 805.648 513.142L806.966 515.837ZM844.344 509.543C849.695 511.021 854.486 514.165 858.648 518.024L860.688 515.824C856.298 511.754 851.097 508.296 845.142 506.651L844.344 509.543ZM858.649 518.025C872.61 530.96 881.944 549.509 887.955 569.473C893.961 589.422 896.613 610.667 897.29 628.86L900.288 628.748C899.604 610.374 896.926 588.864 890.828 568.608C884.733 548.366 875.188 529.259 860.688 515.824L858.649 518.025Z" fill="white" mask="url(#path-2-inside-1_271_3)"/>
<path d="M1287.65 781.793L1287.65 781.793L1288.29 782.184L1288.29 782.184C1287.65 781.793 1287.65 781.793 1287.65 781.794L1287.64 781.798L1287.63 781.814L1287.59 781.882C1287.55 781.942 1287.5 782.033 1287.42 782.153C1287.27 782.394 1287.04 782.754 1286.73 783.225C1286.12 784.166 1285.2 785.554 1283.96 787.33C1281.48 790.883 1277.73 795.992 1272.69 802.206C1262.61 814.633 1247.34 831.477 1226.57 849.124C1185.05 884.417 1121.57 922.92 1033.79 935.755C1021.49 937.554 1002.29 940.211 983.881 939.098C965.426 937.984 948.011 933.097 938.984 920.053C935.857 915.536 934.13 910.614 933.767 902.377C933.401 894.103 934.414 882.532 936.752 864.746C941.091 831.826 946.545 803.682 950.492 783.614C950.658 782.766 950.822 781.933 950.984 781.114C952.729 772.246 954.139 765.083 954.957 759.964C955.403 757.172 955.679 754.954 955.732 753.387C955.758 752.609 955.732 751.945 955.625 751.434C955.533 750.994 955.316 750.347 954.684 750.133C954.261 749.99 953.85 750.119 953.558 750.261C953.249 750.411 952.928 750.645 952.605 750.926C951.955 751.49 951.174 752.347 950.283 753.44C948.497 755.634 946.185 758.889 943.468 762.952C938.031 771.085 930.924 782.532 923.069 795.398C919.128 801.854 914.998 808.668 910.794 815.603C898.234 836.326 885.018 858.132 874.219 874.7C872.031 878.06 867.314 885.088 858.782 888.48C848.89 892.41 837.887 889.859 828.166 885.401C818.471 880.954 810.202 874.682 805.836 871.369L805.826 871.361C795.837 863.774 784.247 849.02 773.427 828.873C762.616 808.743 752.603 783.287 745.739 754.355C732.01 696.488 730.885 624.767 761.086 553.972C801.945 458.209 894.163 378.09 1009.15 361.066C1109.3 346.253 1246.23 376.38 1309.15 489.309C1345.85 555.171 1343.24 623.776 1330.05 678.207C1316.87 732.64 1293.12 772.832 1287.65 781.793Z" fill="#B2C0F2" stroke="white" stroke-width="1.5"/>
<path d="M1094.08 385.685L1094.08 385.686C1094.17 386.978 1094.26 388.287 1094.35 389.614C1096.08 414.701 1098.23 445.959 1115.69 481.395L1115.7 481.399L1115.8 481.606C1142.63 535.918 1185.91 562.824 1208.07 576.202L1207.68 576.844L1208.07 576.202C1225.38 586.656 1245.92 599.049 1266.66 606.421C1287.4 613.794 1308.2 616.089 1326.14 606.548C1347.13 595.379 1360.02 570.194 1364.15 552.048C1367.56 537.04 1368.18 523.993 1367.93 514.702C1367.81 510.057 1367.48 506.352 1367.18 503.813C1367.03 502.543 1366.88 501.564 1366.78 500.906C1366.72 500.576 1366.68 500.327 1366.65 500.16C1366.64 500.077 1366.62 500.015 1366.62 499.974L1366.61 499.929L1366.61 499.918L1366.6 499.916C1366.45 499.149 1366.28 498.325 1366.1 497.476C1365.67 495.398 1365.2 493.167 1364.92 491.233C1364.73 489.87 1364.62 488.595 1364.7 487.584C1364.74 487.079 1364.83 486.595 1365.01 486.185C1365.18 485.77 1365.48 485.377 1365.94 485.165L1365.94 485.165C1366.62 484.862 1367.34 485.067 1367.93 485.372C1368.55 485.69 1369.21 486.208 1369.88 486.839C1371.24 488.107 1372.79 489.96 1374.35 492.004C1377.45 496.08 1380.67 501.036 1382.56 503.954L1382.59 503.995L1382.59 503.995C1390.56 516.284 1395.44 526.087 1399.81 534.837C1400.53 536.29 1401.24 537.714 1401.95 539.116C1406.91 548.951 1411.74 557.695 1420.52 567.72C1426.5 574.55 1429.48 577.858 1434.93 580.113L1434.93 580.114C1442.42 583.216 1450.34 582.616 1458.03 580.377C1465.73 578.135 1473.12 574.276 1479.49 570.943L1479.49 570.942C1482.99 569.116 1495.9 562.158 1514.88 543.894L1514.88 543.894L1514.88 543.892L1514.89 543.882L1514.93 543.844C1514.97 543.81 1515.02 543.759 1515.09 543.692C1515.23 543.557 1515.43 543.357 1515.7 543.094C1516.23 542.569 1517.01 541.797 1517.98 540.808C1519.93 538.829 1522.68 535.986 1525.86 532.528C1532.22 525.609 1540.3 516.241 1547.19 506.425C1580.38 459.161 1595.16 411.784 1601.65 376.223C1604.9 358.443 1606.07 343.62 1606.43 333.247C1606.61 328.06 1606.59 323.986 1606.52 321.212C1606.49 319.825 1606.44 318.763 1606.4 318.049C1606.39 317.692 1606.37 317.422 1606.36 317.242C1606.35 317.152 1606.35 317.085 1606.34 317.04L1606.34 316.991L1606.34 316.979L1606.34 316.977L1094.08 385.685ZM1094.08 385.685C1092.73 366.591 1085.24 260.643 1160.12 170.326C1208.13 112.421 1265.65 90.3017 1280.67 84.9219L1280.42 84.2158M1094.08 385.685L1280.42 84.2158M1280.42 84.2158L1280.67 84.9219C1302.61 77.0616 1339.44 64.339 1386.77 70.2035M1280.42 84.2158L1386.77 70.2035M1386.77 70.2035C1448.88 77.8964 1489.94 112.754 1510.54 130.729L1511.03 130.164M1386.77 70.2035L1511.03 130.164M1511.03 130.164L1510.54 130.729C1530.64 148.263 1598.2 212.405 1606.34 316.976L1511.03 130.164Z" fill="#B2C0F2" stroke="white" stroke-width="1.5"/>
<path d="M1154.22 935.648L1154.22 935.647L1153.64 936.121C1154.22 935.647 1154.22 935.647 1154.22 935.647L1154.22 935.644L1154.21 935.633L1154.18 935.588C1154.14 935.547 1154.09 935.485 1154.03 935.402C1153.9 935.236 1153.7 934.986 1153.45 934.653C1152.94 933.989 1152.19 932.995 1151.25 931.682C1149.37 929.056 1146.7 925.156 1143.58 920.067C1137.34 909.888 1129.29 894.958 1122.02 875.965C1107.5 837.983 1096.18 783.763 1108.95 718.808C1110.74 709.698 1113.63 695.542 1118.98 682.874C1124.35 670.167 1132.09 659.195 1143.42 656.105L1143.23 655.382L1143.42 656.105C1147.34 655.037 1151.2 655.04 1157.06 656.823C1162.96 658.616 1170.84 662.197 1182.78 668.264C1204.88 679.496 1223.33 690.327 1236.48 698.093C1237.04 698.422 1237.59 698.745 1238.12 699.062C1243.93 702.494 1248.63 705.268 1252.03 707.118C1253.89 708.126 1255.39 708.876 1256.49 709.307C1257.03 709.521 1257.53 709.674 1257.93 709.729C1258.27 709.774 1258.88 709.799 1259.26 709.319C1259.51 708.998 1259.52 708.615 1259.49 708.356C1259.46 708.077 1259.36 707.775 1259.25 707.471C1259 706.857 1258.59 706.083 1258.04 705.182C1256.93 703.371 1255.21 700.929 1253.02 698.005C1248.65 692.152 1242.35 684.301 1235.24 675.574C1231.68 671.193 1227.9 666.591 1224.07 661.908C1212.6 647.915 1200.53 633.195 1191.55 621.477L1191.55 621.476C1189.73 619.104 1185.99 614.077 1185.72 607.292C1185.42 599.428 1189.9 592.364 1195.45 586.64C1200.97 580.934 1207.43 576.68 1210.85 574.43L1210.85 574.426C1218.64 569.3 1231.88 564.812 1248.74 562.202C1265.58 559.595 1285.98 558.872 1308.04 561.227C1352.16 565.937 1402.9 582.955 1445.2 621.778C1502.43 674.303 1535.9 759.076 1519.32 844.199C1504.87 918.353 1449.67 1007.18 1354.63 1023.4C1299.2 1032.86 1251.6 1014 1216.58 991.205C1181.55 968.41 1159.17 941.72 1154.22 935.648Z" fill="#B2C0F2" stroke="white" stroke-width="1.5"/>
<path d="M-58.6382 840.93L-58.6627 840.897L-58.6737 840.885C-119.901 758.142 -102.843 664.748 -97.225 639.966C-84.1991 582.502 -52.726 540.984 -21.2674 512.942C10.2067 484.886 41.6243 470.356 54.4491 466.85L54.4496 466.85C59.7937 465.385 72.3806 461.974 83.6435 467.981C91.9899 472.433 96.946 480.633 104.641 502.663L105.349 502.416L104.641 502.663C110.891 520.552 114.392 534.477 116.867 544.327C117.065 545.114 117.256 545.876 117.442 546.611C118.693 551.561 119.698 555.379 120.724 557.979C121.236 559.278 121.775 560.33 122.391 561.08C123.015 561.841 123.769 562.347 124.691 562.407L124.692 562.407C125.714 562.472 126.641 561.969 127.587 560.769C128.517 559.591 129.56 557.63 130.845 554.511C133.424 548.255 137.074 537.097 142.757 517.558C146.034 506.298 148.437 497.58 150.326 490.728C152.002 484.645 153.274 480.032 154.392 476.415C156.755 468.764 158.366 465.805 161.519 463.005C166.915 458.219 174.269 456.211 182.466 455.997C190.66 455.783 199.618 457.364 208.123 459.676C225.132 464.299 240.182 471.799 243.405 473.438C293.629 498.996 324.621 545.198 343.477 587.665C362.33 630.124 369.014 668.762 370.668 679.07C375.498 709.205 379.289 732.93 372.91 763.646C355.219 848.768 274.227 915.669 186.862 932.809C101.087 949.636 0.0955428 920.267 -58.6382 840.93Z" fill="#B2C0F2" stroke="white" stroke-width="1.5"/>
<path d="M757.271 554.223L757.229 554.218L757.216 554.218C673.613 544.745 627.116 481.364 615.38 463.869L614.757 464.287L615.38 463.869C588.175 423.318 580.779 380.524 581.454 345.376C582.129 310.209 590.883 282.755 595.902 272.935L595.902 272.935C597.999 268.827 602.933 259.238 612.741 255.774C619.99 253.214 627.612 254.805 645.11 262.598L645.415 261.913L645.11 262.598C659.309 268.921 669.603 274.677 676.887 278.751C677.469 279.076 678.032 279.391 678.576 279.694C682.238 281.737 685.096 283.293 687.236 284.144C688.305 284.57 689.253 284.844 690.068 284.894C690.9 284.945 691.667 284.765 692.252 284.2L692.252 284.2C692.9 283.572 693.112 282.675 692.916 281.396C692.724 280.143 692.122 278.381 690.965 275.822C688.644 270.687 683.979 262.117 675.42 247.553C670.486 239.155 666.594 232.738 663.535 227.695C660.821 223.22 658.762 219.827 657.214 217.09C653.944 211.308 653.076 208.666 653.15 205.178C653.279 199.196 656.148 193.581 660.566 188.456C664.983 183.333 670.902 178.756 677.012 174.867C689.23 167.089 702.086 162.138 704.859 161.096C748.072 144.879 792.979 152.117 828.919 164.667C864.852 177.214 891.731 195.039 898.829 199.873C919.589 214.016 935.908 225.145 950.768 246.457C991.953 305.535 987.048 393.013 948.763 456.174C911.176 518.183 837.449 563.287 757.271 554.223Z" fill="#B2C0F2" stroke="white" stroke-width="1.5"/>
<path d="M1277.46 171.385L1277.46 171.426L1277.46 171.442C1261.4 275.734 1181.1 330.716 1159 344.51C1107.76 376.497 1054.82 383.546 1011.7 380.88C968.565 378.213 935.312 365.826 923.502 359.018L923.502 359.018C918.579 356.185 907.006 349.48 903.25 336.937C900.465 327.641 902.862 318.109 913.347 296.611L912.672 296.282L913.347 296.611C921.859 279.15 929.472 266.553 934.855 257.643C935.286 256.931 935.702 256.242 936.103 255.576C938.805 251.093 940.858 247.607 942.01 244.986C942.585 243.676 942.962 242.526 943.063 241.54C943.166 240.539 942.991 239.631 942.374 238.922L942.373 238.921C941.688 238.136 940.661 237.825 939.108 238.002C937.582 238.175 935.404 238.83 932.205 240.145C925.791 242.782 915.035 248.176 896.71 258.138C886.149 263.878 878.069 268.42 871.717 271.99C866.078 275.159 861.802 277.562 858.362 279.359C851.086 283.16 847.766 284.125 843.446 283.849C836.063 283.375 829.29 279.467 823.217 273.652C817.147 267.84 811.832 260.175 807.377 252.314C798.468 236.595 793.067 220.225 791.934 216.695C774.296 161.684 785.567 105.776 802.876 61.4019C820.182 17.0355 843.488 -15.7139 849.799 -24.357C868.252 -49.6193 882.788 -69.5025 909.757 -87.026C984.498 -135.579 1091.66 -124.893 1167.18 -73.6577C1241.34 -23.3529 1292.84 71.3677 1277.46 171.385Z" fill="#B2C0F2" stroke="white" stroke-width="1.5"/>
<path d="M481.288 1011.05L481.248 1011.06L481.235 1011.06C400.801 1023.44 341.727 977.124 326.449 964.065C291.033 933.795 273.566 896.486 265.524 864.145C257.476 831.784 258.878 804.452 261.142 794.205L261.142 794.204C262.086 789.917 264.326 779.907 272.626 774.271C278.763 770.104 286.272 769.64 304.542 772.369L304.652 771.627L304.542 772.369C319.366 774.582 330.402 777.26 338.212 779.155C338.837 779.307 339.441 779.453 340.024 779.594C343.949 780.542 347.004 781.247 349.215 781.488C350.319 781.608 351.274 781.62 352.049 781.461C352.839 781.298 353.517 780.94 353.928 780.267L353.929 780.266C354.388 779.514 354.361 778.621 353.858 777.49C353.366 776.384 352.365 774.917 350.652 772.865C347.215 768.747 340.74 762.074 329.15 750.895C322.466 744.446 317.246 739.552 313.144 735.705C309.504 732.292 306.745 729.704 304.623 727.589C300.142 723.12 298.687 720.927 297.899 717.729C296.547 712.236 297.836 706.384 300.697 700.583C303.557 694.785 307.955 689.106 312.702 684.007C322.195 673.81 332.983 666.04 335.316 664.389C371.68 638.66 415.416 633.979 452.088 636.418C488.751 638.857 518.26 648.409 526.084 651.046C548.97 658.768 566.957 664.846 586.094 680.612C639.133 724.316 656.14 805.62 635.968 873.076C616.163 939.3 558.427 999.16 481.288 1011.05Z" fill="#B2C0F2" stroke="white" stroke-width="1.5"/>
<path d="M19.4611 53.3942L19.4883 53.3621L19.4956 53.3513C73.2525 -9.91285 150.748 -13.1256 171.536 -13.1129C219.718 -13.0842 258.839 4.40303 287.256 24.2937C315.689 44.1957 333.36 66.4708 338.641 75.9839L338.641 75.9843C340.853 79.9624 345.99 89.2768 343.432 99.2118C341.541 106.554 336.048 111.92 320.036 121.965L320.435 122.6L320.036 121.965C307.045 130.117 296.667 135.381 289.323 139.106C288.735 139.404 288.168 139.692 287.619 139.971C283.932 141.846 281.084 143.331 279.208 144.616C278.272 145.258 277.525 145.885 277.034 146.526C276.533 147.18 276.257 147.911 276.399 148.704L276.399 148.705C276.557 149.585 277.179 150.255 278.335 150.798C279.469 151.331 281.245 151.808 283.978 152.268C289.461 153.192 299.048 154.086 315.687 155.089C325.282 155.669 332.68 156.011 338.493 156.28C343.652 156.519 347.564 156.7 350.657 156.938C357.192 157.44 359.832 158.184 362.646 160.162C367.473 163.557 370.493 168.994 372.259 175.431C374.024 181.867 374.517 189.232 374.341 196.376C373.989 210.663 370.971 223.918 370.298 226.762C359.807 271.078 329.171 303.878 299.117 326.411C269.069 348.939 239.68 361.148 231.815 364.303C208.807 373.526 190.714 380.769 165.083 381.215C94.035 382.443 25.0821 330.296 -5.58799 264.187C-35.6974 199.283 -32.0761 114.079 19.4611 53.3942Z" fill="#B2C0F2" stroke="white" stroke-width="1.5"/>
<path d="M676.628 403.264H669.844V419.264C669.844 421.824 667.668 424 665.108 424H659.86C657.3 424 655.124 421.824 655.124 419.264V403.264H618.516C615.956 403.264 613.78 401.088 613.78 398.912V396.352C613.78 394.176 614.804 391.488 616.724 388.16L646.164 338.624C647.828 335.808 650.132 334.4 652.948 334.4H658.196C660.628 334.4 662.42 336.32 662.42 338.496C662.42 339.392 662.164 340.032 661.78 340.672L633.236 388.544H655.124V371.136C655.124 368.576 657.3 366.4 659.86 366.4H665.108C667.668 366.4 669.844 368.576 669.844 371.136V388.544H676.628C679.188 388.544 681.364 390.72 681.364 393.28V398.528C681.364 401.088 679.188 403.264 676.628 403.264ZM697.681 412.736C692.561 404.544 690.001 393.408 690.001 379.2C690.001 364.992 692.561 353.856 697.553 345.664C702.545 337.472 710.097 333.376 720.081 333.376C739.921 333.376 750.033 350.912 750.033 379.2C750.033 407.744 740.177 425.024 720.337 425.024C710.353 425.024 702.801 420.928 697.681 412.736ZM705.745 379.2C705.745 400.576 710.609 411.328 720.337 411.328C730.449 411.328 734.417 401.728 734.417 379.2C734.417 356.8 730.321 347.2 720.081 347.2C709.969 347.2 705.745 357.312 705.745 379.2ZM819.503 403.264H812.719V419.264C812.719 421.824 810.543 424 807.983 424H802.735C800.175 424 797.999 421.824 797.999 419.264V403.264H761.391C758.831 403.264 756.655 401.088 756.655 398.912V396.352C756.655 394.176 757.679 391.488 759.599 388.16L789.039 338.624C790.703 335.808 793.007 334.4 795.823 334.4H801.071C803.503 334.4 805.295 336.32 805.295 338.496C805.295 339.392 805.039 340.032 804.655 340.672L776.111 388.544H797.999V371.136C797.999 368.576 800.175 366.4 802.735 366.4H807.983C810.543 366.4 812.719 368.576 812.719 371.136V388.544H819.503C822.063 388.544 824.239 390.72 824.239 393.28V398.528C824.239 401.088 822.063 403.264 819.503 403.264Z" fill="white"/>
<path d="M411.267 450.749C411.267 450.2 411.455 449.737 411.832 449.36C412.21 448.949 412.707 448.743 413.324 448.743C414.181 448.743 414.935 449.274 415.587 450.337L428.238 471.577L437.495 450.44C438.01 449.309 438.695 448.743 439.552 448.743C440.17 448.743 440.667 448.931 441.044 449.309C441.421 449.651 441.61 450.08 441.61 450.594C441.61 451.006 441.541 451.331 441.404 451.571L430.09 476.771C428.821 479.651 427.484 481.743 426.078 483.046C424.707 484.349 423.061 485 421.141 485C420.215 485 419.307 484.863 418.415 484.589C417.97 484.451 417.575 484.194 417.232 483.817C416.924 483.44 416.77 483.011 416.77 482.531C416.77 482.326 416.855 482 417.027 481.554C417.404 480.834 417.97 480.474 418.724 480.474C419.067 480.474 419.341 480.526 419.547 480.629C420.061 480.834 420.575 480.937 421.09 480.937C422.838 480.937 424.312 479.72 425.512 477.286L426.13 475.949L411.627 451.983C411.387 451.64 411.267 451.229 411.267 450.749ZM463.534 463.811V483.406C463.603 484.194 463.277 484.743 462.557 485.051C461.837 485.394 461.117 485.394 460.397 485.051C459.677 484.743 459.351 484.194 459.42 483.406V465.714H446.82V483.406C446.889 484.194 446.563 484.743 445.843 485.051C445.123 485.394 444.403 485.394 443.683 485.051C442.963 484.743 442.637 484.194 442.706 483.406V463.811C442.706 463.263 442.894 462.8 443.271 462.423C443.649 462.046 444.111 461.857 444.66 461.857H461.58C462.129 461.857 462.591 462.046 462.969 462.423C463.346 462.8 463.534 463.263 463.534 463.811ZM486.771 466.537C485.057 465.646 483.36 465.2 481.68 465.2C479.52 465.2 477.668 465.971 476.125 467.514C474.548 469.091 473.76 471.063 473.76 473.429C473.76 475.897 474.565 477.886 476.177 479.394C477.788 480.903 479.76 481.657 482.091 481.657C484.011 481.657 485.657 481.126 487.028 480.063C487.577 479.617 488.108 479.394 488.623 479.394C489.068 479.394 489.463 479.566 489.805 479.909C490.183 480.286 490.371 480.714 490.371 481.194C490.371 481.777 490.183 482.223 489.805 482.531C487.611 484.52 484.937 485.514 481.783 485.514C478.114 485.514 475.131 484.4 472.834 482.171C470.537 479.977 469.388 477.063 469.388 473.429C469.388 470.034 470.503 467.171 472.731 464.84C474.96 462.509 477.754 461.343 481.114 461.343C483.994 461.343 486.497 461.943 488.623 463.143C489.343 463.52 489.703 464.103 489.703 464.891C489.703 465.234 489.617 465.543 489.445 465.817C489.103 466.434 488.537 466.743 487.748 466.743C487.337 466.743 487.011 466.674 486.771 466.537ZM497.497 471.783V450.851C497.497 450.269 497.703 449.771 498.114 449.36C498.56 448.949 499.091 448.743 499.709 448.743C500.291 448.743 500.789 448.949 501.2 449.36C501.646 449.771 501.869 450.269 501.869 450.851V471.783C501.869 472.366 501.646 472.88 501.2 473.326C500.789 473.737 500.291 473.943 499.709 473.943C499.091 473.943 498.56 473.737 498.114 473.326C497.703 472.88 497.497 472.366 497.497 471.783ZM499.811 485.154C498.92 485.154 498.2 484.88 497.651 484.331C497.103 483.749 496.829 483.046 496.829 482.223C496.829 481.469 497.103 480.834 497.651 480.32C498.2 479.771 498.92 479.497 499.811 479.497C500.531 479.497 501.166 479.771 501.714 480.32C502.263 480.869 502.537 481.503 502.537 482.223C502.537 483.046 502.28 483.749 501.766 484.331C501.251 484.88 500.6 485.154 499.811 485.154ZM526.873 450.851V459.389C526.873 465.08 529.393 467.926 534.433 467.926C537.313 467.926 540.108 467.017 542.816 465.2V450.851C542.816 450.269 543.022 449.771 543.433 449.36C543.879 448.949 544.411 448.743 545.028 448.743C545.611 448.743 546.108 448.949 546.519 449.36C546.965 449.771 547.188 450.269 547.188 450.851V483.2C547.188 483.783 546.965 484.297 546.519 484.743C546.108 485.154 545.611 485.36 545.028 485.36C544.411 485.36 543.879 485.154 543.433 484.743C543.022 484.297 542.816 483.783 542.816 483.2V469.263C540.245 471.114 537.073 472.04 533.302 472.04C530.011 472.04 527.388 471.08 525.433 469.16C523.479 467.24 522.502 464.377 522.502 460.571V450.851C522.502 450.269 522.708 449.771 523.119 449.36C523.565 448.949 524.096 448.743 524.713 448.743C525.296 448.743 525.793 448.949 526.205 449.36C526.651 449.771 526.873 450.269 526.873 450.851ZM565.979 465.971V483.406C566.048 484.194 565.722 484.743 565.002 485.051C564.282 485.394 563.562 485.394 562.842 485.051C562.122 484.743 561.796 484.194 561.865 483.406V465.971H555.333C554.545 466.04 553.979 465.714 553.636 464.994C553.328 464.274 553.328 463.554 553.636 462.834C553.979 462.114 554.545 461.789 555.333 461.857H572.511C573.299 461.789 573.848 462.114 574.156 462.834C574.499 463.554 574.499 464.274 574.156 464.994C573.848 465.714 573.299 466.04 572.511 465.971H565.979ZM580.111 482.069C577.814 479.806 576.665 476.926 576.665 473.429C576.665 469.931 577.814 467.034 580.111 464.737C582.374 462.474 585.339 461.343 589.008 461.343C592.642 461.343 595.625 462.474 597.957 464.737C600.219 467.069 601.351 469.966 601.351 473.429C601.351 476.926 600.219 479.806 597.957 482.069C595.659 484.366 592.677 485.514 589.008 485.514C585.339 485.514 582.374 484.366 580.111 482.069ZM581.037 473.429C581.037 475.829 581.774 477.8 583.248 479.343C584.757 480.886 586.677 481.657 589.008 481.657C591.339 481.657 593.242 480.903 594.717 479.394C596.225 477.851 596.979 475.863 596.979 473.429C596.979 471.029 596.225 469.057 594.717 467.514C593.242 465.971 591.339 465.2 589.008 465.2C586.711 465.2 584.808 465.971 583.299 467.514C581.791 469.023 581.037 470.994 581.037 473.429ZM609.948 469.057H618.331C618.88 469.057 619.343 469.246 619.72 469.623C620.097 470 620.285 470.446 620.285 470.96C620.285 471.509 620.097 471.971 619.72 472.349C619.343 472.726 618.88 472.914 618.331 472.914H609.948C609.4 472.914 608.937 472.726 608.56 472.349C608.183 471.971 607.994 471.526 607.994 471.011C607.994 470.463 608.183 470 608.56 469.623C608.937 469.246 609.4 469.057 609.948 469.057ZM637.648 465.971V483.406C637.716 484.194 637.391 484.743 636.671 485.051C635.951 485.394 635.231 485.394 634.511 485.051C633.791 484.743 633.465 484.194 633.533 483.406V465.971H627.002C626.213 466.04 625.648 465.714 625.305 464.994C624.996 464.274 624.996 463.554 625.305 462.834C625.648 462.114 626.213 461.789 627.002 461.857H644.179C644.968 461.789 645.516 462.114 645.825 462.834C646.168 463.554 646.168 464.274 645.825 464.994C645.516 465.714 644.968 466.04 644.179 465.971H637.648ZM651.779 482.069C649.482 479.806 648.334 476.926 648.334 473.429C648.334 469.931 649.482 467.034 651.779 464.737C654.042 462.474 657.008 461.343 660.677 461.343C664.311 461.343 667.294 462.474 669.625 464.737C671.888 467.069 673.019 469.966 673.019 473.429C673.019 476.926 671.888 479.806 669.625 482.069C667.328 484.366 664.345 485.514 660.677 485.514C657.008 485.514 654.042 484.366 651.779 482.069ZM652.705 473.429C652.705 475.829 653.442 477.8 654.917 479.343C656.425 480.886 658.345 481.657 660.677 481.657C663.008 481.657 664.911 480.903 666.385 479.394C667.894 477.851 668.648 475.863 668.648 473.429C668.648 471.029 667.894 469.057 666.385 467.514C664.911 465.971 663.008 465.2 660.677 465.2C658.379 465.2 656.477 465.971 654.968 467.514C653.459 469.023 652.705 470.994 652.705 473.429ZM711.286 463.811V483.406C711.354 484.194 711.028 484.743 710.308 485.051C709.588 485.394 708.868 485.394 708.148 485.051C707.428 484.743 707.103 484.194 707.171 483.406V465.714H694.571V483.406C694.64 484.194 694.314 484.743 693.594 485.051C692.874 485.394 692.154 485.394 691.434 485.051C690.714 484.743 690.388 484.194 690.457 483.406V463.811C690.457 463.263 690.645 462.8 691.023 462.423C691.4 462.046 691.863 461.857 692.411 461.857H709.331C709.88 461.857 710.343 462.046 710.72 462.423C711.097 462.8 711.286 463.263 711.286 463.811ZM720.585 482.069C718.288 479.806 717.14 476.926 717.14 473.429C717.14 469.931 718.288 467.034 720.585 464.737C722.848 462.474 725.814 461.343 729.482 461.343C733.117 461.343 736.1 462.474 738.431 464.737C740.694 467.069 741.825 469.966 741.825 473.429C741.825 476.926 740.694 479.806 738.431 482.069C736.134 484.366 733.151 485.514 729.482 485.514C725.814 485.514 722.848 484.366 720.585 482.069ZM721.511 473.429C721.511 475.829 722.248 477.8 723.722 479.343C725.231 480.886 727.151 481.657 729.482 481.657C731.814 481.657 733.717 480.903 735.191 479.394C736.7 477.851 737.454 475.863 737.454 473.429C737.454 471.029 736.7 469.057 735.191 467.514C733.717 465.971 731.814 465.2 729.482 465.2C727.185 465.2 725.282 465.971 723.774 467.514C722.265 469.023 721.511 470.994 721.511 473.429ZM777.026 463.554V483.046C777.026 483.594 776.837 484.057 776.46 484.434C776.083 484.811 775.62 485 775.071 485H749.666C749.117 485 748.654 484.811 748.277 484.434C747.9 484.057 747.711 483.594 747.711 483.046V463.554C747.643 462.766 747.969 462.217 748.689 461.909C749.409 461.566 750.129 461.566 750.849 461.909C751.569 462.217 751.894 462.766 751.826 463.554V481.143H760.311V463.554C760.243 462.766 760.569 462.217 761.289 461.909C762.009 461.566 762.729 461.566 763.449 461.909C764.169 462.217 764.494 462.766 764.426 463.554V481.143H772.911V463.554C772.843 462.766 773.169 462.217 773.889 461.909C774.609 461.566 775.329 461.566 776.049 461.909C776.769 462.217 777.094 462.766 777.026 463.554ZM804.019 463.811V483.406C804.087 484.194 803.762 484.743 803.042 485.051C802.322 485.394 801.602 485.394 800.882 485.051C800.162 484.743 799.836 484.194 799.905 483.406V465.971H791.779L791.522 469.88C791.213 475.023 790.339 478.897 788.899 481.503C787.493 484.074 785.779 485.36 783.756 485.36C783.139 485.36 782.642 485.189 782.265 484.846C781.887 484.503 781.699 484.04 781.699 483.457C781.699 482.531 782.247 481.829 783.345 481.349C784.545 480.903 785.47 479.771 786.122 477.954C786.807 476.137 787.27 473.171 787.51 469.057L787.819 463.811C787.853 463.263 788.059 462.8 788.436 462.423C788.847 462.046 789.327 461.857 789.876 461.857H802.065C802.613 461.857 803.076 462.046 803.453 462.423C803.83 462.8 804.019 463.263 804.019 463.811ZM813.348 482.069C811.05 479.806 809.902 476.926 809.902 473.429C809.902 469.931 811.05 467.034 813.348 464.737C815.61 462.474 818.576 461.343 822.245 461.343C825.879 461.343 828.862 462.474 831.193 464.737C833.456 467.069 834.588 469.966 834.588 473.429C834.588 476.926 833.456 479.806 831.193 482.069C828.896 484.366 825.913 485.514 822.245 485.514C818.576 485.514 815.61 484.366 813.348 482.069ZM814.273 473.429C814.273 475.829 815.01 477.8 816.485 479.343C817.993 480.886 819.913 481.657 822.245 481.657C824.576 481.657 826.479 480.903 827.953 479.394C829.462 477.851 830.216 475.863 830.216 473.429C830.216 471.029 829.462 469.057 827.953 467.514C826.479 465.971 824.576 465.2 822.245 465.2C819.948 465.2 818.045 465.971 816.536 467.514C815.028 469.023 814.273 470.994 814.273 473.429ZM873.111 463.554V483.406C873.179 484.194 872.854 484.743 872.134 485.051C871.414 485.394 870.694 485.394 869.974 485.051C869.254 484.743 868.928 484.194 868.997 483.406V475.229H856.139V483.406C856.208 484.194 855.882 484.743 855.162 485.051C854.442 485.394 853.722 485.394 853.002 485.051C852.282 484.743 851.957 484.194 852.025 483.406V463.554C851.957 462.766 852.282 462.217 853.002 461.909C853.722 461.566 854.442 461.566 855.162 461.909C855.882 462.217 856.208 462.766 856.139 463.554V471.371H868.997V463.554C868.928 462.766 869.254 462.217 869.974 461.909C870.694 461.566 871.414 461.566 872.134 461.909C872.854 462.217 873.179 462.766 873.111 463.554ZM883.33 471.371H897.37C897.267 469.451 896.616 467.943 895.416 466.846C894.25 465.749 892.673 465.2 890.685 465.2C888.662 465.2 886.982 465.766 885.645 466.897C884.342 468.029 883.57 469.52 883.33 471.371ZM901.639 471.937C901.639 472.52 901.622 472.897 901.587 473.069C901.553 473.48 901.347 473.857 900.97 474.2C900.627 474.543 900.25 474.714 899.839 474.714H883.587C883.759 476.874 884.565 478.571 886.005 479.806C887.479 481.04 889.365 481.657 891.662 481.657C893.822 481.657 895.707 481.194 897.319 480.269C897.696 480.063 898.073 479.96 898.45 479.96C898.965 479.96 899.427 480.183 899.839 480.629C900.045 480.869 900.147 481.177 900.147 481.554C900.147 482.206 899.942 482.669 899.53 482.943C897.096 484.657 894.37 485.514 891.353 485.514C887.582 485.514 884.582 484.417 882.353 482.223C880.09 480.029 878.959 477.097 878.959 473.429C878.959 469.966 880.022 467.069 882.147 464.737C884.273 462.474 887.187 461.343 890.89 461.343C893.942 461.343 896.496 462.32 898.553 464.274C900.61 466.297 901.639 468.851 901.639 471.937ZM928.742 465.971V483.406C928.81 484.194 928.485 484.743 927.765 485.051C927.045 485.394 926.325 485.394 925.605 485.051C924.885 484.743 924.559 484.194 924.627 483.406V465.971H918.096C917.307 466.04 916.742 465.714 916.399 464.994C916.09 464.274 916.09 463.554 916.399 462.834C916.742 462.114 917.307 461.789 918.096 461.857H935.273C936.062 461.789 936.61 462.114 936.919 462.834C937.262 463.554 937.262 464.274 936.919 464.994C936.61 465.714 936.062 466.04 935.273 465.971H928.742ZM940.078 478.211C940.078 475.949 940.884 474.166 942.495 472.863C944.107 471.526 946.215 470.857 948.821 470.857C951.255 470.857 953.175 471.354 954.581 472.349C954.581 469.743 954.221 467.874 953.501 466.743C952.781 465.611 951.392 465.046 949.335 465.046C947.827 465.046 946.284 465.354 944.707 465.971C944.432 466.074 944.175 466.126 943.935 466.126C943.181 466.126 942.65 465.783 942.341 465.097C942.238 464.857 942.187 464.617 942.187 464.377C942.187 463.554 942.53 463.006 943.215 462.731C945.41 461.806 947.535 461.343 949.592 461.343C952.712 461.343 954.975 462.114 956.381 463.657C957.787 465.2 958.49 467.583 958.49 470.806V483.56C958.49 484.04 958.301 484.469 957.924 484.846C957.547 485.189 957.084 485.36 956.535 485.36C955.987 485.36 955.524 485.189 955.147 484.846C954.77 484.469 954.581 484.04 954.581 483.56V482.017C952.764 484.246 950.295 485.36 947.175 485.36C945.05 485.36 943.335 484.726 942.032 483.457C940.73 482.154 940.078 480.406 940.078 478.211ZM954.581 478.674V475.743C953.141 474.714 951.41 474.2 949.387 474.2C947.981 474.2 946.798 474.543 945.838 475.229C944.912 475.88 944.45 476.806 944.45 478.006C944.45 479.137 944.81 480.029 945.53 480.68C946.284 481.331 947.312 481.657 948.615 481.657C950.912 481.657 952.901 480.663 954.581 478.674ZM980.293 484.331L971.756 474.663C971.413 474.217 971.242 473.703 971.242 473.12C971.242 472.537 971.413 472.057 971.756 471.68L979.522 462.68C980.105 461.994 980.739 461.634 981.425 461.6C982.145 461.531 982.659 461.72 982.968 462.166C983.31 462.543 983.482 462.989 983.482 463.503C983.482 464.017 983.31 464.446 982.968 464.789L975.51 472.914L983.739 481.863C984.15 482.309 984.356 482.823 984.356 483.406C984.356 483.954 984.168 484.417 983.79 484.794C983.413 485.171 982.916 485.36 982.299 485.36C981.545 485.36 980.876 485.017 980.293 484.331ZM969.493 463.554V483.406C969.562 484.194 969.236 484.743 968.516 485.051C967.796 485.394 967.076 485.394 966.356 485.051C965.636 484.743 965.31 484.194 965.379 483.406V463.554C965.31 462.766 965.636 462.217 966.356 461.909C967.076 461.566 967.796 461.566 968.516 461.909C969.236 462.217 969.562 462.766 969.493 463.554ZM990.313 482.223C990.313 481.503 990.588 480.869 991.136 480.32C991.719 479.771 992.422 479.497 993.245 479.497C993.965 479.497 994.599 479.771 995.148 480.32C995.696 480.869 995.971 481.503 995.971 482.223C995.971 483.046 995.713 483.749 995.199 484.331C994.685 484.88 994.033 485.154 993.245 485.154C992.422 485.154 991.719 484.88 991.136 484.331C990.588 483.749 990.313 483.046 990.313 482.223ZM1006.44 482.223C1006.44 481.503 1006.71 480.869 1007.26 480.32C1007.84 479.771 1008.54 479.497 1009.37 479.497C1010.09 479.497 1010.72 479.771 1011.27 480.32C1011.82 480.869 1012.09 481.503 1012.09 482.223C1012.09 483.046 1011.84 483.749 1011.32 484.331C1010.81 484.88 1010.16 485.154 1009.37 485.154C1008.54 485.154 1007.84 484.88 1007.26 484.331C1006.71 483.749 1006.44 483.046 1006.44 482.223ZM1022.56 482.223C1022.56 481.503 1022.83 480.869 1023.38 480.32C1023.96 479.771 1024.67 479.497 1025.49 479.497C1026.21 479.497 1026.84 479.771 1027.39 480.32C1027.94 480.869 1028.21 481.503 1028.21 482.223C1028.21 483.046 1027.96 483.749 1027.44 484.331C1026.93 484.88 1026.28 485.154 1025.49 485.154C1024.67 485.154 1023.96 484.88 1023.38 484.331C1022.83 483.749 1022.56 483.046 1022.56 482.223Z" fill="white"/>
<path d="M607.724 611.78C607.724 612.744 607.423 613.576 606.82 614.275C606.217 614.949 605.434 615.371 604.47 615.54C607.001 616.022 608.266 617.312 608.266 619.408C608.266 622.566 605.772 624.145 600.782 624.145C600.541 624.145 599.011 624.108 596.191 624.036C595.805 624.012 595.48 623.867 595.215 623.602C594.95 623.313 594.817 622.976 594.817 622.59V609.141C594.817 608.755 594.95 608.43 595.215 608.165C595.48 607.875 595.805 607.719 596.191 607.695C598.794 607.622 600.3 607.586 600.71 607.586C605.386 607.586 607.724 608.984 607.724 611.78ZM601.18 616.697H597.709V621.686C599.445 621.758 600.553 621.795 601.035 621.795C603.807 621.795 605.193 620.927 605.193 619.192C605.193 617.528 603.855 616.697 601.18 616.697ZM597.709 610.045V614.889H601.361C602.349 614.889 603.144 614.66 603.747 614.202C604.35 613.744 604.651 613.13 604.651 612.358C604.651 610.744 603.41 609.936 600.927 609.936C600.228 609.936 599.155 609.972 597.709 610.045ZM614.67 614.419H624.54C624.468 613.069 624.01 612.009 623.167 611.238C622.347 610.466 621.238 610.081 619.84 610.081C618.418 610.081 617.237 610.478 616.297 611.274C615.382 612.069 614.839 613.118 614.67 614.419ZM627.541 614.817C627.541 615.227 627.529 615.492 627.505 615.612C627.481 615.902 627.336 616.167 627.071 616.408C626.83 616.649 626.565 616.769 626.276 616.769H614.851C614.972 618.288 615.538 619.481 616.55 620.348C617.587 621.216 618.913 621.65 620.527 621.65C622.046 621.65 623.372 621.325 624.504 620.674C624.769 620.529 625.035 620.457 625.3 620.457C625.661 620.457 625.987 620.614 626.276 620.927C626.42 621.096 626.493 621.313 626.493 621.578C626.493 622.036 626.348 622.361 626.059 622.554C624.348 623.759 622.432 624.362 620.31 624.362C617.659 624.362 615.55 623.59 613.984 622.048C612.393 620.505 611.597 618.444 611.597 615.865C611.597 613.431 612.345 611.394 613.839 609.755C615.333 608.165 617.382 607.369 619.985 607.369C622.13 607.369 623.926 608.056 625.372 609.43C626.818 610.852 627.541 612.648 627.541 614.817ZM634.569 623.241V629.857C634.617 630.411 634.388 630.797 633.882 631.014C633.376 631.255 632.87 631.255 632.364 631.014C631.858 630.797 631.629 630.411 631.677 629.857V608.924C631.629 608.369 631.858 607.984 632.364 607.767C632.87 607.526 633.376 607.526 633.882 607.767C634.388 607.984 634.617 608.369 634.569 608.924V609.647C635.148 608.972 635.943 608.43 636.955 608.02C637.968 607.586 639.016 607.369 640.101 607.369C642.391 607.369 644.222 608.128 645.596 609.647C646.946 611.214 647.621 613.202 647.621 615.612C647.621 618.095 646.837 620.18 645.271 621.867C643.728 623.53 641.692 624.362 639.161 624.362C637.208 624.362 635.678 623.988 634.569 623.241ZM634.569 612.322V620.385C635.847 621.228 637.293 621.65 638.908 621.65C640.619 621.65 641.981 621.108 642.993 620.023C644.029 618.914 644.548 617.48 644.548 615.721C644.548 614.009 644.078 612.648 643.138 611.635C642.198 610.599 640.908 610.081 639.269 610.081C637.341 610.081 635.774 610.828 634.569 612.322ZM666.589 608.924V622.879C666.638 623.434 666.409 623.819 665.902 624.036C665.396 624.277 664.89 624.277 664.384 624.036C663.878 623.819 663.649 623.434 663.697 622.879V617.131H654.659V622.879C654.707 623.434 654.478 623.819 653.972 624.036C653.466 624.277 652.959 624.277 652.453 624.036C651.947 623.819 651.718 623.434 651.766 622.879V608.924C651.718 608.369 651.947 607.984 652.453 607.767C652.959 607.526 653.466 607.526 653.972 607.767C654.478 607.984 654.707 608.369 654.659 608.924V614.419H663.697V608.924C663.649 608.369 663.878 607.984 664.384 607.767C664.89 607.526 665.396 607.526 665.902 607.767C666.409 607.984 666.638 608.369 666.589 608.924ZM673.014 608.454L677.461 618.071C677.509 618.239 677.835 619.059 678.437 620.529C678.654 619.734 678.907 618.902 679.197 618.035L682.631 608.671C682.872 607.924 683.342 607.55 684.041 607.55C684.547 607.55 684.933 607.683 685.198 607.948C685.487 608.189 685.632 608.526 685.632 608.96C685.632 609.153 685.584 609.382 685.487 609.647L679.739 624C678.63 626.82 677.618 628.736 676.702 629.748C675.786 630.737 674.726 631.231 673.52 631.231C671.592 631.231 670.628 630.664 670.628 629.532C670.628 628.76 671.014 628.375 671.785 628.375C671.857 628.375 672.062 628.399 672.4 628.447C672.761 628.519 673.026 628.555 673.195 628.555C673.87 628.555 674.473 628.266 675.003 627.688C675.557 627.109 676.112 626.169 676.666 624.868L677.027 624L670.194 609.755C670.098 609.587 670.05 609.358 670.05 609.068C670.05 608.635 670.194 608.273 670.484 607.984C670.773 607.695 671.158 607.55 671.64 607.55C672.267 607.55 672.725 607.851 673.014 608.454ZM696.2 610.623V622.879C696.248 623.434 696.019 623.819 695.513 624.036C695.007 624.277 694.501 624.277 693.995 624.036C693.488 623.819 693.259 623.434 693.308 622.879V610.623H688.716C688.162 610.671 687.764 610.442 687.523 609.936C687.306 609.43 687.306 608.924 687.523 608.418C687.764 607.912 688.162 607.683 688.716 607.731H700.791C701.346 607.683 701.731 607.912 701.948 608.418C702.189 608.924 702.189 609.43 701.948 609.936C701.731 610.442 701.346 610.671 700.791 610.623H696.2ZM708.219 608.924V612.612H711.183C713.401 612.612 715.028 613.118 716.064 614.13C717.1 615.118 717.619 616.48 717.619 618.215C717.619 619.951 717.052 621.349 715.919 622.409C714.787 623.47 713.087 624 710.822 624H706.7C706.314 624 705.989 623.867 705.724 623.602C705.459 623.337 705.326 623.012 705.326 622.626V608.924C705.278 608.369 705.507 607.984 706.013 607.767C706.519 607.526 707.025 607.526 707.532 607.767C708.038 607.984 708.267 608.369 708.219 608.924ZM708.219 615.323V621.288H710.605C713.232 621.288 714.545 620.3 714.545 618.324C714.545 616.323 713.244 615.323 710.641 615.323H708.219ZM732.42 611.021C731.215 610.394 730.022 610.081 728.841 610.081C727.322 610.081 726.021 610.623 724.936 611.708C723.828 612.816 723.273 614.202 723.273 615.865C723.273 617.601 723.84 618.999 724.972 620.059C726.105 621.12 727.491 621.65 729.13 621.65C730.48 621.65 731.637 621.276 732.601 620.529C732.987 620.216 733.36 620.059 733.722 620.059C734.035 620.059 734.312 620.18 734.553 620.421C734.818 620.686 734.951 620.987 734.951 621.325C734.951 621.734 734.818 622.048 734.553 622.265C733.011 623.663 731.131 624.362 728.913 624.362C726.334 624.362 724.237 623.578 722.622 622.012C721.008 620.469 720.2 618.42 720.2 615.865C720.2 613.479 720.984 611.467 722.55 609.828C724.117 608.189 726.081 607.369 728.443 607.369C730.468 607.369 732.227 607.791 733.722 608.635C734.228 608.9 734.481 609.309 734.481 609.864C734.481 610.105 734.421 610.322 734.3 610.515C734.059 610.948 733.661 611.165 733.107 611.165C732.818 611.165 732.589 611.117 732.42 611.021ZM737.304 621.939L740.413 617.854C739.425 617.637 738.593 617.107 737.918 616.263C737.244 615.395 736.906 614.359 736.906 613.154C736.906 611.491 737.509 610.177 738.714 609.213C739.919 608.225 741.739 607.731 744.173 607.731H747.861C748.246 607.731 748.572 607.863 748.837 608.128C749.102 608.394 749.235 608.719 749.235 609.105V622.879C749.283 623.434 749.054 623.819 748.548 624.036C748.041 624.277 747.535 624.277 747.029 624.036C746.523 623.819 746.294 623.434 746.342 622.879V618.577H743.197L739.618 623.458C739.232 623.988 738.81 624.253 738.352 624.253C737.918 624.253 737.569 624.133 737.304 623.892C737.039 623.651 736.906 623.349 736.906 622.988C736.906 622.698 737.039 622.349 737.304 621.939ZM743.016 615.865H746.342V610.442H743.703C742.474 610.442 741.546 610.695 740.919 611.202C740.292 611.708 739.979 612.383 739.979 613.226C739.979 613.997 740.28 614.636 740.883 615.142C741.486 615.624 742.197 615.865 743.016 615.865ZM777.416 608.924V622.879C777.465 623.434 777.236 623.819 776.73 624.036C776.223 624.277 775.717 624.277 775.211 624.036C774.705 623.819 774.476 623.434 774.524 622.879V617.131H765.486V622.879C765.534 623.434 765.305 623.819 764.799 624.036C764.293 624.277 763.786 624.277 763.28 624.036C762.774 623.819 762.545 623.434 762.593 622.879V608.924C762.545 608.369 762.774 607.984 763.28 607.767C763.786 607.526 764.293 607.526 764.799 607.767C765.305 607.984 765.534 608.369 765.486 608.924V614.419H774.524V608.924C774.476 608.369 774.705 607.984 775.211 607.767C775.717 607.526 776.223 607.526 776.73 607.767C777.236 607.984 777.465 608.369 777.416 608.924ZM781.455 619.228C781.455 617.637 782.022 616.384 783.154 615.468C784.287 614.528 785.77 614.058 787.601 614.058C789.313 614.058 790.662 614.407 791.651 615.106C791.651 613.274 791.398 611.961 790.891 611.165C790.385 610.37 789.409 609.972 787.963 609.972C786.902 609.972 785.818 610.189 784.709 610.623C784.516 610.695 784.336 610.732 784.167 610.732C783.637 610.732 783.263 610.491 783.046 610.008C782.974 609.84 782.938 609.671 782.938 609.502C782.938 608.924 783.179 608.538 783.661 608.345C785.203 607.695 786.698 607.369 788.144 607.369C790.337 607.369 791.928 607.912 792.916 608.996C793.904 610.081 794.398 611.756 794.398 614.022V622.988C794.398 623.325 794.266 623.626 794.001 623.892C793.736 624.133 793.41 624.253 793.024 624.253C792.639 624.253 792.313 624.133 792.048 623.892C791.783 623.626 791.651 623.325 791.651 622.988V621.903C790.373 623.47 788.638 624.253 786.444 624.253C784.95 624.253 783.745 623.807 782.829 622.915C781.913 621.999 781.455 620.77 781.455 619.228ZM791.651 619.553V617.492C790.638 616.769 789.421 616.408 787.999 616.408C787.011 616.408 786.179 616.649 785.504 617.131C784.854 617.589 784.528 618.239 784.528 619.083C784.528 619.878 784.781 620.505 785.288 620.963C785.818 621.421 786.541 621.65 787.457 621.65C789.072 621.65 790.47 620.951 791.651 619.553ZM804.375 607.369C806.304 607.369 807.798 607.755 808.858 608.526C809.943 609.297 810.485 610.37 810.485 611.744C810.485 613.648 809.533 614.937 807.629 615.612C808.69 615.757 809.521 616.191 810.124 616.914C810.726 617.613 811.028 618.468 811.028 619.481C811.028 620.975 810.389 622.168 809.112 623.06C807.858 623.928 806.195 624.362 804.122 624.362C801.881 624.362 800.013 623.867 798.518 622.879C798.109 622.59 797.904 622.216 797.904 621.758C797.904 621.517 797.988 621.264 798.157 620.999C798.398 620.614 798.759 620.421 799.242 620.421C799.483 620.421 799.736 620.493 800.001 620.638C801.278 621.385 802.507 621.758 803.688 621.758C804.942 621.758 805.966 621.517 806.762 621.035C807.557 620.529 807.955 619.878 807.955 619.083C807.955 618.408 807.665 617.89 807.087 617.528C806.533 617.167 805.761 616.986 804.773 616.986H803.255C802.917 616.986 802.628 616.878 802.387 616.661C802.146 616.42 802.025 616.131 802.025 615.793C802.025 615.48 802.146 615.215 802.387 614.998C802.628 614.757 802.917 614.636 803.255 614.636H804.592C805.412 614.636 806.087 614.419 806.617 613.985C807.147 613.527 807.412 612.973 807.412 612.322C807.412 611.599 807.099 611.033 806.472 610.623C805.846 610.189 805.002 609.972 803.942 609.972C802.688 609.972 801.447 610.262 800.218 610.84C800.049 610.936 799.82 610.985 799.531 610.985C799.073 610.985 798.711 610.78 798.446 610.37C798.35 610.201 798.302 610.008 798.302 609.792C798.302 609.334 798.555 608.948 799.061 608.635C800.531 607.791 802.303 607.369 804.375 607.369ZM814.29 619.228C814.29 617.637 814.857 616.384 815.99 615.468C817.122 614.528 818.605 614.058 820.436 614.058C822.148 614.058 823.497 614.407 824.486 615.106C824.486 613.274 824.233 611.961 823.726 611.165C823.22 610.37 822.244 609.972 820.798 609.972C819.737 609.972 818.653 610.189 817.544 610.623C817.351 610.695 817.171 610.732 817.002 610.732C816.472 610.732 816.098 610.491 815.881 610.008C815.809 609.84 815.773 609.671 815.773 609.502C815.773 608.924 816.014 608.538 816.496 608.345C818.038 607.695 819.533 607.369 820.979 607.369C823.172 607.369 824.763 607.912 825.751 608.996C826.739 610.081 827.233 611.756 827.233 614.022V622.988C827.233 623.325 827.101 623.626 826.836 623.892C826.571 624.133 826.245 624.253 825.86 624.253C825.474 624.253 825.148 624.133 824.883 623.892C824.618 623.626 824.486 623.325 824.486 622.988V621.903C823.208 623.47 821.473 624.253 819.28 624.253C817.785 624.253 816.58 623.807 815.664 622.915C814.748 621.999 814.29 620.77 814.29 619.228ZM824.486 619.553V617.492C823.473 616.769 822.256 616.408 820.834 616.408C819.846 616.408 819.014 616.649 818.34 617.131C817.689 617.589 817.363 618.239 817.363 619.083C817.363 619.878 817.616 620.505 818.123 620.963C818.653 621.421 819.376 621.65 820.292 621.65C821.907 621.65 823.305 620.951 824.486 619.553ZM845.707 624H832.547V626.603C832.547 626.989 832.414 627.314 832.149 627.579C831.884 627.844 831.57 627.977 831.209 627.977C830.823 627.977 830.498 627.844 830.233 627.579C829.968 627.314 829.835 626.989 829.835 626.603V622.662C829.835 622.277 829.968 621.951 830.233 621.686C830.498 621.421 830.823 621.288 831.209 621.288H831.86C832.462 620.541 832.992 619.336 833.45 617.673C833.908 615.986 834.21 614.106 834.354 612.033L834.535 609.105C834.559 608.719 834.704 608.394 834.969 608.128C835.258 607.863 835.596 607.731 835.981 607.731H844.333C844.718 607.731 845.044 607.863 845.309 608.128C845.574 608.394 845.707 608.719 845.707 609.105V621.288H847.044C847.43 621.288 847.755 621.421 848.02 621.686C848.286 621.951 848.418 622.277 848.418 622.662V626.603C848.418 626.989 848.286 627.314 848.02 627.579C847.755 627.844 847.442 627.977 847.08 627.977C846.695 627.977 846.369 627.844 846.104 627.579C845.839 627.314 845.707 626.989 845.707 626.603V624ZM834.933 621.288H842.814V610.442H837.319L837.138 613.154C836.993 614.962 836.704 616.613 836.27 618.107C835.837 619.601 835.391 620.662 834.933 621.288Z" fill="white"/>
</g>
<defs>
<clipPath id="clip0_271_3">
<rect width="1440" height="960" fill="white"/>
</clipPath>
</defs>
</svg>
