<svg width="423" height="468" viewBox="0 0 423 468" fill="none" xmlns="http://www.w3.org/2000/svg">
<path d="M52.2233 376.648L52.2232 376.648L51.6417 377.122L51.6416 377.122C52.2232 376.648 52.2231 376.648 52.2228 376.648L52.2208 376.645L52.2119 376.634L52.1751 376.589C52.1422 376.548 52.0926 376.485 52.0269 376.402C51.8956 376.236 51.7 375.986 51.4453 375.654C50.936 374.99 50.1901 373.996 49.2488 372.683C47.366 370.057 44.7012 366.157 41.5815 361.067C35.3419 350.889 27.2843 335.958 20.024 316.966C5.50388 278.983 -5.82504 224.763 6.94442 159.808L6.20851 159.664L6.94442 159.808C8.73463 150.699 11.6309 136.542 16.981 123.875C22.3477 111.168 30.0851 100.196 41.4221 97.1061L41.2249 96.3825L41.4222 97.106C45.3389 96.0379 49.1967 96.0409 55.0587 97.8233C60.9578 99.6169 68.8394 103.198 80.7816 109.265C102.876 120.497 121.332 131.328 134.481 139.094C135.036 139.422 135.582 139.745 136.119 140.062C141.928 143.494 146.624 146.268 150.029 148.118C151.884 149.127 153.386 149.877 154.488 150.308C155.033 150.522 155.525 150.675 155.933 150.73C156.271 150.775 156.881 150.799 157.258 150.32C157.51 149.998 157.517 149.616 157.487 149.356C157.456 149.078 157.364 148.776 157.244 148.472C157.002 147.858 156.586 147.084 156.036 146.183C154.93 144.372 153.209 141.929 151.022 139.006C146.644 133.153 140.349 125.302 133.242 116.574C129.675 112.194 125.903 107.592 122.064 102.909C110.595 88.9162 98.5294 74.1954 89.5495 62.4775L89.5493 62.4772C87.7294 60.1046 83.988 55.0778 83.7227 48.2922C83.4166 40.4286 87.9033 33.3644 93.4454 27.6408C98.9707 21.9345 105.428 17.681 108.845 15.4303L108.85 15.4268C116.641 10.3008 129.879 5.81276 146.741 3.20277C163.583 0.595699 183.978 -0.127592 206.039 2.22747C250.162 6.9377 300.899 23.9557 343.203 62.779C400.43 115.304 433.897 200.077 417.322 285.2C402.872 359.354 347.672 448.182 252.633 464.404C197.204 473.865 149.598 455.001 114.575 432.206C79.5501 409.411 57.1667 382.721 52.2233 376.648Z" fill="#B2C0F2" stroke="white" stroke-width="1.5"/>
</svg>
