<svg width="348" height="547" viewBox="0 0 348 547" fill="none" xmlns="http://www.w3.org/2000/svg">
<path d="M2.07616 318.686L2.07616 318.685C0.725653 299.591 -6.7599 193.643 68.1219 103.326L67.5448 102.848L68.1219 103.326C116.126 45.4207 173.645 23.3017 188.67 17.9219L188.425 17.2382L188.67 17.9219C210.615 10.0616 247.445 -2.66097 294.771 3.20352C356.878 10.8964 397.939 45.7541 418.538 63.7289L419.031 63.1638L418.538 63.729C438.639 81.2633 506.202 145.405 514.34 249.977L514.341 249.979L514.341 249.991L514.345 250.04C514.348 250.085 514.353 250.152 514.358 250.242C514.361 250.282 514.364 250.326 514.367 250.374C514.377 250.545 514.39 250.77 514.404 251.049C514.441 251.763 514.486 252.825 514.519 254.212C514.587 256.986 514.61 261.06 514.43 266.247C514.071 276.62 512.9 291.443 509.654 309.223C503.163 344.784 488.376 392.161 455.19 439.425C448.296 449.241 440.219 458.609 433.86 465.528C430.682 468.986 427.935 471.829 425.984 473.808C425.008 474.797 424.231 475.569 423.699 476.094C423.433 476.357 423.228 476.557 423.089 476.692C423.02 476.759 422.968 476.81 422.933 476.844L422.893 476.882L422.884 476.892L422.881 476.894L422.881 476.894C403.901 495.158 390.993 502.116 387.493 503.942L387.492 503.943C381.116 507.276 373.733 511.135 366.034 513.377C358.342 515.616 350.416 516.216 342.932 513.114L342.932 513.113C337.482 510.858 334.499 507.55 328.517 500.72C319.743 490.695 314.91 481.951 309.948 472.116C309.241 470.714 308.531 469.29 307.807 467.837C303.445 459.087 298.559 449.284 290.59 436.995L290.59 436.995L290.563 436.954C288.668 434.036 285.45 429.08 282.346 425.004C280.79 422.96 279.239 421.107 277.883 419.839C277.208 419.208 276.547 418.69 275.93 418.372C275.337 418.067 274.617 417.862 273.945 418.165L273.943 418.165C273.477 418.377 273.185 418.77 273.007 419.185C272.831 419.595 272.743 420.079 272.703 420.584C272.624 421.595 272.731 422.87 272.924 424.233C273.198 426.167 273.666 428.398 274.102 430.476C274.28 431.325 274.453 432.149 274.605 432.916L274.605 432.918L274.607 432.929L274.616 432.974C274.624 433.015 274.635 433.077 274.65 433.16C274.68 433.327 274.723 433.576 274.776 433.906C274.881 434.564 275.025 435.543 275.177 436.813C275.48 439.352 275.813 443.057 275.934 447.702C276.175 456.993 275.563 470.04 272.148 485.048C268.015 503.194 255.128 528.379 234.135 539.548C216.203 549.089 195.402 546.794 174.656 539.421C153.915 532.049 133.382 519.656 116.067 509.202L115.735 509.752L116.067 509.202C93.9077 495.824 50.6347 468.918 23.8009 414.606L23.6988 414.399L23.6921 414.395C6.22862 378.959 4.07631 347.701 2.3489 322.614C2.25754 321.287 2.16736 319.978 2.07616 318.686Z" fill="#B2C0F2" stroke="white" stroke-width="1.5"/>
</svg>
