<svg width="378" height="484" viewBox="0 0 378 484" fill="none" xmlns="http://www.w3.org/2000/svg">
<path d="M-58.6382 385.93L-58.6627 385.897L-58.6737 385.885C-119.901 303.142 -102.843 209.748 -97.225 184.966C-84.1991 127.502 -52.726 85.9843 -21.2674 57.9421C10.2067 29.8861 41.6243 15.3563 54.4491 11.8498L54.4496 11.8497C59.7937 10.3845 72.3806 6.97389 83.6435 12.981C91.9899 17.4327 96.946 25.6328 104.641 47.6629L105.228 47.4577L104.641 47.663C110.891 65.5521 114.392 79.4774 116.867 89.3268C117.065 90.1142 117.256 90.8756 117.442 91.6108C118.693 96.5614 119.698 100.379 120.724 102.979C121.236 104.278 121.775 105.33 122.391 106.08C123.015 106.841 123.769 107.347 124.691 107.407L124.692 107.407C125.714 107.472 126.641 106.969 127.587 105.769C128.517 104.591 129.56 102.63 130.845 99.5109C133.424 93.2546 137.074 82.097 142.757 62.5584C146.034 51.2977 148.437 42.5801 150.326 35.7276C152.002 29.6451 153.274 25.0322 154.392 21.4149C156.756 13.7638 158.366 10.8046 161.519 8.00457C166.915 3.21862 174.269 1.21062 182.466 0.996535C190.66 0.782554 199.618 2.36435 208.123 4.67599C225.132 9.29868 240.182 16.7986 243.405 18.438C293.629 43.9957 324.621 90.1982 343.477 132.665C362.33 175.124 369.014 213.762 370.668 224.07C375.498 254.205 379.289 277.93 372.91 308.646C355.219 393.768 274.227 460.669 186.862 477.809C101.087 494.636 0.0955524 465.267 -58.6382 385.93Z" fill="#B2C0F2" stroke="white" stroke-width="1.5"/>
</svg>
