<svg width="387" height="325" viewBox="0 0 387 325" fill="none" xmlns="http://www.w3.org/2000/svg">
<path d="M223.288 376.052L223.248 376.058L223.235 376.061C142.801 388.44 83.7266 342.124 68.4486 329.065C33.0331 298.795 15.5662 261.486 7.52362 229.145C-0.523885 196.784 0.878083 169.452 3.14173 159.205L3.14185 159.204C4.08585 154.917 6.32631 144.907 14.626 139.271C20.7628 135.104 28.2724 134.64 46.5416 137.369L46.6524 136.627L46.5417 137.369C61.3665 139.582 72.403 142.26 80.2128 144.155C80.8371 144.307 81.4408 144.453 82.0242 144.594C85.9491 145.542 89.0039 146.247 91.2149 146.488C92.3192 146.608 93.2741 146.62 94.0494 146.461C94.8392 146.298 95.5169 145.94 95.9284 145.267L95.9288 145.266C96.388 144.514 96.3614 143.621 95.8581 142.49C95.3661 141.384 94.3652 139.917 92.6525 137.865C89.2148 133.747 82.7396 127.074 71.1499 115.895C64.4656 109.446 59.2457 104.551 55.1437 100.705C51.5041 97.2919 48.7446 94.7043 46.6231 92.5888C42.1415 88.1199 40.6874 85.9268 39.8989 82.7292C38.5469 77.2361 39.8358 71.3846 42.6971 65.5832C45.557 59.7845 49.9545 54.106 54.7019 49.0068C64.1952 38.8101 74.9827 31.0404 77.316 29.3888C113.68 3.66034 157.416 -1.02127 194.088 1.41839C230.751 3.85748 260.26 13.4086 268.084 16.0465C290.97 23.7678 308.957 29.8461 328.094 45.6116C381.133 89.3164 398.14 170.62 377.968 238.076C358.163 304.3 300.427 364.16 223.288 376.052Z" fill="#B2C0F2" stroke="white" stroke-width="1.5"/>
</svg>
