<svg width="388" height="380" viewBox="0 0 388 380" fill="none" xmlns="http://www.w3.org/2000/svg">
<path d="M223.432 376.261L223.392 376.267L223.379 376.27C142.945 388.649 83.8707 342.333 68.5927 329.274C33.1772 299.004 15.7102 261.695 7.66766 229.355C-0.379842 196.993 1.02213 169.661 3.28577 159.414L3.28589 159.413C4.22989 155.126 6.47035 145.116 14.7701 139.48C20.9068 135.313 28.4164 134.85 46.6856 137.578L46.7964 136.836L46.6857 137.578C61.5105 139.791 72.547 142.469 80.3568 144.364C80.9812 144.516 81.5849 144.662 82.1683 144.803C86.0931 145.751 89.148 146.456 91.359 146.697C92.4633 146.817 93.4181 146.829 94.1935 146.67C94.9832 146.507 95.661 146.149 96.0724 145.476L96.0728 145.475C96.532 144.723 96.5054 143.83 96.0021 142.699C95.5102 141.593 94.5092 140.126 92.7965 138.074C89.3589 133.956 82.8836 127.283 71.294 116.104C64.6096 109.655 59.3897 104.76 55.2878 100.914C51.6481 97.501 48.8887 94.9133 46.7672 92.7979C42.2856 88.329 40.8315 86.1358 40.043 82.9382C38.6909 77.4452 39.9798 71.5936 42.8411 65.7923C45.701 59.9936 50.0986 54.315 54.8459 49.2159C64.3392 39.0192 75.1267 31.2495 77.46 29.5978C113.824 3.86939 157.56 -0.812225 194.232 1.62743C230.895 4.06653 260.404 13.6176 268.228 16.2555C291.114 23.9768 309.101 30.0551 328.238 45.8207C381.277 89.5254 398.284 170.829 378.112 238.285C358.307 304.509 300.571 364.369 223.432 376.261Z" fill="#B2C0F2" stroke="white" stroke-width="1.5"/>
</svg>
