<svg width="401" height="407" viewBox="0 0 401 407" fill="none" xmlns="http://www.w3.org/2000/svg">
<path d="M177.271 404.223L177.229 404.218L177.216 404.218C93.6129 394.745 47.1163 331.364 35.3797 313.869C8.17515 273.318 0.779256 230.524 1.45406 195.376C2.1292 160.209 10.8828 132.755 15.9022 122.935L15.9024 122.935C17.9989 118.827 22.9332 109.238 32.7408 105.774C39.9903 103.214 47.6124 104.805 65.1098 112.598L65.4149 111.913L65.1099 112.598C79.3094 118.921 89.603 124.677 96.8868 128.751C97.4689 129.076 98.0319 129.391 98.576 129.694C102.238 131.737 105.096 133.293 107.236 134.144C108.305 134.57 109.253 134.844 110.068 134.894C110.9 134.945 111.667 134.765 112.252 134.2L112.252 134.2C112.9 133.572 113.112 132.675 112.916 131.396C112.724 130.143 112.122 128.381 110.965 125.822C108.644 120.687 103.979 112.117 95.4204 97.5535C90.4859 89.1545 86.5938 82.7378 83.535 77.695C80.8206 73.2198 78.7624 69.8266 77.2143 67.0901C73.9435 61.3083 73.0764 58.6658 73.1501 55.1779C73.2789 49.1957 76.1477 43.5806 80.566 38.4561C84.983 33.3332 90.9016 28.7564 97.0115 24.8669C109.23 17.0888 122.086 12.1378 124.859 11.0964C168.072 -5.12146 212.979 2.11658 248.919 14.6667C284.852 27.2139 311.731 45.0394 318.829 49.8732C339.589 64.0162 355.908 75.145 370.768 96.4566C411.953 155.535 407.048 243.013 368.763 306.174C331.176 368.183 257.449 413.287 177.271 404.223Z" fill="#B2C0F2" stroke="white" stroke-width="1.5"/>
</svg>
