<svg width="338" height="401" viewBox="0 0 338 401" fill="none" xmlns="http://www.w3.org/2000/svg">
<path d="M52.2243 376.648L52.2241 376.647L51.6426 377.121L51.6426 377.121C52.2241 376.647 52.2241 376.647 52.2237 376.647L52.2217 376.644L52.2129 376.633L52.1761 376.588C52.1432 376.547 52.0936 376.485 52.0279 376.402C51.8966 376.236 51.701 375.986 51.4463 375.653C50.9369 374.989 50.1911 373.995 49.2497 372.682C47.367 370.056 44.7022 366.156 41.5825 361.067C35.3429 350.888 27.2853 335.958 20.0249 316.965C5.50486 278.983 -5.82407 224.763 6.9454 159.808L6.20948 159.663L6.9454 159.807C8.73561 150.698 11.6319 136.542 16.982 123.874C22.3486 111.167 30.0861 100.195 41.4231 97.1053L41.2258 96.3817L41.4232 97.1053C45.3399 96.0372 49.1976 96.0402 55.0597 97.8225C60.9588 99.6162 68.8404 103.197 80.7826 109.264C102.877 120.496 121.333 131.327 134.482 139.093C135.037 139.421 135.583 139.744 136.12 140.061C141.928 143.493 146.625 146.268 150.03 148.118C151.885 149.126 153.387 149.876 154.489 150.307C155.034 150.521 155.526 150.674 155.934 150.729C156.272 150.774 156.882 150.799 157.259 150.319C157.511 149.998 157.518 149.615 157.488 149.356C157.457 149.077 157.365 148.775 157.245 148.471C157.003 147.857 156.587 147.083 156.037 146.182C154.931 144.371 153.21 141.929 151.023 139.005C146.645 133.152 140.35 125.301 133.243 116.574C129.676 112.193 125.904 107.591 122.065 102.908C110.596 88.9154 98.5303 74.1947 89.5505 62.4768L89.5503 62.4765C87.7303 60.1038 83.9889 55.0771 83.7237 48.2915C83.4176 40.4279 87.9043 33.3637 93.4464 27.64C98.9717 21.9337 105.429 17.6803 108.846 15.4296L108.851 15.426C116.642 10.3 129.88 5.81203 146.742 3.20203C163.584 0.594967 183.979 -0.128324 206.04 2.22673C250.163 6.93697 300.9 23.955 343.204 62.7783C400.431 115.303 433.898 200.076 417.323 285.199C402.873 359.353 347.673 448.181 252.634 464.403C197.205 473.864 149.599 455 114.576 432.205C79.551 409.41 57.1677 382.72 52.2243 376.648Z" fill="#B2C0F2" stroke="white" stroke-width="1.5"/>
</svg>
