<svg width="683" height="664" viewBox="0 0 683 664" fill="none" xmlns="http://www.w3.org/2000/svg">
<mask id="path-1-inside-1_280_29" fill="white">
<path d="M152.085 91.5138C186.106 61.9143 267.402 -7.02436 369.734 0.832809C374.031 1.1647 468.681 9.37103 482.894 56.5194C486.351 68.0111 482.831 84.4994 475.798 117.466C465.198 167.103 454.889 187.162 460.816 191.017C470.558 197.353 502.772 145.849 563.275 130.783C573.775 128.167 583.35 127.096 593.801 129.248C601.157 130.763 622.283 136.656 644.718 171.505C664.603 202.387 683.777 253.286 682.188 309.63C679.128 418.739 597.98 558.313 461.275 623.88C357.456 673.675 221.184 680.983 119.684 619.03C101.224 607.767 57.6745 581.92 29.5983 528.955C-10.3353 453.594 0.924845 378.023 7.92581 336.772C31.3221 198.979 123.658 116.236 152.085 91.5138Z"/>
</mask>
<path d="M152.085 91.5138C186.106 61.9143 267.402 -7.02436 369.734 0.832809C374.031 1.1647 468.681 9.37103 482.894 56.5194C486.351 68.0111 482.831 84.4994 475.798 117.466C465.198 167.103 454.889 187.162 460.816 191.017C470.558 197.353 502.772 145.849 563.275 130.783C573.775 128.167 583.35 127.096 593.801 129.248C601.157 130.763 622.283 136.656 644.718 171.505C664.603 202.387 683.777 253.286 682.188 309.63C679.128 418.739 597.98 558.313 461.275 623.88C357.456 673.675 221.184 680.983 119.684 619.03C101.224 607.767 57.6745 581.92 29.5983 528.955C-10.3353 453.594 0.924845 378.023 7.92581 336.772C31.3221 198.979 123.658 116.236 152.085 91.5138Z" fill="#B2C0F2"/>
<path d="M152.085 91.5138L153.069 92.6457L153.069 92.6454L152.085 91.5138ZM369.734 0.832809L369.849 -0.662738L369.848 -0.662789L369.734 0.832809ZM482.894 56.5194L484.331 56.0873L484.33 56.0865L482.894 56.5194ZM475.798 117.466L477.265 117.78L477.265 117.779L475.798 117.466ZM460.816 191.017L459.998 192.274L459.998 192.274L460.816 191.017ZM563.275 130.783L563.637 132.239L563.638 132.239L563.275 130.783ZM593.801 129.248L594.104 127.779L594.103 127.779L593.801 129.248ZM644.718 171.505L643.457 172.317L643.457 172.317L644.718 171.505ZM682.188 309.63L680.688 309.588L680.688 309.588L682.188 309.63ZM461.275 623.88L461.924 625.233L461.924 625.233L461.275 623.88ZM119.684 619.03L120.465 617.749L120.465 617.749L119.684 619.03ZM29.5983 528.955L28.2729 529.657L28.273 529.657L29.5983 528.955ZM7.92581 336.772L6.44698 336.521L6.44696 336.521L7.92581 336.772ZM153.069 92.6454C187.123 63.0183 267.98 -5.47558 369.619 2.32841L369.848 -0.662789C266.824 -8.57313 185.09 60.8103 151.1 90.3821L153.069 92.6454ZM369.618 2.32836C371.722 2.49085 396.333 4.6145 422.155 12.5537C435.066 16.5235 448.21 21.9264 458.98 29.2165C469.751 36.5076 478.039 45.6096 481.458 56.9523L484.33 56.0865C480.643 43.855 471.769 34.2506 460.662 26.7321C449.553 19.2127 436.101 13.703 423.036 9.68616C396.906 1.65212 372.043 -0.493335 369.849 -0.662738L369.618 2.32836ZM481.458 56.9515C483.092 62.3826 483.113 69.1171 481.794 78.7359C480.476 88.3472 477.853 100.647 474.331 117.153L477.265 117.779C480.777 101.319 483.43 88.8909 484.766 79.1434C486.101 69.4034 486.154 62.1479 484.331 56.0873L481.458 56.9515ZM474.331 117.153C469.042 141.92 463.832 159.283 460.661 171.018C459.085 176.85 457.984 181.392 457.672 184.739C457.371 187.967 457.73 190.799 459.998 192.274L461.634 189.759C460.938 189.307 460.363 188.186 460.659 185.018C460.944 181.968 461.971 177.67 463.557 171.801C466.71 160.134 471.954 142.649 477.265 117.78L474.331 117.153ZM459.998 192.274C461.848 193.478 464.029 193.146 466.127 192.243C468.245 191.331 470.665 189.679 473.351 187.578C478.682 183.409 485.667 176.967 493.968 170.08C510.74 156.164 533.711 139.691 563.637 132.239L562.913 129.328C532.336 136.941 508.949 153.752 492.052 167.771C483.519 174.851 476.842 181.039 471.503 185.215C468.852 187.288 466.685 188.737 464.941 189.488C463.175 190.248 462.219 190.14 461.633 189.759L459.998 192.274ZM563.638 132.239C574.017 129.653 583.348 128.627 593.498 130.717L594.103 127.779C583.353 125.565 573.534 126.682 562.912 129.328L563.638 132.239ZM593.498 130.717C600.485 132.157 621.253 137.828 643.457 172.317L645.979 170.693C623.312 135.484 601.829 129.37 594.104 127.779L593.498 130.717ZM643.457 172.317C663.2 202.98 682.268 253.585 680.688 309.588L683.687 309.672C685.286 252.987 666.005 201.795 645.979 170.693L643.457 172.317ZM680.688 309.588C677.645 418.109 596.849 557.191 460.626 622.528L461.924 625.233C599.11 559.434 680.611 419.369 683.687 309.672L680.688 309.588ZM460.626 622.528C357.146 672.16 221.43 679.375 120.465 617.749L118.902 620.31C220.939 682.59 357.767 675.189 461.924 625.233L460.626 622.528ZM120.465 617.749C102.024 606.498 58.7937 580.829 30.9236 528.252L28.273 529.657C56.5553 583.011 100.424 609.036 118.903 620.31L120.465 617.749ZM30.9237 528.253C-8.75715 453.369 2.4089 378.243 9.40467 337.023L6.44696 336.521C-0.559206 377.802 -11.9135 453.819 28.2729 529.657L30.9237 528.253ZM9.40465 337.023C32.7091 199.771 124.694 117.322 153.069 92.6457L151.101 90.3819C122.621 115.149 29.9351 198.187 6.44698 336.521L9.40465 337.023Z" fill="white" mask="url(#path-1-inside-1_280_29)"/>
</svg>
