<svg width="453" height="452" viewBox="0 0 453 452" fill="none" xmlns="http://www.w3.org/2000/svg">
<path d="M399.607 360.655L399.607 360.655C383.006 379.356 363.234 395.074 341.716 407.768L341.716 407.768C326.754 416.6 310.961 423.898 294.714 430.058L294.714 430.058C271.679 438.8 248.153 445.933 223.553 448.002L223.616 448.75L223.553 448.002C208.438 449.276 193.14 448.67 178.3 445.487C163.388 442.284 149.267 436.333 136.212 428.424C123.153 420.512 110.995 410.626 99.7416 400.064C87.9603 389.004 76.8627 377.165 66.5186 364.743C45.7305 339.778 27.848 312 16.2175 281.599C5.16698 252.725 0.145644 221.511 3.96886 190.759L3.22459 190.667L3.96886 190.759C7.21084 164.656 16.4872 139.603 29.9303 117.064C43.6453 94.0783 61.6283 73.6816 82.1464 56.5462L81.6656 55.9706L82.1465 56.5461C102.564 39.489 125.583 25.5017 150.191 15.4118C173.628 5.80695 199.012 0.839335 224.252 4.41104C242.397 6.97788 260.553 13.871 276.3 23.2444C285.711 28.8512 294.917 35.9402 300.366 45.484C304.809 53.271 305.042 61.5138 303.706 70.2737C303.139 73.9853 302.502 77.6959 301.864 81.4128C300.616 88.6797 299.364 95.9709 298.626 103.343L298.626 103.343C298.585 103.752 298.544 104.163 298.503 104.575C297.783 111.762 297.028 119.3 297.464 126.571C297.577 128.488 298.021 130.825 299.09 132.626C299.63 133.535 300.346 134.336 301.288 134.861C302.238 135.391 303.368 135.61 304.676 135.43L304.677 135.43C306.479 135.179 308.143 134.318 309.629 133.298C310.901 132.425 312.091 131.402 313.15 130.491C313.327 130.338 313.501 130.189 313.671 130.044L313.184 129.473L313.671 130.044C315.897 128.141 318.061 126.17 320.212 124.204L320.486 123.954C322.548 122.07 324.6 120.195 326.703 118.379C336.397 110.019 347.14 102.787 358.637 97.1633C370.308 91.4538 383.803 87.302 396.543 90.82C402.045 92.3397 406.939 95.5626 411.158 99.4742L411.158 99.4744C425.254 112.535 434.642 131.223 440.673 151.256C446.702 171.282 449.361 192.593 450.04 210.832C450.843 232.533 448.591 254.324 443.7 275.47L444.431 275.639L443.7 275.47C440.932 287.44 437.391 299.304 432.65 310.618C430.589 315.522 428.01 320.204 425.35 324.86C418.043 337.648 409.385 349.645 399.607 360.655Z" fill="#B2C0F2" stroke="white" stroke-width="1.5"/>
</svg>
