<svg width="605" height="585" viewBox="0 0 605 585" fill="none" xmlns="http://www.w3.org/2000/svg">
<path d="M552.647 425.793L552.647 425.793L553.287 426.184L553.287 426.184C552.647 425.793 552.647 425.793 552.647 425.794L552.644 425.798L552.634 425.814L552.592 425.882C552.555 425.942 552.498 426.033 552.422 426.153C552.27 426.394 552.041 426.754 551.735 427.225C551.121 428.166 550.197 429.554 548.956 431.33C546.476 434.883 542.734 439.992 537.693 446.206C527.611 458.633 512.336 475.477 491.572 493.124C450.045 528.417 386.574 566.92 298.789 579.755C286.488 581.554 267.293 584.211 248.881 583.098C230.426 581.984 213.011 577.097 203.984 564.053C200.857 559.536 199.13 554.614 198.767 546.377C198.401 538.103 199.414 526.532 201.752 508.746C206.091 475.826 211.545 447.682 215.492 427.614C215.658 426.766 215.822 425.933 215.984 425.114C217.729 416.246 219.139 409.083 219.957 403.964C220.403 401.172 220.679 398.954 220.732 397.387C220.758 396.609 220.732 395.945 220.626 395.434C220.534 394.994 220.316 394.348 219.684 394.133C219.261 393.99 218.85 394.119 218.558 394.261C218.249 394.411 217.928 394.645 217.605 394.926C216.955 395.49 216.174 396.347 215.283 397.44C213.497 399.634 211.185 402.889 208.468 406.952C203.031 415.085 195.924 426.532 188.069 439.398C184.128 445.854 179.998 452.668 175.795 459.603C163.234 480.326 150.018 502.132 139.219 518.7L139.848 519.11L139.219 518.7C137.031 522.06 132.314 529.088 123.782 532.48C113.89 536.41 102.887 533.859 93.1659 529.401C83.4703 524.954 75.2019 518.681 70.8359 515.369L70.8256 515.361C60.837 507.774 49.2473 493.02 38.427 472.873C27.6158 452.743 17.6035 427.287 10.7392 398.355C-2.98963 340.488 -4.11494 268.767 26.0858 197.972C66.9449 102.209 159.163 22.0899 274.153 5.06629C374.304 -9.74748 511.228 20.38 574.151 133.309L574.806 132.944L574.151 133.309C610.85 199.171 608.237 267.776 595.052 322.207C581.865 376.64 558.119 416.832 552.647 425.793Z" fill="#B2C0F2" stroke="white" stroke-width="1.5"/>
</svg>
