<svg width="516" height="546" viewBox="0 0 516 546" fill="none" xmlns="http://www.w3.org/2000/svg">
<path d="M2.37694 317.747L2.37694 317.747C1.02643 298.652 -6.45912 192.704 68.4227 102.388L67.8455 101.909L68.4227 102.388C116.427 44.4821 173.946 22.3631 188.971 16.9833L188.726 16.2996L188.971 16.9833C210.916 9.123 247.746 -3.59957 295.072 2.26492C357.179 9.95782 398.24 44.8155 418.839 62.7903L419.332 62.2253L418.839 62.7904C438.939 80.3247 506.503 144.466 514.641 249.038L514.641 249.04L514.642 249.052L514.646 249.102C514.649 249.146 514.653 249.214 514.659 249.304C514.662 249.343 514.664 249.387 514.667 249.435C514.678 249.606 514.691 249.832 514.705 250.11C514.741 250.824 514.786 251.886 514.82 253.274C514.888 256.048 514.911 260.122 514.731 265.308C514.371 275.682 513.201 290.505 509.955 308.285C503.464 343.845 488.676 391.222 455.49 438.487C448.597 448.302 440.52 457.67 434.161 464.589C430.982 468.047 428.236 470.891 426.284 472.869C425.309 473.858 424.532 474.631 424 475.156C423.734 475.418 423.529 475.619 423.39 475.753C423.321 475.821 423.269 475.872 423.234 475.906L423.194 475.944L423.185 475.953L423.182 475.955L423.182 475.956C404.202 494.219 391.293 501.178 387.793 503.004L387.793 503.004C381.417 506.338 374.033 510.197 366.335 512.438C358.643 514.677 350.717 515.277 343.233 512.175L343.233 512.175C337.783 509.919 334.8 506.612 328.818 499.782C320.044 489.757 315.211 481.012 310.249 471.178C309.542 469.776 308.832 468.352 308.108 466.899C303.746 458.148 298.859 448.346 290.891 436.057L290.89 436.056L290.864 436.016C288.969 433.097 285.751 428.142 282.647 424.065C281.09 422.021 279.54 420.169 278.184 418.901C277.508 418.27 276.848 417.752 276.231 417.434C275.638 417.128 274.917 416.923 274.246 417.226L274.244 417.227C273.777 417.439 273.486 417.831 273.308 418.247C273.132 418.657 273.043 419.14 273.004 419.645C272.925 420.657 273.032 421.932 273.225 423.294C273.499 425.229 273.967 427.459 274.403 429.537C274.581 430.386 274.754 431.21 274.906 431.978L274.906 431.98L274.908 431.99L274.917 432.036C274.925 432.077 274.936 432.139 274.951 432.222C274.981 432.388 275.024 432.638 275.077 432.967C275.182 433.626 275.326 434.604 275.477 435.874C275.78 438.414 276.114 442.118 276.235 446.763C276.476 456.054 275.864 469.101 272.449 484.109C268.316 502.255 255.429 527.44 234.436 538.61C216.504 548.15 195.703 545.855 174.957 538.482C154.216 531.11 133.682 518.717 116.368 508.263L116.036 508.814L116.368 508.263C94.2085 494.886 50.9354 467.979 24.1017 413.667L23.9996 413.461L23.9929 413.457C6.52941 378.021 4.37709 346.763 2.64969 321.676C2.55832 320.349 2.46814 319.039 2.37694 317.747Z" fill="#B2C0F2" stroke="white" stroke-width="1.5"/>
</svg>
