<svg width="376" height="382" viewBox="0 0 376 382" fill="none" xmlns="http://www.w3.org/2000/svg">
<path d="M19.4611 53.3941L19.4883 53.3621L19.4956 53.3513C73.2525 -9.91282 150.748 -13.1256 171.536 -13.1129C219.718 -13.0842 258.839 4.40303 287.256 24.2937C315.689 44.1957 333.36 66.4708 338.641 75.9839L338.641 75.9843C340.853 79.9624 345.99 89.2768 343.432 99.2118C341.541 106.554 336.048 111.92 320.036 121.965C307.045 130.117 296.666 135.381 289.322 139.106C288.735 139.404 288.167 139.692 287.619 139.971C283.932 141.846 281.084 143.331 279.208 144.616C278.272 145.258 277.525 145.885 277.034 146.526C276.533 147.18 276.257 147.911 276.399 148.704L276.399 148.705C276.557 149.585 277.179 150.255 278.335 150.798C279.469 151.331 281.245 151.808 283.978 152.268C289.461 153.192 299.048 154.086 315.687 155.089C325.282 155.669 332.68 156.011 338.493 156.28C343.652 156.519 347.564 156.7 350.657 156.938C357.192 157.44 359.832 158.184 362.646 160.162C367.473 163.557 370.493 168.994 372.259 175.431C374.024 181.867 374.517 189.232 374.341 196.376C373.989 210.663 370.971 223.918 370.298 226.762C359.807 271.078 329.171 303.878 299.117 326.411C269.069 348.939 239.68 361.148 231.815 364.303C208.807 373.526 190.714 380.769 165.083 381.215C94.035 382.443 25.0821 330.296 -5.58799 264.187C-35.6974 199.283 -32.0761 114.079 19.4611 53.3941Z" fill="#B2C0F2" stroke="white" stroke-width="1.5"/>
</svg>
