<svg width="483" height="484" viewBox="0 0 483 484" fill="none" xmlns="http://www.w3.org/2000/svg">
<path d="M46.3613 385.93L46.3368 385.897L46.3258 385.885C-14.9018 303.142 2.15649 209.748 7.77452 184.966C20.8004 127.502 52.2735 85.9846 83.7321 57.9424C115.206 29.8865 146.624 15.3566 159.449 11.8502L159.449 11.8501C164.793 10.3849 177.38 6.97426 188.643 12.9814C196.989 17.4331 201.945 25.6332 209.64 47.6633L210.228 47.4581L209.64 47.6633C215.891 65.5525 219.391 79.4778 221.867 89.3271C222.065 90.1146 222.256 90.8759 222.442 91.6112C223.692 96.5618 224.697 100.379 225.723 102.979C226.236 104.278 226.775 105.331 227.39 106.08C228.015 106.841 228.768 107.348 229.69 107.407L229.691 107.407C230.714 107.473 231.64 106.97 232.587 105.77C233.516 104.591 234.559 102.631 235.845 99.5112C238.424 93.2549 242.074 82.0973 247.757 62.5588C251.033 51.2981 253.436 42.5804 255.325 35.728C257.002 29.6455 258.273 25.0326 259.391 21.4152C261.755 13.7642 263.365 10.8049 266.519 8.00494C271.914 3.21899 279.269 1.21099 287.465 0.996901C295.659 0.78292 304.618 2.36472 313.123 4.67635C330.131 9.29904 345.181 16.799 348.405 18.4383C398.628 43.9961 429.62 90.1986 448.477 132.665C467.33 175.124 474.013 213.763 475.667 224.071C480.497 254.206 484.289 277.93 477.909 308.647C460.219 393.768 379.226 460.67 291.862 477.81C206.086 494.636 105.095 465.267 46.3613 385.93Z" fill="#B2C0F2" stroke="white" stroke-width="1.5"/>
</svg>
