<svg width="499" height="503" viewBox="0 0 499 503" fill="none" xmlns="http://www.w3.org/2000/svg">
<path d="M495.463 291.385L495.456 291.426L495.456 291.442C479.402 395.734 399.096 450.716 376.999 464.51C325.763 496.497 272.822 503.546 229.703 500.88C186.564 498.213 153.312 485.826 141.502 479.018L141.501 479.018C136.579 476.185 125.006 469.48 121.249 456.937C118.465 447.641 120.861 438.109 131.346 416.611C139.859 399.15 147.471 386.553 152.855 377.643C153.285 376.931 153.701 376.242 154.103 375.576C156.805 371.093 158.858 367.607 160.009 364.986C160.585 363.676 160.961 362.526 161.063 361.54C161.166 360.539 160.991 359.631 160.373 358.922L160.373 358.921C159.688 358.136 158.66 357.825 157.107 358.002C155.581 358.175 153.403 358.83 150.205 360.145C143.791 362.782 133.035 368.176 114.71 378.138C104.149 383.878 96.0685 388.42 89.7168 391.99C84.0783 395.159 79.802 397.562 76.3619 399.359C69.0853 403.16 65.7651 404.125 61.4461 403.849C54.0626 403.375 47.2894 399.467 41.2167 393.652C35.146 387.84 29.832 380.175 25.3769 372.314C16.4676 356.595 11.0664 340.225 9.93372 336.695C-7.7049 281.684 3.56679 225.776 20.8756 181.402C38.1812 137.036 61.4877 104.286 67.7987 95.643C86.2513 70.3807 100.788 50.4975 127.756 32.974C202.497 -15.5789 309.656 -4.89266 385.182 46.3423C459.335 96.6471 510.837 191.368 495.463 291.385Z" fill="#B2C0F2" stroke="white" stroke-width="1.5"/>
</svg>
