<svg width="499" height="383" viewBox="0 0 499 383" fill="none" xmlns="http://www.w3.org/2000/svg">
<path d="M495.463 171.385L495.457 171.426L495.456 171.442C479.403 275.734 399.096 330.716 377 344.51C325.763 376.497 272.823 383.546 229.704 380.88C186.565 378.213 153.312 365.826 141.502 359.018L141.502 359.018C136.579 356.185 125.006 349.48 121.25 336.937C118.465 327.641 120.862 318.109 131.347 296.611C139.859 279.15 147.472 266.553 152.855 257.643C153.286 256.931 153.702 256.242 154.103 255.576C156.805 251.093 158.858 247.607 160.01 244.986C160.585 243.676 160.962 242.526 161.063 241.54C161.166 240.539 160.991 239.631 160.374 238.922L160.373 238.921C159.688 238.136 158.661 237.825 157.108 238.002C155.582 238.175 153.404 238.83 150.205 240.145C143.791 242.782 133.035 248.176 114.71 258.138C104.149 263.878 96.069 268.42 89.7173 271.99C84.0787 275.159 79.8025 277.562 76.3624 279.359C69.0857 283.16 65.7656 284.125 61.4465 283.849C54.0631 283.375 47.2899 279.467 41.2172 273.652C35.1465 267.84 29.8325 260.175 25.3773 252.314C16.4681 236.595 11.0669 220.225 9.9342 216.695C-7.70441 161.684 3.56728 105.776 20.8761 61.4019C38.1817 17.0355 61.4882 -15.7139 67.7992 -24.357C86.2517 -49.6193 100.788 -69.5025 127.757 -87.026C202.498 -135.579 309.656 -124.893 385.183 -73.6577C459.336 -23.3529 510.837 71.3677 495.463 171.385Z" fill="#B2C0F2" stroke="white" stroke-width="1.5"/>
</svg>
