<svg width="402" height="397" viewBox="0 0 402 397" fill="none" xmlns="http://www.w3.org/2000/svg">
<path d="M45.3556 67.7533L45.3829 67.7212L45.3901 67.7104C99.147 4.44631 176.642 1.23355 197.43 1.24624C245.613 1.27493 284.733 18.7622 313.15 38.6528C341.584 58.5549 359.254 80.8299 364.535 90.343L364.536 90.3434C366.748 94.3215 371.885 103.636 369.326 113.571C367.436 120.913 361.942 126.28 345.931 136.324C332.94 144.476 322.561 149.74 315.217 153.465C314.63 153.763 314.062 154.051 313.514 154.33C309.826 156.206 306.979 157.69 305.103 158.976C304.166 159.617 303.419 160.244 302.928 160.885C302.428 161.539 302.151 162.27 302.293 163.063L302.293 163.064C302.452 163.945 303.073 164.614 304.23 165.157C305.364 165.69 307.14 166.167 309.872 166.628C315.356 167.551 324.943 168.445 341.581 169.449C351.177 170.028 358.574 170.37 364.388 170.64C369.547 170.878 373.459 171.06 376.552 171.297C383.087 171.799 385.726 172.543 388.54 174.521C393.367 177.916 396.387 183.353 398.153 189.791C399.919 196.226 400.411 203.591 400.235 210.735C399.884 225.022 396.865 238.277 396.193 241.121C385.701 285.437 355.066 318.237 325.011 340.77C294.964 363.299 265.574 375.507 257.709 378.662C234.702 387.885 216.608 395.128 190.977 395.574C119.93 396.803 50.9767 344.656 20.3065 278.546C-9.80291 213.642 -6.18161 128.438 45.3556 67.7533Z" fill="#B2C0F2" stroke="white" stroke-width="1.5"/>
</svg>
