<svg width="57" height="25" viewBox="0 0 57 25" fill="none" xmlns="http://www.w3.org/2000/svg">
<path d="M17.5886 19.6767C19.2289 18.2002 17.286 13.3233 13.2492 8.78391C9.2123 4.24453 4.61012 1.76159 2.96989 3.23812C1.32967 4.71466 3.27252 9.59152 7.30937 14.1309C11.3462 18.6703 15.9484 21.1532 17.5886 19.6767Z" stroke="black" stroke-width="1.27917" stroke-miterlimit="10"/>
<path d="M23.4916 22.5518C25.8195 21.1995 25.2527 15.827 22.2257 10.5519C19.1986 5.27682 14.8575 2.09674 12.5296 3.44899C10.2016 4.80124 10.7684 10.1738 13.7954 15.4488C16.8225 20.7239 21.1636 23.904 23.4916 22.5518Z" stroke="black" stroke-width="1.27917" stroke-miterlimit="10"/>
<path d="M49.1578 14.0662C53.1947 9.5268 55.1376 4.64994 53.4973 3.17341C51.8571 1.69688 47.2549 4.17981 43.2181 8.71919C39.1812 13.2586 37.2384 18.1354 38.8786 19.612C40.5188 21.0885 45.121 18.6056 49.1578 14.0662Z" stroke="black" stroke-width="1.27917" stroke-miterlimit="10"/>
<path d="M42.2579 15.4481C45.285 10.173 45.8517 4.80048 43.5238 3.44823C41.1958 2.09597 36.8547 5.27606 33.8277 10.5511C30.8006 15.8262 30.2338 21.1988 32.5618 22.551C34.8897 23.9033 39.2308 20.7232 42.2579 15.4481Z" stroke="black" stroke-width="1.27917" stroke-miterlimit="10"/>
<path d="M27.8101 23.3373C31.6184 23.3373 34.7056 18.3994 34.7056 12.3083C34.7056 6.21715 31.6184 1.2793 27.8101 1.2793C24.0018 1.2793 20.9146 6.21715 20.9146 12.3083C20.9146 18.3994 24.0018 23.3373 27.8101 23.3373Z" stroke="black" stroke-width="1.27917" stroke-miterlimit="10"/>
</svg>
