<svg width="26" height="28" viewBox="0 0 26 28" fill="none" xmlns="http://www.w3.org/2000/svg">
<mask id="path-1-outside-1_338_1517" maskUnits="userSpaceOnUse" x="0" y="0" width="26" height="28" fill="black">
<rect fill="white" width="26" height="28"/>
<path fill-rule="evenodd" clip-rule="evenodd" d="M12.6342 1.24091C12.5014 1.01061 12.2069 0.931632 11.9766 1.06452C11.7463 1.1974 11.6674 1.49182 11.8002 1.72213L12.0953 2.23356C11.8736 2.15871 11.6288 2.11721 11.3716 2.11721C10.3691 2.11721 9.55648 2.74742 9.55648 3.52482C9.55648 3.72819 9.61209 3.92149 9.71217 4.09607C9.39218 4.54594 9.20996 5.0637 9.20996 5.61467C9.20996 6.15337 9.38416 6.66034 9.69101 7.10314C9.38753 7.49303 9.1054 7.93288 8.84835 8.41597L6.03511 5.38881C5.57254 4.89107 4.79404 4.86255 4.2963 5.32513C3.79855 5.7877 3.77004 6.56619 4.23261 7.06394L7.45544 10.5318C7.03118 11.0676 6.60804 11.6569 6.19398 12.2919L2.27539 12.1484C1.59634 12.1236 1.0257 12.6539 1.00084 13.333C0.975976 14.012 1.5063 14.5826 2.18535 14.6075L4.78735 14.7028C4.70929 14.8524 4.632 15.0035 4.55555 15.1561C1.92207 20.4128 1.27947 25.4217 3.12025 26.3439C3.95071 26.7599 5.14474 26.2731 6.44709 25.1307C6.33597 25.7612 6.73033 26.3793 7.36105 26.5368C8.02032 26.7013 8.68818 26.3003 8.85276 25.641L9.29636 23.864C10.3338 25.4491 11.6794 26.4059 13.1498 26.4059C14.5986 26.4059 15.9263 25.4769 16.9574 23.9333L17.3837 25.641C17.5483 26.3003 18.2161 26.7013 18.8754 26.5368C19.5029 26.3801 19.8965 25.7675 19.791 25.1403C21.0893 26.2762 22.2792 26.7593 23.1075 26.3444C24.9483 25.4222 24.3057 20.4132 21.6722 15.1566C21.5955 15.0035 21.518 14.8519 21.4396 14.7018L24.0158 14.6075C24.6949 14.5826 25.2252 14.012 25.2003 13.333C25.1755 12.6539 24.6048 12.1236 23.9258 12.1484L20.0328 12.291C19.6148 11.6499 19.1875 11.0555 18.7592 10.5157L21.9674 7.06399C22.43 6.56627 22.4015 5.78778 21.9038 5.32517C21.406 4.86257 20.6276 4.89104 20.165 5.38876L17.4146 8.34786C17.1903 7.93354 16.9473 7.55182 16.688 7.20702C17.0415 6.74036 17.2444 6.196 17.2444 5.61467C17.2444 5.00232 17.0193 4.43099 16.6302 3.94829C16.6845 3.81464 16.7137 3.67238 16.7137 3.52482C16.7137 2.74742 15.9011 2.11721 14.8986 2.11721C14.662 2.11721 14.436 2.15231 14.2288 2.21617L14.5139 1.72226C14.6469 1.492 14.568 1.19755 14.3378 1.06459C14.1075 0.931635 13.813 1.01052 13.6801 1.24078L13.1569 2.14681L12.6342 1.24091Z"/>
</mask>
<path fill-rule="evenodd" clip-rule="evenodd" d="M12.6342 1.24091C12.5014 1.01061 12.2069 0.931632 11.9766 1.06452C11.7463 1.1974 11.6674 1.49182 11.8002 1.72213L12.0953 2.23356C11.8736 2.15871 11.6288 2.11721 11.3716 2.11721C10.3691 2.11721 9.55648 2.74742 9.55648 3.52482C9.55648 3.72819 9.61209 3.92149 9.71217 4.09607C9.39218 4.54594 9.20996 5.0637 9.20996 5.61467C9.20996 6.15337 9.38416 6.66034 9.69101 7.10314C9.38753 7.49303 9.1054 7.93288 8.84835 8.41597L6.03511 5.38881C5.57254 4.89107 4.79404 4.86255 4.2963 5.32513C3.79855 5.7877 3.77004 6.56619 4.23261 7.06394L7.45544 10.5318C7.03118 11.0676 6.60804 11.6569 6.19398 12.2919L2.27539 12.1484C1.59634 12.1236 1.0257 12.6539 1.00084 13.333C0.975976 14.012 1.5063 14.5826 2.18535 14.6075L4.78735 14.7028C4.70929 14.8524 4.632 15.0035 4.55555 15.1561C1.92207 20.4128 1.27947 25.4217 3.12025 26.3439C3.95071 26.7599 5.14474 26.2731 6.44709 25.1307C6.33597 25.7612 6.73033 26.3793 7.36105 26.5368C8.02032 26.7013 8.68818 26.3003 8.85276 25.641L9.29636 23.864C10.3338 25.4491 11.6794 26.4059 13.1498 26.4059C14.5986 26.4059 15.9263 25.4769 16.9574 23.9333L17.3837 25.641C17.5483 26.3003 18.2161 26.7013 18.8754 26.5368C19.5029 26.3801 19.8965 25.7675 19.791 25.1403C21.0893 26.2762 22.2792 26.7593 23.1075 26.3444C24.9483 25.4222 24.3057 20.4132 21.6722 15.1566C21.5955 15.0035 21.518 14.8519 21.4396 14.7018L24.0158 14.6075C24.6949 14.5826 25.2252 14.012 25.2003 13.333C25.1755 12.6539 24.6048 12.1236 23.9258 12.1484L20.0328 12.291C19.6148 11.6499 19.1875 11.0555 18.7592 10.5157L21.9674 7.06399C22.43 6.56627 22.4015 5.78778 21.9038 5.32517C21.406 4.86257 20.6276 4.89104 20.165 5.38876L17.4146 8.34786C17.1903 7.93354 16.9473 7.55182 16.688 7.20702C17.0415 6.74036 17.2444 6.196 17.2444 5.61467C17.2444 5.00232 17.0193 4.43099 16.6302 3.94829C16.6845 3.81464 16.7137 3.67238 16.7137 3.52482C16.7137 2.74742 15.9011 2.11721 14.8986 2.11721C14.662 2.11721 14.436 2.15231 14.2288 2.21617L14.5139 1.72226C14.6469 1.492 14.568 1.19755 14.3378 1.06459C14.1075 0.931635 13.813 1.01052 13.6801 1.24078L13.1569 2.14681L12.6342 1.24091Z" fill="#99C553"/>
<path d="M11.9766 1.06452L12.2265 1.4976L12.2265 1.4976L11.9766 1.06452ZM12.6342 1.24091L13.0673 0.991033L13.0673 0.991032L12.6342 1.24091ZM11.8002 1.72213L11.3672 1.97201L11.3672 1.97201L11.8002 1.72213ZM12.0953 2.23356L11.9354 2.7073C12.1325 2.77383 12.3502 2.71137 12.4821 2.55048C12.6139 2.38958 12.6324 2.16385 12.5284 1.98367L12.0953 2.23356ZM9.71217 4.09607L10.1196 4.38588C10.2327 4.22689 10.243 4.01666 10.1459 3.8474L9.71217 4.09607ZM9.69101 7.10314L10.0856 7.41026C10.2198 7.23775 10.2265 6.99802 10.102 6.81835L9.69101 7.10314ZM8.84835 8.41597L8.4821 8.75635C8.59219 8.87481 8.75277 8.93271 8.91312 8.91176C9.07348 8.89081 9.2138 8.7936 9.28976 8.65084L8.84835 8.41597ZM6.03511 5.38881L5.66885 5.72919L6.03511 5.38881ZM4.2963 5.32513L3.95592 4.95887L4.2963 5.32513ZM4.23261 7.06394L4.59887 6.72356L4.59887 6.72356L4.23261 7.06394ZM7.45544 10.5318L7.84743 10.8422C8.00067 10.6487 7.98974 10.3723 7.82169 10.1915L7.45544 10.5318ZM6.19398 12.2919L6.17568 12.7916C6.35105 12.798 6.51696 12.712 6.61281 12.565L6.19398 12.2919ZM2.27539 12.1484L2.29368 11.6488L2.29368 11.6488L2.27539 12.1484ZM1.00084 13.333L1.5005 13.3512L1.5005 13.3512L1.00084 13.333ZM2.18535 14.6075L2.20364 14.1078L2.20364 14.1078L2.18535 14.6075ZM4.78735 14.7028L5.23063 14.9341C5.31 14.782 5.30583 14.5998 5.2196 14.4515C5.13336 14.3031 4.9771 14.2094 4.80564 14.2031L4.78735 14.7028ZM4.55555 15.1561L4.10851 14.9322L4.10851 14.9322L4.55555 15.1561ZM3.12025 26.3439L3.34421 25.8968L3.34421 25.8968L3.12025 26.3439ZM6.44709 25.1307L6.9395 25.2175C6.97633 25.0085 6.87724 24.7991 6.69231 24.695C6.50738 24.5909 6.2769 24.6149 6.11737 24.7548L6.44709 25.1307ZM7.36105 26.5368L7.48215 26.0516L7.48215 26.0516L7.36105 26.5368ZM8.85276 25.641L8.36764 25.5199L8.36764 25.5199L8.85276 25.641ZM9.29636 23.864L9.71472 23.5902C9.6059 23.4239 9.40895 23.3378 9.21302 23.371C9.0171 23.4041 8.85938 23.5501 8.81125 23.7429L9.29636 23.864ZM16.9574 23.9333L17.4425 23.8122C17.3946 23.6202 17.238 23.4745 17.043 23.4407C16.8481 23.4068 16.6515 23.491 16.5416 23.6555L16.9574 23.9333ZM17.3837 25.641L16.8986 25.7621L16.8986 25.7621L17.3837 25.641ZM18.8754 26.5368L18.9965 27.0219L18.9965 27.0219L18.8754 26.5368ZM19.791 25.1403L20.1202 24.764C19.9612 24.6248 19.7317 24.6007 19.5472 24.7037C19.3627 24.8068 19.2629 25.0148 19.2979 25.2232L19.791 25.1403ZM23.1075 26.3444L22.8835 25.8973L22.8835 25.8973L23.1075 26.3444ZM21.6722 15.1566L22.1192 14.9326L22.1192 14.9326L21.6722 15.1566ZM21.4396 14.7018L21.4213 14.2022C21.2499 14.2084 21.0936 14.3022 21.0074 14.4505C20.9211 14.5988 20.917 14.781 20.9964 14.9331L21.4396 14.7018ZM24.0158 14.6075L23.9975 14.1078L23.9975 14.1078L24.0158 14.6075ZM25.2003 13.333L25.7 13.3147L25.7 13.3147L25.2003 13.333ZM23.9258 12.1484L23.9075 11.6488L23.9075 11.6488L23.9258 12.1484ZM20.0328 12.291L19.614 12.5641C19.7099 12.7111 19.8758 12.7971 20.0511 12.7906L20.0328 12.291ZM18.7592 10.5157L18.3929 10.1753C18.2247 10.3563 18.2139 10.633 18.3675 10.8265L18.7592 10.5157ZM21.9674 7.06399L21.6011 6.7236L21.6011 6.7236L21.9674 7.06399ZM20.165 5.38876L20.5312 5.72916L20.5312 5.72916L20.165 5.38876ZM17.4146 8.34786L16.975 8.58596C17.0517 8.72759 17.1919 8.82359 17.3517 8.84388C17.5115 8.86416 17.6712 8.80623 17.7809 8.68825L17.4146 8.34786ZM16.688 7.20702L16.2895 6.90511C16.1546 7.08313 16.1542 7.329 16.2884 7.5075L16.688 7.20702ZM16.6302 3.94829L16.1669 3.7601C16.0985 3.92844 16.1269 4.12064 16.2409 4.2621L16.6302 3.94829ZM14.2288 2.21617L13.7958 1.96615C13.6929 2.14422 13.7096 2.36707 13.8378 2.52784C13.966 2.68862 14.1795 2.75455 14.376 2.69401L14.2288 2.21617ZM14.5139 1.72226L14.947 1.97228L14.947 1.97228L14.5139 1.72226ZM14.3378 1.06459L14.5878 0.631589L14.5878 0.631589L14.3378 1.06459ZM13.6801 1.24078L13.2471 0.990765L13.2471 0.990766L13.6801 1.24078ZM13.1569 2.14681L12.7239 2.39669C12.8131 2.55144 12.9782 2.64678 13.1569 2.64681C13.3355 2.64684 13.5006 2.55154 13.5899 2.39683L13.1569 2.14681ZM12.2265 1.4976C12.2176 1.50272 12.2063 1.49967 12.2012 1.4908L13.0673 0.991032C12.7964 0.521543 12.1962 0.360545 11.7268 0.631436L12.2265 1.4976ZM12.2333 1.47225C12.2384 1.48113 12.2354 1.49247 12.2265 1.4976L11.7268 0.631435C11.2573 0.902325 11.0963 1.50252 11.3672 1.97201L12.2333 1.47225ZM12.5284 1.98367L12.2333 1.47225L11.3672 1.97201L11.6622 2.48344L12.5284 1.98367ZM11.3716 2.61721C11.5753 2.61721 11.766 2.6501 11.9354 2.7073L12.2552 1.75982C11.9812 1.66732 11.6824 1.61721 11.3716 1.61721V2.61721ZM10.0565 3.52482C10.0565 3.13439 10.5196 2.61721 11.3716 2.61721V1.61721C10.2187 1.61721 9.05648 2.36046 9.05648 3.52482H10.0565ZM10.1459 3.8474C10.086 3.7428 10.0565 3.63458 10.0565 3.52482H9.05648C9.05648 3.82181 9.1382 4.10019 9.27839 4.34474L10.1459 3.8474ZM9.70996 5.61467C9.70996 5.1779 9.85356 4.75993 10.1196 4.38588L9.30472 3.80626C8.93081 4.33196 8.70996 4.94951 8.70996 5.61467H9.70996ZM10.102 6.81835C9.84729 6.45082 9.70996 6.04185 9.70996 5.61467H8.70996C8.70996 6.2649 8.92104 6.86986 9.28005 7.38793L10.102 6.81835ZM9.28976 8.65084C9.53479 8.19032 9.80161 7.77507 10.0856 7.41026L9.29645 6.79602C8.97345 7.21099 8.676 7.67545 8.40695 8.18111L9.28976 8.65084ZM5.66885 5.72919L8.4821 8.75635L9.21461 8.0756L6.40137 5.04844L5.66885 5.72919ZM4.63667 5.69138C4.93214 5.41679 5.39426 5.43372 5.66885 5.72919L6.40137 5.04844C5.75081 4.34841 4.65595 4.30831 3.95592 4.95887L4.63667 5.69138ZM4.59887 6.72356C4.32428 6.4281 4.3412 5.96597 4.63667 5.69138L3.95592 4.95887C3.2559 5.60943 3.21579 6.70429 3.86635 7.40432L4.59887 6.72356ZM7.82169 10.1915L4.59887 6.72356L3.86635 7.40432L7.08918 10.8722L7.82169 10.1915ZM6.61281 12.565C7.01913 11.9419 7.43338 11.3651 7.84743 10.8422L7.06344 10.2214C6.62899 10.7701 6.19695 11.3719 5.77514 12.0188L6.61281 12.565ZM2.25709 12.6481L6.17568 12.7916L6.21227 11.7923L2.29368 11.6488L2.25709 12.6481ZM1.5005 13.3512C1.51526 12.9482 1.854 12.6334 2.25709 12.6481L2.29368 11.6488C1.33868 11.6138 0.536142 12.3597 0.501175 13.3147L1.5005 13.3512ZM2.20364 14.1078C1.80055 14.0931 1.48575 13.7543 1.5005 13.3512L0.501175 13.3147C0.466207 14.2697 1.21205 15.0722 2.16705 15.1072L2.20364 14.1078ZM4.80564 14.2031L2.20364 14.1078L2.16705 15.1072L4.76905 15.2024L4.80564 14.2031ZM5.00259 15.3801C5.07781 15.2299 5.15384 15.0812 5.23063 14.9341L4.34406 14.4715C4.26473 14.6235 4.18619 14.7771 4.10851 14.9322L5.00259 15.3801ZM3.34421 25.8968C3.07029 25.7596 2.82487 25.4397 2.68476 24.8334C2.54557 24.2311 2.53025 23.4191 2.65599 22.439C2.90684 20.4837 3.70417 17.9718 5.00259 15.3801L4.10851 14.9322C2.77345 17.5971 1.93274 20.218 1.66412 22.3118C1.53012 23.3563 1.53469 24.298 1.71044 25.0585C1.88527 25.8151 2.24981 26.4671 2.89629 26.7909L3.34421 25.8968ZM6.11737 24.7548C5.49165 25.3037 4.91916 25.6701 4.43073 25.8537C3.9427 26.0372 3.59172 26.0209 3.34421 25.8968L2.89629 26.7909C3.47924 27.083 4.1405 27.0312 4.7827 26.7897C5.42449 26.5484 6.10018 26.1001 6.7768 25.5066L6.11737 24.7548ZM7.48215 26.0516C7.10795 25.9582 6.87363 25.5913 6.9395 25.2175L5.95468 25.044C5.79832 25.9312 6.35271 26.8004 7.23995 27.0219L7.48215 26.0516ZM8.36764 25.5199C8.26995 25.9113 7.8735 26.1493 7.48215 26.0516L7.23995 27.0219C8.16714 27.2533 9.10641 26.6893 9.33787 25.7621L8.36764 25.5199ZM8.81125 23.7429L8.36764 25.5199L9.33787 25.7621L9.78148 23.9851L8.81125 23.7429ZM13.1498 25.9059C11.9148 25.9059 10.7035 25.1008 9.71472 23.5902L8.87801 24.1378C9.96418 25.7973 11.4441 26.9059 13.1498 26.9059V25.9059ZM16.5416 23.6555C15.5603 25.1246 14.3668 25.9059 13.1498 25.9059V26.9059C14.8304 26.9059 16.2922 25.8292 17.3732 24.211L16.5416 23.6555ZM17.8688 25.5199L17.4425 23.8122L16.4723 24.0544L16.8986 25.7621L17.8688 25.5199ZM18.7543 26.0516C18.3629 26.1493 17.9665 25.9113 17.8688 25.5199L16.8986 25.7621C17.13 26.6893 18.0693 27.2533 18.9965 27.0219L18.7543 26.0516ZM19.2979 25.2232C19.3605 25.595 19.1266 25.9587 18.7543 26.0516L18.9965 27.0219C19.8793 26.8015 20.4325 25.9399 20.2841 25.0574L19.2979 25.2232ZM22.8835 25.8973C22.6367 26.021 22.2869 26.0376 21.8008 25.8556C21.3143 25.6735 20.7439 25.3096 20.1202 24.764L19.4618 25.5166C20.1364 26.1068 20.8102 26.5525 21.4502 26.7921C22.0907 27.032 22.7501 27.0827 23.3314 26.7914L22.8835 25.8973ZM21.2251 15.3805C22.5236 17.9723 23.3209 20.4842 23.5717 22.4395C23.6975 23.4196 23.6822 24.2316 23.543 24.8339C23.4029 25.4402 23.1574 25.7601 22.8835 25.8973L23.3314 26.7914C23.9779 26.4675 24.3425 25.8155 24.5173 25.059C24.693 24.2985 24.6976 23.3568 24.5636 22.3123C24.295 20.2184 23.4543 17.5975 22.1192 14.9326L21.2251 15.3805ZM20.9964 14.9331C21.0734 15.0808 21.1497 15.2299 21.2251 15.3805L22.1192 14.9326C22.0413 14.7771 21.9625 14.623 21.8829 14.4705L20.9964 14.9331ZM23.9975 14.1078L21.4213 14.2022L21.4579 15.2015L24.0341 15.1072L23.9975 14.1078ZM24.7007 13.3513C24.7154 13.7543 24.4006 14.0931 23.9975 14.1078L24.0341 15.1072C24.9891 15.0722 25.735 14.2697 25.7 13.3147L24.7007 13.3513ZM23.9441 12.6481C24.3472 12.6334 24.6859 12.9482 24.7007 13.3513L25.7 13.3147C25.665 12.3597 24.8625 11.6138 23.9075 11.6488L23.9441 12.6481ZM20.0511 12.7906L23.9441 12.6481L23.9075 11.6488L20.0145 11.7913L20.0511 12.7906ZM18.3675 10.8265C18.7855 11.3533 19.2038 11.935 19.614 12.5641L20.4516 12.0179C20.0258 11.3648 19.5895 10.7578 19.1508 10.2049L18.3675 10.8265ZM21.6011 6.7236L18.3929 10.1753L19.1254 10.8561L22.3336 7.40439L21.6011 6.7236ZM21.5634 5.69141C21.8588 5.96602 21.8757 6.42814 21.6011 6.7236L22.3336 7.40439C22.9842 6.7044 22.9442 5.60954 22.2442 4.95894L21.5634 5.69141ZM20.5312 5.72916C20.8058 5.43371 21.2679 5.41681 21.5634 5.69141L22.2442 4.95894C21.5442 4.30834 20.4493 4.34838 19.7987 5.04836L20.5312 5.72916ZM17.7809 8.68825L20.5312 5.72916L19.7987 5.04836L17.0484 8.00746L17.7809 8.68825ZM16.2884 7.5075C16.5314 7.83073 16.7613 8.19133 16.975 8.58596L17.8543 8.10975C17.6193 7.67575 17.3631 7.27291 17.0877 6.90655L16.2884 7.5075ZM16.7444 5.61467C16.7444 6.07517 16.5847 6.51542 16.2895 6.90511L17.0866 7.50894C17.4984 6.96531 17.7444 6.31683 17.7444 5.61467H16.7444ZM16.2409 4.2621C16.5673 4.66699 16.7444 5.12996 16.7444 5.61467H17.7444C17.7444 4.87468 17.4713 4.195 17.0194 3.63449L16.2409 4.2621ZM16.2137 3.52482C16.2137 3.60521 16.198 3.68371 16.1669 3.7601L17.0934 4.13649C17.171 3.94558 17.2137 3.73956 17.2137 3.52482H16.2137ZM14.8986 2.61721C15.7507 2.61721 16.2137 3.13439 16.2137 3.52482H17.2137C17.2137 2.36045 16.0515 1.61721 14.8986 1.61721V2.61721ZM14.376 2.69401C14.535 2.64502 14.7113 2.61721 14.8986 2.61721V1.61721C14.6127 1.61721 14.3371 1.65961 14.0815 1.73834L14.376 2.69401ZM14.0809 1.47224L13.7958 1.96615L14.6618 2.46619L14.947 1.97228L14.0809 1.47224ZM14.0877 1.49759C14.0789 1.49247 14.0758 1.48112 14.0809 1.47224L14.947 1.97228C15.218 1.50287 15.0572 0.902627 14.5878 0.631589L14.0877 1.49759ZM14.1131 1.4908C14.108 1.49968 14.0966 1.50272 14.0877 1.49759L14.5878 0.631589C14.1184 0.360552 13.5181 0.521361 13.2471 0.990765L14.1131 1.4908ZM13.5899 2.39683L14.1131 1.4908L13.2471 0.990766L12.7239 1.89679L13.5899 2.39683ZM12.2012 1.4908L12.7239 2.39669L13.59 1.89693L13.0673 0.991033L12.2012 1.4908Z" fill="white" mask="url(#path-1-outside-1_338_1517)"/>
</svg>
