<svg width="25" height="26" viewBox="0 0 25 26" fill="none" xmlns="http://www.w3.org/2000/svg">
<path fill-rule="evenodd" clip-rule="evenodd" d="M11.6342 0.240915C11.5014 0.0106086 11.2069 -0.0683678 10.9766 0.0645161C10.7463 0.1974 10.6674 0.491824 10.8002 0.72213L11.0953 1.23356C10.8736 1.15871 10.6288 1.11721 10.3716 1.11721C9.36913 1.11721 8.55648 1.74742 8.55648 2.52482C8.55648 2.72819 8.61209 2.92149 8.71217 3.09607C8.39218 3.54594 8.20996 4.0637 8.20996 4.61467C8.20996 5.15337 8.38416 5.66034 8.69101 6.10314C8.38753 6.49303 8.10539 6.93288 7.84835 7.41597L5.03511 4.38881C4.57254 3.89107 3.79404 3.86255 3.2963 4.32513C2.79855 4.7877 2.77004 5.56619 3.23261 6.06394L6.45544 9.53183C6.03118 10.0676 5.60804 10.6569 5.19397 11.2919L1.27539 11.1484C0.596337 11.1236 0.0257032 11.6539 0.000839744 12.333C-0.0240239 13.012 0.506299 13.5826 1.18535 13.6075L3.78735 13.7028C3.70929 13.8524 3.632 14.0035 3.55555 14.1561C0.922071 19.4127 0.279465 24.4217 2.12025 25.3439C2.95071 25.7599 4.14474 25.2731 5.44709 24.1307C5.33597 24.7612 5.73033 25.3793 6.36105 25.5368C7.02032 25.7013 7.68818 25.3003 7.85276 24.641L8.29636 22.864C9.33383 24.4491 10.6794 25.4059 12.1498 25.4059C13.5986 25.4059 14.9263 24.4769 15.9574 22.9333L16.3837 24.641C16.5483 25.3003 17.2161 25.7013 17.8754 25.5368C18.5029 25.3801 18.8965 24.7675 18.791 24.1403C20.0893 25.2762 21.2792 25.7593 22.1075 25.3444C23.9483 24.4222 23.3057 19.4132 20.6722 14.1566C20.5955 14.0035 20.5179 13.8519 20.4396 13.7018L23.0158 13.6075C23.6949 13.5826 24.2252 13.012 24.2003 12.333C24.1755 11.6539 23.6048 11.1236 22.9258 11.1484L19.0328 11.291C18.6148 10.6499 18.1875 10.0555 17.7592 9.51573L20.9674 6.06399C21.43 5.56627 21.4015 4.78778 20.9038 4.32517C20.406 3.86257 19.6276 3.89104 19.1649 4.38876L16.4146 7.34786C16.1903 6.93354 15.9473 6.55182 15.688 6.20702C16.0415 5.74036 16.2444 5.196 16.2444 4.61467C16.2444 4.00232 16.0193 3.431 15.6302 2.94829C15.6845 2.81464 15.7137 2.67238 15.7137 2.52482C15.7137 1.74742 14.9011 1.11721 13.8986 1.11721C13.662 1.11721 13.436 1.15231 13.2288 1.21617L13.5139 0.722261C13.6469 0.491996 13.568 0.197548 13.3378 0.0645916C13.1075 -0.0683646 12.813 0.0105195 12.6801 0.240784L12.1569 1.14681L11.6342 0.240915Z" fill="#99C553"/>
</svg>
