<svg width="38" height="26" viewBox="0 0 38 26" fill="none" xmlns="http://www.w3.org/2000/svg">
<path fill-rule="evenodd" clip-rule="evenodd" d="M18.0153 0.41559C18.2456 0.282706 18.54 0.361683 18.6729 0.591989L19.1956 1.49789L19.7187 0.591858C19.8517 0.361594 20.1461 0.28271 20.3764 0.415666C20.6067 0.548622 20.6855 0.84307 20.5526 1.07333L20.2676 1.56693C20.4746 1.50327 20.7002 1.46828 20.9364 1.46828C21.9389 1.46828 22.7515 2.09849 22.7515 2.8759C22.7515 3.02346 22.7223 3.16571 22.668 3.29936C23.0571 3.78206 23.2822 4.35339 23.2822 4.96574C23.2822 5.54707 23.0793 6.09144 22.7258 6.5581C22.8454 6.71719 22.9616 6.88415 23.0741 7.05855C23.3579 7.08824 23.6486 7.12485 23.9453 7.1684L26.2022 4.73989C26.6647 4.24214 27.4432 4.21363 27.941 4.6762C28.4387 5.13877 28.4672 5.91727 28.0047 6.41501L26.764 7.74999C27.3734 7.90989 27.9951 8.09426 28.6234 8.30316C34.2026 10.158 38.1988 13.2455 37.5493 15.1992C36.9801 16.9113 33.0322 17.1846 28.3099 15.9778L29.935 17.4883C30.4328 17.9509 30.4612 18.7294 29.9986 19.2271C29.536 19.7248 28.7575 19.7533 28.2598 19.2907L25.09 16.3445C25.0176 17.4697 24.8472 18.5414 24.5946 19.5317L25.8089 24.3961C25.9735 25.0554 25.5725 25.7232 24.9132 25.8878C24.2539 26.0524 23.5861 25.6514 23.4215 24.9921L22.9952 23.2843C21.9641 24.828 20.6364 25.757 19.1876 25.757C17.7175 25.757 16.3722 24.8005 15.3348 23.216L14.8914 24.9921C14.7268 25.6514 14.059 26.0524 13.3997 25.8878C12.7404 25.7232 12.3394 25.0554 12.504 24.3961L13.7493 19.4072C13.5077 18.4267 13.3462 17.3686 13.2799 16.2595L10.019 19.2906C9.52128 19.7533 8.74278 19.7248 8.28015 19.2271C7.81753 18.7294 7.84595 17.9509 8.34365 17.4883L10.1311 15.8268C5.16216 17.2034 0.91875 16.9785 0.327007 15.1986C-0.322532 13.2449 3.67371 10.1574 9.25287 8.30254C9.99218 8.05675 10.7222 7.84494 11.4339 7.66696L10.2704 6.41501C9.80783 5.91727 9.83635 5.13877 10.3341 4.6762C10.8318 4.21363 11.6103 4.24214 12.0729 4.73989L14.2838 7.11889C14.6436 7.07202 14.9938 7.03568 15.3327 7.00985C15.4602 6.81494 15.5924 6.62953 15.7288 6.45421C15.422 6.01141 15.2478 5.50445 15.2478 4.96574C15.2478 4.41478 15.43 3.89702 15.75 3.44714C15.6499 3.27257 15.5943 3.07927 15.5943 2.8759C15.5943 2.09849 16.4069 1.46828 17.4094 1.46828C17.667 1.46828 17.9122 1.50992 18.1342 1.58498L17.8389 1.0732C17.706 0.842898 17.785 0.548474 18.0153 0.41559Z" fill="#99C553"/>
</svg>
