<svg width="545" height="183" viewBox="0 0 545 183" fill="none" xmlns="http://www.w3.org/2000/svg">
<path d="M157.921 181H120.346L67.9416 105.564H34.4621V181H2V2H34.4621V77.18H68.734L120.346 2H155.62L94.2794 88.5797L157.921 181Z" fill="#D3F7C0" stroke="#AEDC64" stroke-width="3" stroke-miterlimit="10"/>
<path d="M213.641 27.5714H258.117C268.853 27.5714 277.032 29.7041 282.655 33.9643C288.279 38.2245 291.09 44.5355 291.09 52.8871C291.09 61.2388 288.279 67.5498 282.655 71.81C277.032 76.0702 268.853 78.2029 258.117 78.2029H213.641V27.5714ZM317.162 96.6143C311.897 92.8348 305.583 89.9554 298.217 88.0018C302.092 86.3345 305.64 84.3042 308.855 81.9107C319.504 73.9836 324.831 62.7731 324.831 48.2843C324.831 33.7955 319.207 21.8179 307.96 13.8907C296.714 5.96357 280.948 2 260.673 2H180.668V181H265.53C288.023 181 304.975 176.612 316.396 167.831C327.811 159.049 333.521 146.821 333.521 131.136C333.521 115.45 328.067 104.454 317.162 96.6143ZM290.963 148.908C285.084 153.255 276.265 155.429 264.507 155.429H213.641V102.496H264.507C276.265 102.496 285.084 104.669 290.963 109.016C296.842 113.364 299.781 119.884 299.781 128.579C299.781 137.784 296.842 144.561 290.963 148.908Z" fill="#D3F7C0" stroke="#AEDC64" stroke-width="3" stroke-miterlimit="10"/>
<path d="M411.57 113.491L445.203 35.1559L478.708 113.491H411.57ZM461.828 2H429.11L348.594 181H382.59L400.375 139.574H489.863L507.582 181H542.6L461.828 2Z" fill="#D3F7C0" stroke="#AEDC64" stroke-width="3" stroke-miterlimit="10"/>
</svg>
