<svg width="476" height="160" viewBox="0 0 476 160" fill="none" xmlns="http://www.w3.org/2000/svg">
<path d="M137.886 158H105.14L59.4687 92.2571H30.291V158H2V2H30.291V67.52H60.1592L105.14 2H135.881L82.4223 77.4549L137.886 158Z" fill="#D3F7C0" stroke="#AEDC64" stroke-width="3" stroke-miterlimit="10"/>
<path d="M186.448 24.2857H225.208C234.565 24.2857 241.693 26.1443 246.594 29.8571C251.495 33.5699 253.945 39.0701 253.945 46.3486C253.945 53.6271 251.495 59.1272 246.594 62.84C241.693 66.5528 234.565 68.4114 225.208 68.4114H186.448V24.2857ZM276.667 84.4571C272.078 81.1633 266.576 78.6539 260.156 76.9513C263.533 75.4982 266.625 73.7288 269.427 71.6429C278.707 64.7343 283.35 54.9642 283.35 42.3371C283.35 29.7101 278.449 19.2714 268.647 12.3629C258.846 5.45429 245.106 2 227.436 2H157.711V158H231.669C251.272 158 266.046 154.176 275.999 146.523C285.947 138.87 290.924 128.213 290.924 114.543C290.924 100.873 286.17 91.2899 276.667 84.4571ZM253.834 130.031C248.71 133.82 241.025 135.714 230.778 135.714H186.448V89.5829H230.778C241.025 89.5829 248.71 91.4771 253.834 95.2657C258.957 99.0543 261.519 104.737 261.519 112.314C261.519 120.337 258.957 126.243 253.834 130.031Z" fill="#D3F7C0" stroke="#AEDC64" stroke-width="3" stroke-miterlimit="10"/>
<path d="M358.943 99.1657L388.254 30.8956L417.454 99.1657H358.943ZM402.743 2H374.229L304.059 158H333.686L349.186 121.897H427.176L442.618 158H473.137L402.743 2Z" fill="#D3F7C0" stroke="#AEDC64" stroke-width="3" stroke-miterlimit="10"/>
</svg>
