<svg width="198" height="68" viewBox="0 0 198 68" fill="none" xmlns="http://www.w3.org/2000/svg">
<path d="M57.6653 65.9049H44.2509L25.5419 38.9736H13.5893V65.9049H2V2H13.5893V28.8401H25.8248L44.2509 2H56.844L34.9447 32.9099L57.6653 65.9049Z" fill="#D3F7C0" stroke="#AEDC64" stroke-width="3" stroke-miterlimit="10"/>
<path d="M77.557 11.1293H93.4353C97.268 11.1293 100.188 11.8907 102.196 13.4116C104.203 14.9325 105.207 17.1856 105.207 20.1673C105.207 23.1489 104.203 25.402 102.196 26.9229C100.188 28.4439 97.268 29.2052 93.4353 29.2052H77.557V11.1293ZM114.515 35.7783C112.635 34.429 110.381 33.401 107.751 32.7036C109.135 32.1083 110.401 31.3835 111.549 30.529C115.351 27.6989 117.253 23.6966 117.253 18.524C117.253 13.3513 115.245 9.07519 111.23 6.24511C107.215 3.41504 101.586 2 94.3479 2H65.7852V65.9049H96.0817C104.112 65.9049 110.164 64.3384 114.241 61.2034C118.317 58.0684 120.355 53.7028 120.355 48.1029C120.355 42.503 118.408 38.5774 114.515 35.7783ZM105.162 54.4477C103.063 55.9997 99.9144 56.7757 95.7167 56.7757H77.557V37.8781H95.7167C99.9144 37.8781 103.063 38.654 105.162 40.206C107.26 41.758 108.31 44.086 108.31 47.1899C108.31 50.4765 107.26 52.8957 105.162 54.4477Z" fill="#D3F7C0" stroke="#AEDC64" stroke-width="3" stroke-miterlimit="10"/>
<path d="M148.222 41.8036L160.229 13.837L172.191 41.8036H148.222ZM166.164 2H154.483L125.738 65.9049H137.875L144.225 51.1155H176.173L182.499 65.9049H195.001L166.164 2Z" fill="#D3F7C0" stroke="#AEDC64" stroke-width="3" stroke-miterlimit="10"/>
</svg>
