<svg width="198" height="68" viewBox="0 0 198 68" fill="none" xmlns="http://www.w3.org/2000/svg">
<path d="M57.6653 65.9049H44.2509L25.5419 38.9736H13.5893V65.9049H2V2H13.5893V28.8401H25.8248L44.2509 2H56.844L34.9447 32.9099L57.6653 65.9049Z" fill="#D3F7C0" stroke="#AEDC64" stroke-width="3" stroke-miterlimit="10"/>
<path d="M77.558 11.1293H93.4363C97.269 11.1293 100.189 11.8907 102.197 13.4116C104.204 14.9325 105.208 17.1856 105.208 20.1673C105.208 23.1489 104.204 25.402 102.197 26.9229C100.189 28.4439 97.269 29.2052 93.4363 29.2052H77.558V11.1293ZM114.516 35.7783C112.636 34.429 110.382 33.401 107.752 32.7036C109.136 32.1083 110.402 31.3835 111.55 30.529C115.352 27.6989 117.254 23.6966 117.254 18.524C117.254 13.3513 115.246 9.07519 111.231 6.24511C107.216 3.41504 101.587 2 94.3488 2H65.7861V65.9049H96.0827C104.113 65.9049 110.165 64.3384 114.242 61.2034C118.318 58.0684 120.356 53.7028 120.356 48.1029C120.356 42.503 118.409 38.5774 114.516 35.7783ZM105.163 54.4477C103.064 55.9997 99.9154 56.7757 95.7177 56.7757H77.558V37.8781H95.7177C99.9154 37.8781 103.064 38.654 105.163 40.206C107.261 41.758 108.311 44.086 108.311 47.1899C108.311 50.4765 107.261 52.8957 105.163 54.4477Z" fill="#D3F7C0" stroke="#AEDC64" stroke-width="3" stroke-miterlimit="10"/>
<path d="M148.221 41.8037L160.228 13.837L172.19 41.8037H148.221ZM166.163 2H154.483L125.737 65.9049H137.874L144.224 51.1155H176.172L182.498 65.9049H195L166.163 2Z" fill="#D3F7C0" stroke="#AEDC64" stroke-width="3" stroke-miterlimit="10"/>
</svg>
