<svg width="545" height="183" viewBox="0 0 545 183" fill="none" xmlns="http://www.w3.org/2000/svg">
<path d="M157.921 181H120.346L67.9416 105.564H34.4621V181H2V2H34.4621V77.18H68.734L120.346 2H155.62L94.2794 88.5797L157.921 181Z" fill="#D3F7C0" stroke="#AEDC64" stroke-width="3" stroke-miterlimit="10"/>
<path d="M213.639 27.5714H258.115C268.851 27.5714 277.03 29.7041 282.653 33.9643C288.277 38.2245 291.088 44.5355 291.088 52.8871C291.088 61.2388 288.277 67.5498 282.653 71.81C277.03 76.0702 268.851 78.2029 258.115 78.2029H213.639V27.5714ZM317.16 96.6143C311.895 92.8348 305.581 89.9554 298.215 88.0018C302.09 86.3345 305.638 84.3042 308.853 81.9107C319.502 73.9836 324.829 62.7731 324.829 48.2843C324.829 33.7955 319.205 21.8179 307.959 13.8907C296.712 5.96357 280.946 2 260.671 2H180.666V181H265.528C288.021 181 304.973 176.612 316.394 167.831C327.809 159.049 333.519 146.821 333.519 131.136C333.519 115.45 328.065 104.454 317.16 96.6143ZM290.961 148.908C285.082 153.255 276.263 155.429 264.505 155.429H213.639V102.496H264.505C276.263 102.496 285.082 104.669 290.961 109.016C296.84 113.364 299.779 119.884 299.779 128.579C299.779 137.784 296.84 144.561 290.961 148.908Z" fill="#D3F7C0" stroke="#AEDC64" stroke-width="3" stroke-miterlimit="10"/>
<path d="M411.571 113.491L445.204 35.1559L478.709 113.491H411.571ZM461.828 2H429.111L348.594 181H382.59L400.375 139.574H489.863L507.582 181H542.6L461.828 2Z" fill="#D3F7C0" stroke="#AEDC64" stroke-width="3" stroke-miterlimit="10"/>
</svg>
