<svg width="583" height="195" viewBox="0 0 583 195" fill="none" xmlns="http://www.w3.org/2000/svg">
<path d="M168.84 193.154H128.635L72.5598 112.596H36.7356V193.154H2V2H36.7356V82.2848H73.4077L128.635 2H166.379L100.742 94.4586L168.84 193.154Z" fill="white" stroke="#889FFF" stroke-width="3" stroke-miterlimit="10"/>
<path d="M228.464 29.3077H276.054C287.541 29.3077 296.294 31.5852 302.311 36.1347C308.328 40.6841 311.337 47.4237 311.337 56.3424C311.337 65.2611 308.328 72.0007 302.311 76.5501C296.294 81.0996 287.541 83.3771 276.054 83.3771H228.464V29.3077ZM339.235 103.039C333.6 99.0026 326.845 95.9277 318.962 93.8414C323.109 92.0609 326.905 89.8927 330.346 87.3367C341.74 78.8713 347.44 66.8996 347.44 51.427C347.44 35.9544 341.423 23.1635 329.388 14.6981C317.354 6.2327 300.484 2 278.789 2H193.181V193.154H283.986C308.055 193.154 326.194 188.468 338.414 179.091C350.629 169.713 356.739 156.655 356.739 139.904C356.739 123.154 350.903 111.411 339.235 103.039ZM311.2 158.883C304.909 163.525 295.473 165.846 282.892 165.846H228.464V109.319H282.892C295.473 109.319 304.909 111.641 311.2 116.283C317.491 120.925 320.636 127.889 320.636 137.173C320.636 147.004 317.491 154.241 311.2 158.883Z" fill="white" stroke="#889FFF" stroke-width="3" stroke-miterlimit="10"/>
<path d="M440.261 121.062L476.249 37.4072L512.101 121.062H440.261ZM494.038 2H459.029L372.874 193.154H409.251L428.281 148.916H524.037L542.997 193.154H580.467L494.038 2Z" fill="white" stroke="#889FFF" stroke-width="3" stroke-miterlimit="10"/>
</svg>
