<svg width="349" height="118" viewBox="0 0 349 118" fill="none" xmlns="http://www.w3.org/2000/svg">
<path d="M101.217 115.903H77.3072L43.9606 67.901H22.6566V115.903H2V2H22.6566V49.8393H44.4648L77.3072 2H99.753L60.7201 57.0932L101.217 115.903Z" fill="#D3F7C0" stroke="#AEDC64" stroke-width="3" stroke-miterlimit="10"/>
<path d="M136.673 18.2719H164.975C171.806 18.2719 177.011 19.6289 180.589 22.3398C184.167 25.0507 185.956 29.0666 185.956 34.381C185.956 39.6954 184.167 43.7113 180.589 46.4222C177.011 49.1331 171.806 50.4902 164.975 50.4902H136.673V18.2719ZM202.547 62.2059C199.196 59.8009 195.179 57.9687 190.491 56.7255C192.957 55.6646 195.215 54.3726 197.261 52.8496C204.037 47.8053 207.426 40.6717 207.426 31.4521C207.426 22.2324 203.848 14.6107 196.691 9.56642C189.535 4.52214 179.503 2 166.601 2H115.691V115.903H169.691C184.005 115.903 194.792 113.111 202.059 107.523C209.323 101.935 212.957 94.1541 212.957 84.1729C212.957 74.1918 209.486 67.1948 202.547 62.2059ZM185.875 95.4819C182.134 98.2481 176.523 99.6312 169.041 99.6312H136.673V65.9484H169.041C176.523 65.9484 182.134 67.3315 185.875 70.0978C189.616 72.864 191.487 77.0133 191.487 82.5457C191.487 88.4036 189.616 92.7156 185.875 95.4819Z" fill="#D3F7C0" stroke="#AEDC64" stroke-width="3" stroke-miterlimit="10"/>
<path d="M262.622 72.9453L284.023 23.0981L305.344 72.9453H262.622ZM294.602 2H273.783L222.548 115.903H244.18L255.498 89.5426H312.442L323.717 115.903H346L294.602 2Z" fill="#D3F7C0" stroke="#AEDC64" stroke-width="3" stroke-miterlimit="10"/>
</svg>
