<svg width="476" height="160" viewBox="0 0 476 160" fill="none" xmlns="http://www.w3.org/2000/svg">
<path d="M137.886 158H105.14L59.4687 92.2571H30.291V158H2V2H30.291V67.52H60.1592L105.14 2H135.881L82.4223 77.4549L137.886 158Z" fill="#D3F7C0" stroke="#AEDC64" stroke-width="3" stroke-miterlimit="10"/>
<path d="M186.447 24.2857H225.207C234.564 24.2857 241.692 26.1443 246.593 29.8571C251.494 33.5699 253.944 39.0701 253.944 46.3486C253.944 53.6271 251.494 59.1272 246.593 62.84C241.692 66.5528 234.564 68.4114 225.207 68.4114H186.447V24.2857ZM276.666 84.4571C272.077 81.1633 266.575 78.6539 260.155 76.9513C263.532 75.4982 266.624 73.7288 269.426 71.6429C278.706 64.7343 283.349 54.9642 283.349 42.3371C283.349 29.7101 278.448 19.2714 268.646 12.3629C258.845 5.45429 245.105 2 227.435 2H157.71V158H231.668C251.271 158 266.045 154.176 275.998 146.523C285.946 138.87 290.923 128.213 290.923 114.543C290.923 100.873 286.169 91.2899 276.666 84.4571ZM253.833 130.031C248.709 133.82 241.024 135.714 230.777 135.714H186.447V89.5829H230.777C241.024 89.5829 248.709 91.4771 253.833 95.2657C258.956 99.0543 261.518 104.737 261.518 112.314C261.518 120.337 258.956 126.243 253.833 130.031Z" fill="#D3F7C0" stroke="#AEDC64" stroke-width="3" stroke-miterlimit="10"/>
<path d="M358.942 99.1657L388.254 30.8956L417.453 99.1657H358.942ZM402.742 2H374.228L304.058 158H333.685L349.185 121.897H427.175L442.617 158H473.136L402.742 2Z" fill="#D3F7C0" stroke="#AEDC64" stroke-width="3" stroke-miterlimit="10"/>
</svg>
