<svg width="307" height="104" viewBox="0 0 307 104" fill="none" xmlns="http://www.w3.org/2000/svg">
<path d="M89.1064 102H68.1152L38.8389 59.8571H20.1353V102H2V2H20.1353V44H39.2816L68.1152 2H87.8213L53.5527 50.3685L89.1064 102Z" fill="#D3F7C0" stroke="#AEDC64" stroke-width="3" stroke-miterlimit="10"/>
<path d="M120.235 16.2857H145.082C151.079 16.2857 155.649 17.4771 158.79 19.8571C161.932 22.2371 163.502 25.7629 163.502 30.4286C163.502 35.0943 161.932 38.62 158.79 41C155.649 43.38 151.079 44.5714 145.082 44.5714H120.235V16.2857ZM178.068 54.8571C175.126 52.7457 171.599 51.1371 167.484 50.0457C169.648 49.1143 171.631 47.98 173.427 46.6429C179.376 42.2143 182.352 35.9514 182.352 27.8571C182.352 19.7629 179.21 13.0714 172.927 8.64286C166.644 4.21429 157.836 2 146.51 2H101.814V102H149.223C161.789 102 171.259 99.5486 177.639 94.6429C184.017 89.7371 187.207 82.9057 187.207 74.1429C187.207 65.38 184.16 59.2371 178.068 54.8571ZM163.431 84.0714C160.147 86.5 155.22 87.7143 148.652 87.7143H120.235V58.1429H148.652C155.22 58.1429 160.147 59.3571 163.431 61.7857C166.715 64.2143 168.358 67.8571 168.358 72.7143C168.358 77.8571 166.715 81.6429 163.431 84.0714Z" fill="#D3F7C0" stroke="#AEDC64" stroke-width="3" stroke-miterlimit="10"/>
<path d="M230.809 64.2857L249.599 20.5228L268.317 64.2857H230.809ZM258.886 2H240.608L195.627 102H214.619L224.555 78.8571H274.548L284.447 102H304.01L258.886 2Z" fill="#D3F7C0" stroke="#AEDC64" stroke-width="3" stroke-miterlimit="10"/>
</svg>
