<svg width="57" height="25" viewBox="0 0 57 25" fill="none" xmlns="http://www.w3.org/2000/svg">
<path d="M17.5886 19.6764C19.2289 18.1999 17.286 13.323 13.2492 8.78367C9.2123 4.24428 4.61012 1.76135 2.96989 3.23788C1.32967 4.71441 3.27252 9.59127 7.30937 14.1307C11.3462 18.67 15.9484 21.153 17.5886 19.6764Z" stroke="white" stroke-width="1.27917" stroke-miterlimit="10"/>
<path d="M23.4916 22.5515C25.8195 21.1993 25.2527 15.8268 22.2257 10.5517C19.1986 5.27658 14.8575 2.0965 12.5296 3.44875C10.2016 4.801 10.7684 10.1735 13.7954 15.4486C16.8225 20.7237 21.1636 23.9038 23.4916 22.5515Z" stroke="white" stroke-width="1.27917" stroke-miterlimit="10"/>
<path d="M49.1578 14.0663C53.1947 9.52692 55.1376 4.65006 53.4973 3.17353C51.8571 1.697 47.2549 4.17993 43.2181 8.71932C39.1812 13.2587 37.2384 18.1356 38.8786 19.6121C40.5188 21.0886 45.121 18.6057 49.1578 14.0663Z" stroke="white" stroke-width="1.27917" stroke-miterlimit="10"/>
<path d="M42.2579 15.4483C45.285 10.1732 45.8517 4.80072 43.5238 3.44847C41.1958 2.09622 36.8547 5.27631 33.8277 10.5514C30.8006 15.8265 30.2338 21.199 32.5618 22.5513C34.8897 23.9035 39.2308 20.7234 42.2579 15.4483Z" stroke="white" stroke-width="1.27917" stroke-miterlimit="10"/>
<path d="M27.8101 23.3372C31.6184 23.3372 34.7056 18.3993 34.7056 12.3082C34.7056 6.21702 31.6184 1.27917 27.8101 1.27917C24.0018 1.27917 20.9146 6.21702 20.9146 12.3082C20.9146 18.3993 24.0018 23.3372 27.8101 23.3372Z" stroke="white" stroke-width="1.27917" stroke-miterlimit="10"/>
</svg>
