<svg width="57" height="25" viewBox="0 0 57 25" fill="none" xmlns="http://www.w3.org/2000/svg">
<path d="M17.5886 19.6767C19.2289 18.2002 17.286 13.3233 13.2492 8.78391C9.2123 4.24453 4.61012 1.76159 2.96989 3.23812C1.32967 4.71466 3.27252 9.59152 7.30937 14.1309C11.3462 18.6703 15.9484 21.1532 17.5886 19.6767Z" stroke="black" stroke-width="1.27917" stroke-miterlimit="10"/>
<path d="M23.4935 22.5518C25.8214 21.1995 25.2547 15.827 22.2276 10.5519C19.2005 5.27682 14.8595 2.09674 12.5315 3.44899C10.2036 4.80124 10.7703 10.1738 13.7974 15.4488C16.8245 20.7239 21.1656 23.904 23.4935 22.5518Z" stroke="black" stroke-width="1.27917" stroke-miterlimit="10"/>
<path d="M49.1593 14.0662C53.1962 9.5268 55.139 4.64994 53.4988 3.17341C51.8586 1.69688 47.2564 4.17981 43.2195 8.71919C39.1827 13.2586 37.2398 18.1354 38.88 19.612C40.5203 21.0885 45.1225 18.6056 49.1593 14.0662Z" stroke="black" stroke-width="1.27917" stroke-miterlimit="10"/>
<path d="M42.2589 15.4481C45.2859 10.173 45.8527 4.80048 43.5248 3.44823C41.1968 2.09597 36.8557 5.27606 33.8287 10.5511C30.8016 15.8262 30.2348 21.1988 32.5628 22.551C34.8907 23.9033 39.2318 20.7232 42.2589 15.4481Z" stroke="black" stroke-width="1.27917" stroke-miterlimit="10"/>
<path d="M27.8096 23.3373C31.6179 23.3373 34.7051 18.3994 34.7051 12.3083C34.7051 6.21715 31.6179 1.2793 27.8096 1.2793C24.0013 1.2793 20.9141 6.21715 20.9141 12.3083C20.9141 18.3994 24.0013 23.3373 27.8096 23.3373Z" stroke="black" stroke-width="1.27917" stroke-miterlimit="10"/>
</svg>
