<svg width="57" height="30" viewBox="0 0 57 30" fill="none" xmlns="http://www.w3.org/2000/svg">
<path d="M17.6238 23.1225C19.264 21.3999 17.3212 15.7102 13.2843 10.4142C9.24745 5.11829 4.64527 2.22153 3.00505 3.94415C1.36482 5.66677 3.30767 11.3564 7.34453 16.6524C11.3814 21.9483 15.9836 24.8451 17.6238 23.1225Z" stroke="white" stroke-width="1.27917" stroke-miterlimit="10"/>
<path d="M23.5267 26.4768C25.8546 24.8992 25.2879 18.6312 22.2608 12.4769C19.2338 6.32268 14.8927 2.61258 12.5647 4.19021C10.2368 5.76783 10.8035 12.0358 13.8306 18.19C16.8577 24.3443 21.1988 28.0544 23.5267 26.4768Z" stroke="white" stroke-width="1.27917" stroke-miterlimit="10"/>
<path d="M49.1925 16.5772C53.2294 11.2813 55.1722 5.59159 53.532 3.86897C51.8918 2.14635 47.2896 5.04311 43.2527 10.3391C39.2159 15.635 37.273 21.3247 38.9133 23.0473C40.5535 24.7699 45.1557 21.8732 49.1925 16.5772Z" stroke="white" stroke-width="1.27917" stroke-miterlimit="10"/>
<path d="M42.294 18.1893C45.3211 12.035 45.8879 5.7671 43.5599 4.18948C41.232 2.61185 36.8909 6.32195 33.8638 12.4762C30.8367 18.6305 30.27 24.8984 32.5979 26.4761C34.9259 28.0537 39.267 24.3436 42.294 18.1893Z" stroke="white" stroke-width="1.27917" stroke-miterlimit="10"/>
<path d="M27.8447 27.3934C31.653 27.3934 34.7403 21.6326 34.7403 14.5262C34.7403 7.41988 31.653 1.65906 27.8447 1.65906C24.0364 1.65906 20.9492 7.41988 20.9492 14.5262C20.9492 21.6326 24.0364 27.3934 27.8447 27.3934Z" stroke="white" stroke-width="1.27917" stroke-miterlimit="10"/>
</svg>
