<svg width="349" height="330" viewBox="0 0 349 330" fill="none" xmlns="http://www.w3.org/2000/svg">
<path d="M43.66 319.76C44.07 319.19 44.67 318.9 45.47 318.9C46.64 318.9 47.4 319.58 47.4 320.67C47.4 321.44 47.02 322.05 46.31 322.36C47.15 322.52 47.67 323.22 47.67 324.07C47.67 324.68 47.46 325.17 47.05 325.54C46.64 325.91 46.11 326.1 45.47 326.1C44.54 326.1 43.87 325.81 43.46 325.22C43.39 325.11 43.35 325.01 43.35 324.91C43.35 324.78 43.4 324.68 43.51 324.61C43.59 324.56 43.66 324.54 43.72 324.54C43.86 324.54 43.98 324.61 44.09 324.75C44.4 325.12 44.85 325.3 45.44 325.3C46.29 325.3 46.82 324.77 46.82 324.04C46.82 323.29 46.24 322.82 45.39 322.82H45.22C44.66 322.86 44.66 321.98 45.22 322.02H45.34C45.66 322.02 45.94 321.9 46.19 321.67C46.43 321.44 46.55 321.16 46.55 320.81C46.55 320.12 46.12 319.7 45.41 319.7C44.92 319.7 44.55 319.86 44.29 320.19C44.19 320.31 44.07 320.37 43.93 320.37C43.86 320.37 43.79 320.35 43.72 320.31C43.62 320.24 43.57 320.15 43.57 320.03C43.57 319.94 43.6 319.85 43.66 319.76ZM48.9723 324.57C49.0823 324.57 49.2023 324.63 49.3123 324.76C49.6423 325.12 50.0623 325.3 50.5923 325.3C50.9923 325.3 51.3323 325.16 51.6023 324.88C51.8723 324.6 52.0023 324.25 52.0023 323.82C52.0023 322.97 51.3323 322.34 50.3023 322.34C50.1923 322.34 50.0223 322.35 49.8123 322.38C49.8023 322.38 49.7523 322.39 49.7223 322.39C49.4523 322.39 49.2823 322.21 49.2823 321.94V321.86L49.5923 319.38C49.6223 319.17 49.8123 319 50.0223 319H52.4223C52.9123 318.96 52.9123 319.84 52.4223 319.8H50.3423L50.0823 321.69C50.2523 321.64 50.4423 321.62 50.6423 321.62C51.2923 321.62 51.8223 321.82 52.2323 322.21C52.6423 322.61 52.8523 323.14 52.8523 323.79C52.8523 324.49 52.6323 325.05 52.1923 325.47C51.7523 325.89 51.2123 326.1 50.5723 326.1C49.7723 326.1 49.1323 325.8 48.6623 325.2C48.6123 325.13 48.5823 325.05 48.5823 324.96C48.5823 324.82 48.6323 324.72 48.7423 324.65C48.8323 324.6 48.9023 324.57 48.9723 324.57ZM57.9111 325.12C57.5411 325.76 56.9711 326.08 56.2111 326.08C55.4511 326.08 54.8811 325.76 54.5011 325.11C54.1111 324.47 53.9211 323.6 53.9211 322.5C53.9211 321.4 54.1111 320.53 54.4911 319.88C54.8611 319.24 55.4311 318.92 56.1911 318.92C56.9511 318.92 57.5211 319.24 57.9011 319.88C58.2711 320.53 58.4611 321.4 58.4611 322.5C58.4611 323.61 58.2811 324.48 57.9111 325.12ZM56.1911 319.67C55.2411 319.67 54.7711 320.61 54.7711 322.5C54.7711 324.39 55.2511 325.33 56.2111 325.33C57.2011 325.33 57.6111 324.38 57.6111 322.5C57.6111 320.63 57.1811 319.67 56.1911 319.67ZM63.5556 325.12C63.1856 325.76 62.6156 326.08 61.8556 326.08C61.0956 326.08 60.5256 325.76 60.1456 325.11C59.7556 324.47 59.5656 323.6 59.5656 322.5C59.5656 321.4 59.7556 320.53 60.1356 319.88C60.5056 319.24 61.0756 318.92 61.8356 318.92C62.5956 318.92 63.1656 319.24 63.5456 319.88C63.9156 320.53 64.1056 321.4 64.1056 322.5C64.1056 323.61 63.9256 324.48 63.5556 325.12ZM61.8356 319.67C60.8856 319.67 60.4156 320.61 60.4156 322.5C60.4156 324.39 60.8956 325.33 61.8556 325.33C62.8456 325.33 63.2556 324.38 63.2556 322.5C63.2556 320.63 62.8256 319.67 61.8356 319.67Z" fill="black"/>
<path d="M20 323H29" stroke="#DD0303" stroke-width="11" stroke-linecap="round"/>
<path d="M106.39 324.25H109.24C109.45 324.25 109.62 324.42 109.62 324.62C109.62 324.83 109.45 325 109.24 325H105.69C105.42 325 105.26 324.84 105.26 324.63C105.26 324.5 105.35 324.35 105.53 324.17C105.84 323.87 106.09 323.62 106.3 323.41C106.5 323.2 106.75 322.92 107.06 322.57C107.36 322.22 107.6 321.91 107.79 321.64C108.15 321.09 108.48 320.38 108.48 319.85C108.48 319.2 108.07 318.72 107.34 318.72C106.82 318.72 106.45 318.96 106.23 319.44C106.15 319.61 106.02 319.7 105.83 319.7C105.58 319.7 105.43 319.53 105.43 319.3C105.43 319.27 105.44 319.23 105.45 319.16C105.73 318.35 106.5 317.92 107.41 317.92C108.02 317.92 108.5 318.09 108.83 318.44C109.16 318.79 109.33 319.21 109.33 319.69C109.33 320.6 108.81 321.65 108.04 322.55C107.65 323 107.35 323.34 107.12 323.57C106.89 323.8 106.64 324.03 106.39 324.25ZM114.706 324.12C114.336 324.76 113.766 325.08 113.006 325.08C112.246 325.08 111.676 324.76 111.296 324.11C110.906 323.47 110.716 322.6 110.716 321.5C110.716 320.4 110.906 319.53 111.286 318.88C111.656 318.24 112.226 317.92 112.986 317.92C113.746 317.92 114.316 318.24 114.696 318.88C115.066 319.53 115.256 320.4 115.256 321.5C115.256 322.61 115.076 323.48 114.706 324.12ZM112.986 318.67C112.036 318.67 111.566 319.61 111.566 321.5C111.566 323.39 112.046 324.33 113.006 324.33C113.996 324.33 114.406 323.38 114.406 321.5C114.406 319.63 113.976 318.67 112.986 318.67ZM120.351 324.12C119.981 324.76 119.411 325.08 118.651 325.08C117.891 325.08 117.321 324.76 116.941 324.11C116.551 323.47 116.361 322.6 116.361 321.5C116.361 320.4 116.551 319.53 116.931 318.88C117.301 318.24 117.871 317.92 118.631 317.92C119.391 317.92 119.961 318.24 120.341 318.88C120.711 319.53 120.901 320.4 120.901 321.5C120.901 322.61 120.721 323.48 120.351 324.12ZM118.631 318.67C117.681 318.67 117.211 319.61 117.211 321.5C117.211 323.39 117.691 324.33 118.651 324.33C119.641 324.33 120.051 323.38 120.051 321.5C120.051 319.63 119.621 318.67 118.631 318.67ZM125.995 324.12C125.625 324.76 125.055 325.08 124.295 325.08C123.535 325.08 122.965 324.76 122.585 324.11C122.195 323.47 122.005 322.6 122.005 321.5C122.005 320.4 122.195 319.53 122.575 318.88C122.945 318.24 123.515 317.92 124.275 317.92C125.035 317.92 125.605 318.24 125.985 318.88C126.355 319.53 126.545 320.4 126.545 321.5C126.545 322.61 126.365 323.48 125.995 324.12ZM124.275 318.67C123.325 318.67 122.855 319.61 122.855 321.5C122.855 323.39 123.335 324.33 124.295 324.33C125.285 324.33 125.695 323.38 125.695 321.5C125.695 319.63 125.265 318.67 124.275 318.67Z" fill="black"/>
<path d="M82 323H91" stroke="#FF8E3D" stroke-width="11" stroke-linecap="round"/>
<path d="M169.66 324.69V319.11L168.98 319.64C168.91 319.7 168.83 319.73 168.72 319.73C168.59 319.73 168.48 319.68 168.41 319.59C168.36 319.53 168.33 319.46 168.33 319.37C168.33 319.24 168.39 319.13 168.5 319.04L169.77 318.06C169.86 317.99 169.96 317.96 170.07 317.96C170.28 317.96 170.46 318.13 170.46 318.34V324.69C170.5 325.18 169.62 325.18 169.66 324.69ZM173.052 324.25H175.902C176.112 324.25 176.282 324.42 176.282 324.62C176.282 324.83 176.112 325 175.902 325H172.352C172.082 325 171.922 324.84 171.922 324.63C171.922 324.5 172.012 324.35 172.192 324.17C172.502 323.87 172.752 323.62 172.962 323.41C173.162 323.2 173.412 322.92 173.722 322.57C174.022 322.22 174.262 321.91 174.452 321.64C174.812 321.09 175.142 320.38 175.142 319.85C175.142 319.2 174.732 318.72 174.002 318.72C173.482 318.72 173.112 318.96 172.892 319.44C172.812 319.61 172.682 319.7 172.492 319.7C172.242 319.7 172.092 319.53 172.092 319.3C172.092 319.27 172.102 319.23 172.112 319.16C172.392 318.35 173.162 317.92 174.072 317.92C174.682 317.92 175.162 318.09 175.492 318.44C175.822 318.79 175.992 319.21 175.992 319.69C175.992 320.6 175.472 321.65 174.702 322.55C174.312 323 174.012 323.34 173.782 323.57C173.552 323.8 173.302 324.03 173.052 324.25ZM181.368 324.12C180.998 324.76 180.428 325.08 179.668 325.08C178.908 325.08 178.338 324.76 177.958 324.11C177.568 323.47 177.378 322.6 177.378 321.5C177.378 320.4 177.568 319.53 177.948 318.88C178.318 318.24 178.888 317.92 179.648 317.92C180.408 317.92 180.978 318.24 181.358 318.88C181.728 319.53 181.918 320.4 181.918 321.5C181.918 322.61 181.738 323.48 181.368 324.12ZM179.648 318.67C178.698 318.67 178.228 319.61 178.228 321.5C178.228 323.39 178.708 324.33 179.668 324.33C180.658 324.33 181.068 323.38 181.068 321.5C181.068 319.63 180.638 318.67 179.648 318.67ZM187.013 324.12C186.643 324.76 186.073 325.08 185.313 325.08C184.553 325.08 183.983 324.76 183.603 324.11C183.213 323.47 183.023 322.6 183.023 321.5C183.023 320.4 183.213 319.53 183.593 318.88C183.963 318.24 184.533 317.92 185.293 317.92C186.053 317.92 186.623 318.24 187.003 318.88C187.373 319.53 187.563 320.4 187.563 321.5C187.563 322.61 187.383 323.48 187.013 324.12ZM185.293 318.67C184.343 318.67 183.873 319.61 183.873 321.5C183.873 323.39 184.353 324.33 185.313 324.33C186.303 324.33 186.713 323.38 186.713 321.5C186.713 319.63 186.283 318.67 185.293 318.67Z" fill="black"/>
<path d="M145 323H154" stroke="#ECE64E" stroke-width="11" stroke-linecap="round"/>
<path d="M231.66 324.69V319.11L230.98 319.64C230.91 319.7 230.83 319.73 230.72 319.73C230.59 319.73 230.48 319.68 230.41 319.59C230.36 319.53 230.33 319.46 230.33 319.37C230.33 319.24 230.39 319.13 230.5 319.04L231.77 318.06C231.86 317.99 231.96 317.96 232.07 317.96C232.28 317.96 232.46 318.13 232.46 318.34V324.69C232.5 325.18 231.62 325.18 231.66 324.69ZM238.202 324.12C237.832 324.76 237.262 325.08 236.502 325.08C235.742 325.08 235.172 324.76 234.792 324.11C234.402 323.47 234.212 322.6 234.212 321.5C234.212 320.4 234.402 319.53 234.782 318.88C235.152 318.24 235.722 317.92 236.482 317.92C237.242 317.92 237.812 318.24 238.192 318.88C238.562 319.53 238.752 320.4 238.752 321.5C238.752 322.61 238.572 323.48 238.202 324.12ZM236.482 318.67C235.532 318.67 235.062 319.61 235.062 321.5C235.062 323.39 235.542 324.33 236.502 324.33C237.492 324.33 237.902 323.38 237.902 321.5C237.902 319.63 237.472 318.67 236.482 318.67ZM243.847 324.12C243.477 324.76 242.907 325.08 242.147 325.08C241.387 325.08 240.817 324.76 240.437 324.11C240.047 323.47 239.857 322.6 239.857 321.5C239.857 320.4 240.047 319.53 240.427 318.88C240.797 318.24 241.367 317.92 242.127 317.92C242.887 317.92 243.457 318.24 243.837 318.88C244.207 319.53 244.397 320.4 244.397 321.5C244.397 322.61 244.217 323.48 243.847 324.12ZM242.127 318.67C241.177 318.67 240.707 319.61 240.707 321.5C240.707 323.39 241.187 324.33 242.147 324.33C243.137 324.33 243.547 323.38 243.547 321.5C243.547 319.63 243.117 318.67 242.127 318.67ZM249.491 324.12C249.121 324.76 248.551 325.08 247.791 325.08C247.031 325.08 246.461 324.76 246.081 324.11C245.691 323.47 245.501 322.6 245.501 321.5C245.501 320.4 245.691 319.53 246.071 318.88C246.441 318.24 247.011 317.92 247.771 317.92C248.531 317.92 249.101 318.24 249.481 318.88C249.851 319.53 250.041 320.4 250.041 321.5C250.041 322.61 249.861 323.48 249.491 324.12ZM247.771 318.67C246.821 318.67 246.351 319.61 246.351 321.5C246.351 323.39 246.831 324.33 247.791 324.33C248.781 324.33 249.191 323.38 249.191 321.5C249.191 319.63 248.761 318.67 247.771 318.67Z" fill="black"/>
<path d="M207 323H216" stroke="#9CD96C" stroke-width="11" stroke-linecap="round"/>
<path d="M293.85 321H294.11C294.41 321 294.67 320.89 294.9 320.66C295.12 320.43 295.23 320.16 295.23 319.85C295.23 319.14 294.67 318.7 293.96 318.7C293.25 318.7 292.72 319.17 292.72 319.85C292.72 320.16 292.83 320.43 293.06 320.66C293.29 320.89 293.55 321 293.85 321ZM294.1 321.8H293.88C293.5 321.8 293.18 321.92 292.91 322.15C292.64 322.38 292.5 322.68 292.5 323.04C292.5 323.77 293.12 324.3 293.97 324.3C294.86 324.3 295.45 323.8 295.45 323.04C295.44 322.28 294.86 321.8 294.1 321.8ZM291.87 319.73C291.87 319.19 292.07 318.75 292.48 318.41C292.88 318.07 293.38 317.9 293.97 317.9C294.56 317.9 295.06 318.07 295.47 318.41C295.88 318.75 296.08 319.19 296.08 319.73C296.08 320.42 295.64 321.11 294.93 321.39C295.72 321.55 296.3 322.22 296.3 323.13C296.3 323.74 296.08 324.22 295.63 324.57C295.18 324.92 294.63 325.1 293.98 325.1C293.33 325.1 292.78 324.93 292.33 324.58C291.88 324.23 291.65 323.77 291.65 323.19C291.65 322.34 292.18 321.64 292.97 321.4C292.34 321.17 291.87 320.49 291.87 319.73ZM301.487 324.12C301.117 324.76 300.547 325.08 299.787 325.08C299.027 325.08 298.457 324.76 298.077 324.11C297.687 323.47 297.497 322.6 297.497 321.5C297.497 320.4 297.687 319.53 298.067 318.88C298.437 318.24 299.007 317.92 299.767 317.92C300.527 317.92 301.097 318.24 301.477 318.88C301.847 319.53 302.037 320.4 302.037 321.5C302.037 322.61 301.857 323.48 301.487 324.12ZM299.767 318.67C298.817 318.67 298.347 319.61 298.347 321.5C298.347 323.39 298.827 324.33 299.787 324.33C300.777 324.33 301.187 323.38 301.187 321.5C301.187 319.63 300.757 318.67 299.767 318.67ZM307.132 324.12C306.762 324.76 306.192 325.08 305.432 325.08C304.672 325.08 304.102 324.76 303.722 324.11C303.332 323.47 303.142 322.6 303.142 321.5C303.142 320.4 303.332 319.53 303.712 318.88C304.082 318.24 304.652 317.92 305.412 317.92C306.172 317.92 306.742 318.24 307.122 318.88C307.492 319.53 307.682 320.4 307.682 321.5C307.682 322.61 307.502 323.48 307.132 324.12ZM305.412 318.67C304.462 318.67 303.992 319.61 303.992 321.5C303.992 323.39 304.472 324.33 305.432 324.33C306.422 324.33 306.832 323.38 306.832 321.5C306.832 319.63 306.402 318.67 305.412 318.67Z" fill="black"/>
<path d="M268 323H277" stroke="#8DE1DC" stroke-width="11" stroke-linecap="round"/>
<rect x="330.25" y="292.25" width="329.5" height="252.5" rx="31.25" transform="rotate(-180 330.25 292.25)" stroke="black" stroke-width="1.5"/>
<path d="M345.36 67.7477L345.36 63.207L344.807 63.6383C344.75 63.6871 344.685 63.7115 344.595 63.7115C344.49 63.7115 344.4 63.6708 344.343 63.5976C344.302 63.5488 344.278 63.4918 344.278 63.4186C344.278 63.3128 344.327 63.2233 344.416 63.15L345.45 62.3525C345.523 62.2956 345.604 62.2712 345.694 62.2712C345.865 62.2712 346.011 62.4095 346.011 62.5804L346.011 67.7477C346.044 68.1465 345.328 68.1465 345.36 67.7477Z" fill="black"/>
<path d="M342.643 258.748L342.643 254.207L342.09 254.638C342.033 254.687 341.968 254.712 341.878 254.712C341.772 254.712 341.683 254.671 341.626 254.598C341.585 254.549 341.561 254.492 341.561 254.419C341.561 254.313 341.61 254.223 341.699 254.15L342.733 253.353C342.806 253.296 342.887 253.271 342.977 253.271C343.148 253.271 343.294 253.41 343.294 253.58L343.294 258.748C343.327 259.146 342.611 259.146 342.643 258.748ZM348.121 257.576L347.674 257.576L347.674 258.674C347.69 259.098 347.007 259.098 347.023 258.674L347.023 257.576L344.736 257.576C344.549 257.576 344.386 257.429 344.386 257.242C344.386 257.169 344.411 257.088 344.46 257.014L346.64 253.491C346.722 253.353 346.828 253.287 346.958 253.287C347.129 253.287 347.259 253.426 347.259 253.589C347.259 253.662 347.243 253.727 347.202 253.784L345.249 256.925L347.023 256.925L347.023 255.664C347.007 255.24 347.69 255.24 347.674 255.664L347.674 256.925L348.121 256.925C348.309 256.925 348.463 257.08 348.463 257.25C348.463 257.421 348.309 257.576 348.121 257.576Z" fill="black"/>
<path d="M342.695 245.748L342.695 241.207L342.141 241.638C342.084 241.687 342.019 241.712 341.93 241.712C341.824 241.712 341.735 241.671 341.678 241.598C341.637 241.549 341.613 241.492 341.613 241.419C341.613 241.313 341.661 241.223 341.751 241.15L342.784 240.353C342.858 240.296 342.939 240.271 343.028 240.271C343.199 240.271 343.346 240.41 343.346 240.58L343.346 245.748C343.378 246.146 342.662 246.146 342.695 245.748ZM344.861 240.922C345.195 240.458 345.683 240.222 346.334 240.222C347.286 240.222 347.905 240.776 347.905 241.663C347.905 242.289 347.595 242.786 347.018 243.038C347.701 243.168 348.124 243.738 348.124 244.429C348.124 244.926 347.953 245.325 347.62 245.626C347.286 245.927 346.855 246.081 346.334 246.081C345.577 246.081 345.032 245.845 344.698 245.365C344.641 245.276 344.609 245.194 344.609 245.113C344.609 245.007 344.65 244.926 344.739 244.869C344.804 244.828 344.861 244.812 344.91 244.812C345.024 244.812 345.122 244.869 345.211 244.983C345.463 245.284 345.829 245.43 346.31 245.43C347.001 245.43 347.433 244.999 347.433 244.405C347.433 243.795 346.961 243.412 346.269 243.412L346.131 243.412C345.675 243.445 345.675 242.729 346.131 242.761L346.228 242.761C346.489 242.761 346.716 242.664 346.92 242.476C347.115 242.289 347.213 242.061 347.213 241.777C347.213 241.215 346.863 240.873 346.285 240.873C345.886 240.873 345.585 241.004 345.374 241.272C345.292 241.37 345.195 241.419 345.081 241.419C345.024 241.419 344.967 241.402 344.91 241.37C344.829 241.313 344.788 241.24 344.788 241.142C344.788 241.069 344.812 240.995 344.861 240.922Z" fill="black"/>
<path d="M342.758 232.748L342.758 228.207L342.205 228.638C342.148 228.687 342.083 228.712 341.993 228.712C341.888 228.712 341.798 228.671 341.741 228.598C341.701 228.549 341.676 228.492 341.676 228.419C341.676 228.313 341.725 228.223 341.814 228.15L342.848 227.353C342.921 227.296 343.003 227.271 343.092 227.271C343.263 227.271 343.409 227.41 343.409 227.58L343.409 232.748C343.442 233.146 342.726 233.146 342.758 232.748ZM345.519 232.39L347.838 232.39C348.009 232.39 348.147 232.528 348.147 232.691C348.147 232.862 348.009 233 347.838 233L344.949 233C344.729 233 344.599 232.87 344.599 232.699C344.599 232.593 344.672 232.471 344.819 232.325C345.071 232.08 345.275 231.877 345.445 231.706C345.608 231.535 345.812 231.307 346.064 231.023C346.308 230.738 346.503 230.486 346.658 230.266C346.951 229.818 347.219 229.24 347.219 228.809C347.219 228.28 346.886 227.89 346.292 227.89C345.869 227.89 345.568 228.085 345.389 228.476C345.323 228.614 345.218 228.687 345.063 228.687C344.86 228.687 344.738 228.549 344.738 228.362C344.738 228.337 344.746 228.305 344.754 228.248C344.982 227.589 345.608 227.239 346.349 227.239C346.845 227.239 347.236 227.377 347.504 227.662C347.773 227.947 347.911 228.288 347.911 228.679C347.911 229.419 347.488 230.274 346.861 231.006C346.544 231.372 346.3 231.649 346.113 231.836C345.926 232.023 345.722 232.211 345.519 232.39Z" fill="black"/>
<path d="M343.37 219.748L343.37 215.207L342.817 215.638C342.76 215.687 342.695 215.712 342.605 215.712C342.5 215.712 342.41 215.671 342.353 215.598C342.312 215.549 342.288 215.492 342.288 215.419C342.288 215.313 342.337 215.223 342.426 215.15L343.46 214.353C343.533 214.296 343.614 214.271 343.704 214.271C343.875 214.271 344.021 214.41 344.021 214.58L344.021 219.748C344.054 220.146 343.338 220.146 343.37 219.748ZM346.35 219.748L346.35 215.207L345.797 215.638C345.74 215.687 345.675 215.712 345.585 215.712C345.48 215.712 345.39 215.671 345.333 215.598C345.292 215.549 345.268 215.492 345.268 215.419C345.268 215.313 345.317 215.223 345.406 215.15L346.44 214.353C346.513 214.296 346.594 214.271 346.684 214.271C346.855 214.271 347.001 214.41 347.001 214.58L347.001 219.748C347.034 220.146 346.318 220.146 346.35 219.748Z" fill="black"/>
<path d="M342.564 206.748L342.564 202.207L342.01 202.638C341.953 202.687 341.888 202.712 341.799 202.712C341.693 202.712 341.603 202.671 341.546 202.598C341.506 202.549 341.481 202.492 341.481 202.419C341.481 202.313 341.53 202.223 341.62 202.15L342.653 201.353C342.726 201.296 342.808 201.271 342.897 201.271C343.068 201.271 343.215 201.41 343.215 201.58L343.215 206.748C343.247 207.146 342.531 207.146 342.564 206.748ZM347.887 206.284C347.586 206.805 347.122 207.065 346.504 207.065C345.886 207.065 345.422 206.805 345.112 206.276C344.795 205.755 344.64 205.047 344.64 204.152C344.64 203.257 344.795 202.549 345.104 202.02C345.405 201.499 345.869 201.239 346.488 201.239C347.106 201.239 347.57 201.499 347.879 202.02C348.18 202.549 348.335 203.257 348.335 204.152C348.335 205.055 348.188 205.763 347.887 206.284ZM346.488 201.849C345.715 201.849 345.332 202.614 345.332 204.152C345.332 205.69 345.723 206.455 346.504 206.455C347.31 206.455 347.643 205.682 347.643 204.152C347.643 202.63 347.293 201.849 346.488 201.849Z" fill="black"/>
<path d="M344.593 193.487C345.708 193.162 346.408 192.34 346.57 191.103C346.318 191.575 345.887 191.811 345.285 191.811C344.788 191.811 344.381 191.64 344.064 191.306C343.747 190.973 343.584 190.558 343.584 190.061C343.584 189.524 343.771 189.085 344.137 188.735C344.504 188.393 344.927 188.222 345.399 188.222C346.009 188.222 346.489 188.418 346.831 188.816C347.165 189.215 347.335 189.736 347.335 190.363C347.335 191.339 347.091 192.153 346.603 192.804C346.115 193.463 345.496 193.878 344.74 194.049C344.715 194.057 344.691 194.057 344.65 194.057C344.487 194.057 344.39 193.984 344.365 193.845C344.357 193.829 344.357 193.805 344.357 193.78C344.357 193.626 344.438 193.528 344.593 193.487ZM345.448 191.201C346.066 191.201 346.489 190.818 346.644 190.363C346.644 189.948 346.538 189.589 346.326 189.305C346.115 189.02 345.806 188.873 345.407 188.873C345.098 188.873 344.829 188.987 344.609 189.207C344.39 189.435 344.276 189.703 344.276 190.013C344.276 190.672 344.723 191.201 345.448 191.201Z" fill="black"/>
<path d="M345.399 177.745L345.61 177.745C345.855 177.745 346.066 177.655 346.253 177.468C346.432 177.281 346.522 177.061 346.522 176.809C346.522 176.231 346.066 175.873 345.488 175.873C344.911 175.873 344.479 176.256 344.479 176.809C344.479 177.061 344.569 177.281 344.756 177.468C344.943 177.655 345.155 177.745 345.399 177.745ZM345.602 178.396L345.423 178.396C345.114 178.396 344.854 178.494 344.634 178.681C344.414 178.868 344.3 179.112 344.3 179.405C344.3 179.999 344.805 180.43 345.497 180.43C346.221 180.43 346.701 180.023 346.701 179.405C346.693 178.787 346.221 178.396 345.602 178.396ZM343.788 176.712C343.788 176.272 343.95 175.914 344.284 175.637C344.61 175.361 345.016 175.222 345.497 175.222C345.977 175.222 346.384 175.361 346.717 175.637C347.051 175.914 347.214 176.272 347.214 176.712C347.214 177.273 346.856 177.834 346.278 178.062C346.921 178.193 347.393 178.738 347.393 179.478C347.393 179.975 347.214 180.365 346.847 180.65C346.481 180.935 346.034 181.081 345.505 181.081C344.976 181.081 344.528 180.943 344.162 180.658C343.796 180.373 343.609 179.999 343.609 179.527C343.609 178.835 344.04 178.266 344.683 178.07C344.17 177.883 343.788 177.33 343.788 176.712Z" fill="black"/>
<path d="M346.682 162.8L344.664 167.854C344.607 167.992 344.509 168.057 344.355 168.057C344.151 168.057 344.021 167.919 344.021 167.748C344.021 167.707 344.029 167.658 344.046 167.609L345.917 162.955L343.63 162.955C343.443 162.955 343.289 162.8 343.289 162.629C343.289 162.458 343.443 162.304 343.63 162.304L346.365 162.304C346.552 162.304 346.706 162.458 346.706 162.646C346.706 162.711 346.698 162.759 346.682 162.8Z" fill="black"/>
<path d="M346.327 127.849C345.383 128.215 344.618 129.053 344.399 130.25C344.667 129.745 345.115 129.493 345.741 129.493C346.213 129.493 346.604 129.655 346.913 129.981C347.214 130.306 347.369 130.73 347.369 131.242C347.369 131.779 347.19 132.219 346.84 132.561C346.49 132.91 346.075 133.081 345.611 133.081C345.001 133.081 344.512 132.878 344.163 132.471C343.813 132.072 343.634 131.576 343.634 130.982C343.634 130.079 343.886 129.297 344.39 128.622C344.887 127.947 345.456 127.507 346.099 127.296C346.173 127.271 346.238 127.263 346.278 127.263C346.409 127.263 346.498 127.32 346.547 127.442C346.563 127.483 346.571 127.515 346.571 127.556C346.571 127.694 346.49 127.792 346.327 127.849ZM345.522 130.103C344.911 130.103 344.48 130.518 344.325 130.982C344.325 131.804 344.789 132.43 345.603 132.43C345.912 132.43 346.173 132.316 346.376 132.089C346.579 131.869 346.677 131.6 346.677 131.291C346.677 130.599 346.262 130.103 345.522 130.103Z" fill="black"/>
<path d="M343.974 118.836C344.064 118.836 344.161 118.885 344.251 118.991C344.519 119.284 344.861 119.43 345.292 119.43C345.618 119.43 345.895 119.316 346.114 119.089C346.334 118.861 346.44 118.576 346.44 118.226C346.44 117.534 345.895 117.022 345.056 117.022C344.967 117.022 344.829 117.03 344.658 117.054C344.65 117.054 344.609 117.062 344.585 117.062C344.365 117.062 344.226 116.916 344.226 116.696L344.226 116.631L344.479 114.613C344.503 114.442 344.658 114.304 344.829 114.304L346.782 114.304C347.18 114.271 347.18 114.987 346.782 114.955L345.089 114.955L344.877 116.493C345.016 116.452 345.17 116.436 345.333 116.436C345.862 116.436 346.293 116.599 346.627 116.916C346.961 117.241 347.132 117.673 347.132 118.202C347.132 118.771 346.953 119.227 346.594 119.569C346.236 119.91 345.797 120.081 345.276 120.081C344.625 120.081 344.104 119.837 343.722 119.349C343.681 119.292 343.657 119.227 343.657 119.154C343.657 119.04 343.698 118.958 343.787 118.901C343.86 118.861 343.917 118.836 343.974 118.836Z" fill="black"/>
<path d="M347.131 105.576L346.684 105.576L346.684 106.674C346.7 107.098 346.017 107.098 346.033 106.674L346.033 105.576L343.746 105.576C343.559 105.576 343.396 105.429 343.396 105.242C343.396 105.169 343.421 105.088 343.47 105.014L345.65 101.491C345.732 101.353 345.838 101.287 345.968 101.287C346.139 101.287 346.269 101.426 346.269 101.589C346.269 101.662 346.253 101.727 346.212 101.784L344.259 104.925L346.033 104.925L346.033 103.664C346.017 103.24 346.7 103.24 346.684 103.664L346.684 104.925L347.131 104.925C347.319 104.925 347.473 105.08 347.473 105.25C347.473 105.421 347.319 105.576 347.131 105.576Z" fill="black"/>
<path d="M343.871 88.9222C344.205 88.4583 344.693 88.2223 345.344 88.2223C346.296 88.2223 346.915 88.7757 346.915 89.6627C346.915 90.2893 346.605 90.7857 346.028 91.0379C346.711 91.1681 347.134 91.7378 347.134 92.4295C347.134 92.9258 346.963 93.3246 346.63 93.6257C346.296 93.9268 345.865 94.0814 345.344 94.0814C344.587 94.0814 344.042 93.8454 343.708 93.3653C343.651 93.2758 343.619 93.1944 343.619 93.113C343.619 93.0072 343.66 92.9258 343.749 92.8689C343.814 92.8282 343.871 92.8119 343.92 92.8119C344.034 92.8119 344.131 92.8689 344.221 92.9828C344.473 93.2839 344.839 93.4304 345.32 93.4304C346.011 93.4304 346.443 92.9991 346.443 92.405C346.443 91.7947 345.971 91.4123 345.279 91.4123L345.141 91.4123C344.685 91.4448 344.685 90.7287 345.141 90.7613L345.238 90.7613C345.499 90.7613 345.726 90.6636 345.93 90.4764C346.125 90.2893 346.223 90.0614 346.223 89.7766C346.223 89.2151 345.873 88.8734 345.295 88.8734C344.896 88.8734 344.595 89.0036 344.384 89.2721C344.302 89.3697 344.205 89.4186 344.091 89.4186C344.034 89.4186 343.977 89.4023 343.92 89.3697C343.839 89.3128 343.798 89.2395 343.798 89.1419C343.798 89.0687 343.822 88.9954 343.871 88.9222Z" fill="black"/>
<path d="M344.529 80.3897L346.848 80.3897C347.019 80.3897 347.157 80.528 347.157 80.6908C347.157 80.8617 347.019 81 346.848 81L343.959 81C343.739 81 343.609 80.8698 343.609 80.6989C343.609 80.5931 343.682 80.4711 343.829 80.3246C344.081 80.0805 344.285 79.877 344.455 79.7061C344.618 79.5352 344.822 79.3074 345.074 79.0226C345.318 78.7378 345.513 78.4855 345.668 78.2658C345.961 77.8182 346.229 77.2405 346.229 76.8092C346.229 76.2802 345.896 75.8896 345.302 75.8896C344.879 75.8896 344.578 76.0849 344.398 76.4755C344.333 76.6139 344.228 76.6871 344.073 76.6871C343.87 76.6871 343.747 76.5488 343.747 76.3616C343.747 76.3372 343.756 76.3046 343.764 76.2477C343.992 75.5885 344.618 75.2386 345.359 75.2386C345.855 75.2386 346.246 75.377 346.514 75.6618C346.783 75.9466 346.921 76.2884 346.921 76.679C346.921 77.4195 346.498 78.2739 345.871 79.0063C345.554 79.3725 345.31 79.6492 345.123 79.8363C344.936 80.0235 344.732 80.2107 344.529 80.3897Z" fill="black"/>
<path d="M342.806 271.748L342.806 267.207L342.253 267.638C342.196 267.687 342.131 267.712 342.041 267.712C341.935 267.712 341.846 267.671 341.789 267.598C341.748 267.549 341.724 267.492 341.724 267.419C341.724 267.313 341.773 267.223 341.862 267.15L342.896 266.353C342.969 266.296 343.05 266.271 343.14 266.271C343.311 266.271 343.457 266.41 343.457 266.58L343.457 271.748C343.49 272.146 342.774 272.146 342.806 271.748ZM344.964 270.836C345.054 270.836 345.151 270.885 345.241 270.991C345.509 271.284 345.851 271.43 346.283 271.43C346.608 271.43 346.885 271.316 347.104 271.089C347.324 270.861 347.43 270.576 347.43 270.226C347.43 269.534 346.885 269.022 346.047 269.022C345.957 269.022 345.819 269.03 345.648 269.054C345.64 269.054 345.599 269.062 345.575 269.062C345.355 269.062 345.216 268.916 345.216 268.696L345.216 268.631L345.469 266.613C345.493 266.442 345.648 266.304 345.819 266.304L347.772 266.304C348.17 266.271 348.17 266.987 347.772 266.955L346.079 266.955L345.867 268.493C346.006 268.452 346.16 268.436 346.323 268.436C346.852 268.436 347.283 268.599 347.617 268.916C347.951 269.241 348.122 269.673 348.122 270.202C348.122 270.771 347.943 271.227 347.585 271.569C347.226 271.91 346.787 272.081 346.266 272.081C345.615 272.081 345.094 271.837 344.712 271.349C344.671 271.292 344.647 271.227 344.647 271.154C344.647 271.04 344.688 270.958 344.777 270.901C344.85 270.861 344.907 270.836 344.964 270.836Z" fill="black"/>
<circle cx="286.488" cy="254.896" r="4.44036" transform="rotate(-180 286.488 254.896)" fill="#8DE1DC"/>
<circle cx="286.488" cy="267.478" r="4.44036" transform="rotate(-180 286.488 267.478)" fill="#8DE1DC"/>
<circle cx="286.488" cy="242.315" r="4.44036" transform="rotate(-180 286.488 242.315)" fill="#8DE1DC"/>
<circle cx="299.071" cy="242.315" r="4.44036" transform="rotate(-180 299.071 242.315)" fill="#8DE1DC"/>
<circle cx="311.653" cy="242.315" r="4.44036" transform="rotate(-180 311.653 242.315)" fill="#8DE1DC"/>
<circle cx="211.004" cy="254.896" r="4.44036" transform="rotate(-180 211.004 254.896)" fill="#8DE1DC"/>
<circle cx="211.004" cy="267.478" r="4.44036" transform="rotate(-180 211.004 267.478)" fill="#8DE1DC"/>
<circle cx="273.909" cy="254.896" r="4.44036" transform="rotate(-180 273.909 254.896)" fill="#8DE1DC"/>
<circle cx="299.071" cy="254.896" r="4.44036" transform="rotate(-180 299.071 254.896)" fill="#8DE1DC"/>
<circle cx="273.909" cy="267.478" r="4.44036" transform="rotate(-180 273.909 267.478)" fill="#8DE1DC"/>
<circle cx="273.909" cy="242.315" r="4.44036" transform="rotate(-180 273.909 242.315)" fill="#8DE1DC"/>
<circle cx="198.421" cy="254.896" r="4.44036" transform="rotate(-180 198.421 254.896)" fill="#8DE1DC"/>
<circle cx="198.421" cy="267.478" r="4.44036" transform="rotate(-180 198.421 267.478)" fill="#8DE1DC"/>
<circle cx="261.331" cy="254.896" r="4.44036" transform="rotate(-180 261.331 254.896)" fill="#8DE1DC"/>
<circle cx="261.331" cy="267.478" r="4.44036" transform="rotate(-180 261.331 267.478)" fill="#8DE1DC"/>
<circle cx="261.331" cy="242.315" r="4.44036" transform="rotate(-180 261.331 242.315)" fill="#8DE1DC"/>
<circle cx="185.843" cy="254.896" r="4.44036" transform="rotate(-180 185.843 254.896)" fill="#8DE1DC"/>
<circle cx="185.843" cy="267.478" r="4.44036" transform="rotate(-180 185.843 267.478)" fill="#8DE1DC"/>
<circle cx="248.748" cy="254.896" r="4.44036" transform="rotate(-180 248.748 254.896)" fill="#8DE1DC"/>
<circle cx="248.748" cy="267.478" r="4.44036" transform="rotate(-180 248.748 267.478)" fill="#8DE1DC"/>
<circle cx="248.748" cy="242.315" r="4.44036" transform="rotate(-180 248.748 242.315)" fill="#8DE1DC"/>
<circle cx="236.165" cy="254.896" r="4.44036" transform="rotate(-180 236.165 254.896)" fill="#8DE1DC"/>
<circle cx="236.165" cy="267.478" r="4.44036" transform="rotate(-180 236.165 267.478)" fill="#8DE1DC"/>
<circle cx="236.165" cy="242.315" r="4.44036" transform="rotate(-180 236.165 242.315)" fill="#8DE1DC"/>
<circle cx="223.586" cy="254.896" r="4.44036" transform="rotate(-180 223.586 254.896)" fill="#8DE1DC"/>
<circle cx="223.586" cy="267.478" r="4.44036" transform="rotate(-180 223.586 267.478)" fill="#8DE1DC"/>
<circle cx="223.586" cy="242.315" r="4.44036" transform="rotate(-180 223.586 242.315)" fill="#8DE1DC"/>
<circle cx="286.492" cy="204.572" r="4.44036" transform="rotate(-180 286.492 204.572)" fill="#9CD96C"/>
<circle cx="286.492" cy="217.154" r="4.44036" transform="rotate(-180 286.492 217.154)" fill="#9CD96C"/>
<circle cx="299.071" cy="191.991" r="4.44036" transform="rotate(-180 299.071 191.991)" fill="#9CD96C"/>
<circle cx="299.071" cy="217.154" r="4.44036" transform="rotate(-180 299.071 217.154)" fill="#9CD96C"/>
<circle cx="311.653" cy="191.991" r="4.44036" transform="rotate(-180 311.653 191.991)" fill="#9CD96C"/>
<circle cx="211.004" cy="217.154" r="4.44036" transform="rotate(-180 211.004 217.154)" fill="#9CD96C"/>
<circle cx="211.004" cy="229.734" r="4.44036" transform="rotate(-180 211.004 229.734)" fill="#9CD96C"/>
<circle cx="273.909" cy="217.154" r="4.44036" transform="rotate(-180 273.909 217.154)" fill="#9CD96C"/>
<circle cx="273.909" cy="229.734" r="4.44036" transform="rotate(-180 273.909 229.734)" fill="#9CD96C"/>
<circle cx="198.421" cy="229.734" r="4.44036" transform="rotate(-180 198.421 229.734)" fill="#9CD96C"/>
<circle cx="261.331" cy="229.734" r="4.44036" transform="rotate(-180 261.331 229.734)" fill="#9CD96C"/>
<circle cx="185.843" cy="229.734" r="4.44036" transform="rotate(-180 185.843 229.734)" fill="#9CD96C"/>
<circle cx="248.748" cy="229.734" r="4.44036" transform="rotate(-180 248.748 229.734)" fill="#9CD96C"/>
<circle cx="236.169" cy="217.154" r="4.44036" transform="rotate(-180 236.169 217.154)" fill="#9CD96C"/>
<circle cx="236.169" cy="229.734" r="4.44036" transform="rotate(-180 236.169 229.734)" fill="#9CD96C"/>
<circle cx="223.586" cy="217.154" r="4.44036" transform="rotate(-180 223.586 217.154)" fill="#9CD96C"/>
<circle cx="223.586" cy="229.734" r="4.44036" transform="rotate(-180 223.586 229.734)" fill="#9CD96C"/>
<circle cx="311.653" cy="217.154" r="4.44036" transform="rotate(-180 311.653 217.154)" fill="#9CD96C"/>
<circle cx="286.492" cy="229.734" r="4.44036" transform="rotate(-180 286.492 229.734)" fill="#9CD96C"/>
<circle cx="299.071" cy="229.734" r="4.44036" transform="rotate(-180 299.071 229.734)" fill="#9CD96C"/>
<circle cx="311.653" cy="229.734" r="4.44036" transform="rotate(-180 311.653 229.734)" fill="#9CD96C"/>
<circle cx="311.653" cy="115.765" r="4.44036" transform="rotate(-180 311.653 115.765)" fill="#ECE64E"/>
<circle cx="299.071" cy="128.346" r="4.44036" transform="rotate(-180 299.071 128.346)" fill="#ECE64E"/>
<circle cx="311.653" cy="128.346" r="4.44036" transform="rotate(-180 311.653 128.346)" fill="#ECE64E"/>
<circle cx="286.492" cy="166.829" r="4.44036" transform="rotate(-180 286.492 166.829)" fill="#ECE64E"/>
<circle cx="286.492" cy="179.409" r="4.44036" transform="rotate(-180 286.492 179.409)" fill="#ECE64E"/>
<circle cx="286.492" cy="191.99" r="4.44036" transform="rotate(-180 286.492 191.99)" fill="#ECE64E"/>
<circle cx="299.071" cy="179.409" r="4.44036" transform="rotate(-180 299.071 179.409)" fill="#ECE64E"/>
<circle cx="211.004" cy="204.572" r="4.44036" transform="rotate(-180 211.004 204.572)" fill="#ECE64E"/>
<circle cx="211.004" cy="191.99" r="4.44036" transform="rotate(-180 211.004 191.99)" fill="#ECE64E"/>
<circle cx="273.909" cy="179.409" r="4.44036" transform="rotate(-180 273.909 179.409)" fill="#ECE64E"/>
<circle cx="273.909" cy="191.99" r="4.44036" transform="rotate(-180 273.909 191.99)" fill="#ECE64E"/>
<circle cx="198.421" cy="204.572" r="4.44036" transform="rotate(-180 198.421 204.572)" fill="#ECE64E"/>
<circle cx="198.421" cy="191.99" r="4.44036" transform="rotate(-180 198.421 191.99)" fill="#ECE64E"/>
<circle cx="261.331" cy="166.829" r="4.44036" transform="rotate(-180 261.331 166.829)" fill="#ECE64E"/>
<circle cx="261.331" cy="204.572" r="4.44036" transform="rotate(-180 261.331 204.572)" fill="#ECE64E"/>
<circle cx="261.331" cy="179.409" r="4.44036" transform="rotate(-180 261.331 179.409)" fill="#ECE64E"/>
<circle cx="261.331" cy="191.99" r="4.44036" transform="rotate(-180 261.331 191.99)" fill="#ECE64E"/>
<circle cx="185.843" cy="204.572" r="4.44036" transform="rotate(-180 185.843 204.572)" fill="#ECE64E"/>
<circle cx="185.843" cy="191.99" r="4.44036" transform="rotate(-180 185.843 191.99)" fill="#ECE64E"/>
<circle cx="248.748" cy="204.572" r="4.44036" transform="rotate(-180 248.748 204.572)" fill="#ECE64E"/>
<circle cx="248.748" cy="179.409" r="4.44036" transform="rotate(-180 248.748 179.409)" fill="#ECE64E"/>
<circle cx="248.748" cy="191.99" r="4.44036" transform="rotate(-180 248.748 191.99)" fill="#ECE64E"/>
<circle cx="236.169" cy="204.572" r="4.44036" transform="rotate(-180 236.169 204.572)" fill="#ECE64E"/>
<circle cx="236.169" cy="179.409" r="4.44036" transform="rotate(-180 236.169 179.409)" fill="#ECE64E"/>
<circle cx="236.169" cy="191.99" r="4.44036" transform="rotate(-180 236.169 191.99)" fill="#ECE64E"/>
<circle cx="223.586" cy="204.572" r="4.44036" transform="rotate(-180 223.586 204.572)" fill="#ECE64E"/>
<circle cx="223.586" cy="179.409" r="4.44036" transform="rotate(-180 223.586 179.409)" fill="#ECE64E"/>
<circle cx="223.586" cy="191.99" r="4.44036" transform="rotate(-180 223.586 191.99)" fill="#ECE64E"/>
<circle cx="311.653" cy="103.184" r="4.44036" transform="rotate(-180 311.653 103.184)" fill="#FF8E3D"/>
<circle cx="286.492" cy="128.346" r="4.44036" transform="rotate(-180 286.492 128.346)" fill="#FF8E3D"/>
<circle cx="211.004" cy="166.829" r="4.44036" transform="rotate(-180 211.004 166.829)" fill="#FF8E3D"/>
<circle cx="198.421" cy="166.829" r="4.44036" transform="rotate(-180 198.421 166.829)" fill="#FF8E3D"/>
<circle cx="185.843" cy="166.829" r="4.44036" transform="rotate(-180 185.843 166.829)" fill="#FF8E3D"/>
<circle cx="236.169" cy="166.829" r="4.44036" transform="rotate(-180 236.169 166.829)" fill="#FF8E3D"/>
<circle cx="223.586" cy="166.829" r="4.44036" transform="rotate(-180 223.586 166.829)" fill="#FF8E3D"/>
<circle cx="299.071" cy="78.0221" r="4.44036" transform="rotate(-180 299.071 78.0221)" fill="#FF8E3D"/>
<circle cx="299.071" cy="115.765" r="4.44036" transform="rotate(-180 299.071 115.765)" fill="#FF8E3D"/>
<circle cx="299.071" cy="103.184" r="4.44036" transform="rotate(-180 299.071 103.184)" fill="#FF8E3D"/>
<circle cx="273.909" cy="128.346" r="4.44036" transform="rotate(-180 273.909 128.346)" fill="#FF8E3D"/>
<circle cx="261.331" cy="128.346" r="4.44036" transform="rotate(-180 261.331 128.346)" fill="#FF8E3D"/>
<circle cx="286.492" cy="115.765" r="4.44036" transform="rotate(-180 286.492 115.765)" fill="#FF8E3D"/>
<circle cx="286.488" cy="65.4414" r="4.44036" transform="rotate(-180 286.488 65.4414)" fill="#DD0303"/>
<circle cx="286.488" cy="103.184" r="4.44036" transform="rotate(-180 286.488 103.184)" fill="#DD0303"/>
<circle cx="286.488" cy="78.0221" r="4.44036" transform="rotate(-180 286.488 78.0221)" fill="#DD0303"/>
<circle cx="286.488" cy="90.6028" r="4.44036" transform="rotate(-180 286.488 90.6028)" fill="#DD0303"/>
<circle cx="211.004" cy="103.184" r="4.44036" transform="rotate(-180 211.004 103.184)" fill="#DD0303"/>
<circle cx="211.004" cy="115.764" r="4.44036" transform="rotate(-180 211.004 115.764)" fill="#DD0303"/>
<circle cx="273.909" cy="65.4414" r="4.44036" transform="rotate(-180 273.909 65.4414)" fill="#DD0303"/>
<circle cx="273.909" cy="103.184" r="4.44036" transform="rotate(-180 273.909 103.184)" fill="#DD0303"/>
<circle cx="273.909" cy="78.0221" r="4.44036" transform="rotate(-180 273.909 78.0221)" fill="#DD0303"/>
<circle cx="273.909" cy="115.764" r="4.44036" transform="rotate(-180 273.909 115.764)" fill="#DD0303"/>
<circle cx="273.909" cy="90.6028" r="4.44036" transform="rotate(-180 273.909 90.6028)" fill="#DD0303"/>
<circle cx="198.421" cy="115.764" r="4.44036" transform="rotate(-180 198.421 115.764)" fill="#DD0303"/>
<circle cx="261.327" cy="78.0221" r="4.44036" transform="rotate(-180 261.327 78.0221)" fill="#DD0303"/>
<circle cx="261.327" cy="115.764" r="4.44036" transform="rotate(-180 261.327 115.764)" fill="#DD0303"/>
<circle cx="261.327" cy="90.6028" r="4.44036" transform="rotate(-180 261.327 90.6028)" fill="#DD0303"/>
<circle cx="185.839" cy="115.764" r="4.44036" transform="rotate(-180 185.839 115.764)" fill="#DD0303"/>
<circle cx="248.744" cy="115.764" r="4.44036" transform="rotate(-180 248.744 115.764)" fill="#DD0303"/>
<circle cx="248.744" cy="90.6028" r="4.44036" transform="rotate(-180 248.744 90.6028)" fill="#DD0303"/>
<circle cx="236.165" cy="103.184" r="4.44036" transform="rotate(-180 236.165 103.184)" fill="#DD0303"/>
<circle cx="236.165" cy="115.764" r="4.44036" transform="rotate(-180 236.165 115.764)" fill="#DD0303"/>
<circle cx="236.165" cy="90.6028" r="4.44036" transform="rotate(-180 236.165 90.6028)" fill="#DD0303"/>
<circle cx="223.583" cy="103.184" r="4.44036" transform="rotate(-180 223.583 103.184)" fill="#DD0303"/>
<circle cx="223.583" cy="115.764" r="4.44036" transform="rotate(-180 223.583 115.764)" fill="#DD0303"/>
<circle cx="198.421" cy="128.346" r="4.44036" transform="rotate(-180 198.421 128.346)" fill="#DD0303"/>
<circle cx="185.839" cy="128.346" r="4.44036" transform="rotate(-180 185.839 128.346)" fill="#DD0303"/>
<circle cx="211.008" cy="78.0221" r="4.44036" transform="rotate(-180 211.008 78.0221)" fill="#DD0303"/>
<circle cx="211.008" cy="90.6028" r="4.44036" transform="rotate(-180 211.008 90.6028)" fill="#DD0303"/>
<circle cx="198.425" cy="103.184" r="4.44036" transform="rotate(-180 198.425 103.184)" fill="#DD0303"/>
<circle cx="198.425" cy="78.0221" r="4.44036" transform="rotate(-180 198.425 78.0221)" fill="#DD0303"/>
<circle cx="198.425" cy="90.6028" r="4.44036" transform="rotate(-180 198.425 90.6028)" fill="#DD0303"/>
<circle cx="261.331" cy="65.4404" r="4.44036" transform="rotate(-180 261.331 65.4404)" fill="#DD0303"/>
<circle cx="185.843" cy="103.184" r="4.44036" transform="rotate(-180 185.843 103.184)" fill="#DD0303"/>
<circle cx="185.843" cy="78.0221" r="4.44036" transform="rotate(-180 185.843 78.0221)" fill="#DD0303"/>
<circle cx="185.843" cy="90.6028" r="4.44036" transform="rotate(-180 185.843 90.6028)" fill="#DD0303"/>
<circle cx="248.748" cy="65.4404" r="4.44036" transform="rotate(-180 248.748 65.4404)" fill="#DD0303"/>
<circle cx="248.748" cy="78.0221" r="4.44036" transform="rotate(-180 248.748 78.0221)" fill="#DD0303"/>
<circle cx="236.165" cy="65.4404" r="4.44036" transform="rotate(-180 236.165 65.4404)" fill="#DD0303"/>
<circle cx="236.165" cy="78.0221" r="4.44036" transform="rotate(-180 236.165 78.0221)" fill="#DD0303"/>
<circle cx="223.586" cy="65.4404" r="4.44036" transform="rotate(-180 223.586 65.4404)" fill="#DD0303"/>
<circle cx="223.586" cy="78.0221" r="4.44036" transform="rotate(-180 223.586 78.0221)" fill="#DD0303"/>
<circle cx="223.586" cy="90.6028" r="4.44036" transform="rotate(-180 223.586 90.6028)" fill="#DD0303"/>
<circle cx="211.004" cy="242.314" r="4.44036" transform="rotate(-180 211.004 242.314)" fill="#CECECE"/>
<circle cx="198.421" cy="242.314" r="4.44036" transform="rotate(-180 198.421 242.314)" fill="#CECECE"/>
<circle cx="185.843" cy="242.314" r="4.44036" transform="rotate(-180 185.843 242.314)" fill="#CECECE"/>
<circle cx="311.653" cy="204.571" r="4.44036" transform="rotate(-180 311.653 204.571)" fill="#CECECE"/>
<circle cx="273.909" cy="204.571" r="4.44036" transform="rotate(-180 273.909 204.571)" fill="#CECECE"/>
<circle cx="299.071" cy="204.571" r="4.44036" transform="rotate(-180 299.071 204.571)" fill="#CECECE"/>
<circle cx="198.421" cy="217.153" r="4.44036" transform="rotate(-180 198.421 217.153)" fill="#CECECE"/>
<circle cx="261.331" cy="217.153" r="4.44036" transform="rotate(-180 261.331 217.153)" fill="#CECECE"/>
<circle cx="185.843" cy="217.153" r="4.44036" transform="rotate(-180 185.843 217.153)" fill="#CECECE"/>
<circle cx="248.748" cy="217.153" r="4.44036" transform="rotate(-180 248.748 217.153)" fill="#CECECE"/>
<circle cx="211.004" cy="179.41" r="4.44036" transform="rotate(-180 211.004 179.41)" fill="#CECECE"/>
<circle cx="273.909" cy="166.828" r="4.44036" transform="rotate(-180 273.909 166.828)" fill="#CECECE"/>
<circle cx="198.421" cy="179.41" r="4.44036" transform="rotate(-180 198.421 179.41)" fill="#CECECE"/>
<circle cx="185.843" cy="179.41" r="4.44036" transform="rotate(-180 185.843 179.41)" fill="#CECECE"/>
<circle cx="248.748" cy="166.828" r="4.44036" transform="rotate(-180 248.748 166.828)" fill="#CECECE"/>
<circle cx="299.071" cy="90.6028" r="4.44036" transform="rotate(-180 299.071 90.6028)" fill="#CECECE"/>
<circle cx="311.653" cy="90.6028" r="4.44036" transform="rotate(-180 311.653 90.6028)" fill="#CECECE"/>
<circle cx="211.004" cy="128.346" r="4.44036" transform="rotate(-180 211.004 128.346)" fill="#CECECE"/>
<circle cx="248.748" cy="128.346" r="4.44036" transform="rotate(-180 248.748 128.346)" fill="#CECECE"/>
<circle cx="236.169" cy="128.346" r="4.44036" transform="rotate(-180 236.169 128.346)" fill="#CECECE"/>
<circle cx="223.586" cy="128.346" r="4.44036" transform="rotate(-180 223.586 128.346)" fill="#CECECE"/>
<circle cx="261.331" cy="103.184" r="4.44036" transform="rotate(-180 261.331 103.184)" fill="#CECECE"/>
<circle cx="248.748" cy="103.184" r="4.44036" transform="rotate(-180 248.748 103.184)" fill="#CECECE"/>
<circle cx="211.004" cy="65.4414" r="4.44036" transform="rotate(-180 211.004 65.4414)" fill="#CECECE"/>
<circle cx="198.421" cy="65.4414" r="4.44036" transform="rotate(-180 198.421 65.4414)" fill="#CECECE"/>
<circle cx="185.843" cy="65.4414" r="4.44036" transform="rotate(-180 185.843 65.4414)" fill="#CECECE"/>
<circle cx="4.44036" cy="4.44036" r="4.44036" transform="matrix(1 8.74228e-08 8.74228e-08 -1 40.1646 259.336)" fill="#8DE1DC"/>
<circle cx="4.44036" cy="4.44036" r="4.44036" transform="matrix(1 8.74228e-08 8.74228e-08 -1 40.1646 271.918)" fill="#8DE1DC"/>
<circle cx="4.44036" cy="4.44036" r="4.44036" transform="matrix(1 8.74228e-08 8.74228e-08 -1 40.1646 246.756)" fill="#8DE1DC"/>
<circle cx="4.44036" cy="4.44036" r="4.44036" transform="matrix(1 8.74228e-08 8.74228e-08 -1 27.582 246.756)" fill="#8DE1DC"/>
<circle cx="4.44036" cy="4.44036" r="4.44036" transform="matrix(1 8.74228e-08 8.74228e-08 -1 14.9995 246.756)" fill="#8DE1DC"/>
<circle cx="4.44036" cy="4.44036" r="4.44036" transform="matrix(1 8.74228e-08 8.74228e-08 -1 115.649 259.336)" fill="#8DE1DC"/>
<circle cx="4.44036" cy="4.44036" r="4.44036" transform="matrix(1 8.74228e-08 8.74228e-08 -1 115.649 271.918)" fill="#8DE1DC"/>
<circle cx="4.44036" cy="4.44036" r="4.44036" transform="matrix(1 8.74228e-08 8.74228e-08 -1 115.649 246.756)" fill="#8DE1DC"/>
<circle cx="4.44036" cy="4.44036" r="4.44036" transform="matrix(1 8.74228e-08 8.74228e-08 -1 52.7437 259.336)" fill="#8DE1DC"/>
<circle cx="4.44036" cy="4.44036" r="4.44036" transform="matrix(1 8.74228e-08 8.74228e-08 -1 27.582 259.336)" fill="#8DE1DC"/>
<circle cx="4.44036" cy="4.44036" r="4.44036" transform="matrix(1 8.74228e-08 8.74228e-08 -1 52.7437 271.918)" fill="#8DE1DC"/>
<circle cx="4.44036" cy="4.44036" r="4.44036" transform="matrix(1 8.74228e-08 8.74228e-08 -1 52.7437 246.756)" fill="#8DE1DC"/>
<circle cx="4.44036" cy="4.44036" r="4.44036" transform="matrix(1 8.74228e-08 8.74228e-08 -1 128.228 271.918)" fill="#8DE1DC"/>
<circle cx="4.44036" cy="4.44036" r="4.44036" transform="matrix(1 8.74228e-08 8.74228e-08 -1 65.3223 259.336)" fill="#8DE1DC"/>
<circle cx="4.44036" cy="4.44036" r="4.44036" transform="matrix(1 8.74228e-08 8.74228e-08 -1 65.3223 271.918)" fill="#8DE1DC"/>
<circle cx="4.44036" cy="4.44036" r="4.44036" transform="matrix(1 8.74228e-08 8.74228e-08 -1 65.3223 246.756)" fill="#8DE1DC"/>
<circle cx="4.44036" cy="4.44036" r="4.44036" transform="matrix(1 8.74228e-08 8.74228e-08 -1 140.811 271.918)" fill="#8DE1DC"/>
<circle cx="4.44036" cy="4.44036" r="4.44036" transform="matrix(1 8.74228e-08 8.74228e-08 -1 77.9048 259.336)" fill="#8DE1DC"/>
<circle cx="4.44036" cy="4.44036" r="4.44036" transform="matrix(1 8.74228e-08 8.74228e-08 -1 77.9048 271.918)" fill="#8DE1DC"/>
<circle cx="4.44036" cy="4.44036" r="4.44036" transform="matrix(1 8.74228e-08 8.74228e-08 -1 77.9048 246.756)" fill="#8DE1DC"/>
<circle cx="4.44036" cy="4.44036" r="4.44036" transform="matrix(1 8.74228e-08 8.74228e-08 -1 90.4878 271.918)" fill="#8DE1DC"/>
<circle cx="4.44036" cy="4.44036" r="4.44036" transform="matrix(1 8.74228e-08 8.74228e-08 -1 90.4878 246.756)" fill="#8DE1DC"/>
<circle cx="4.44036" cy="4.44036" r="4.44036" transform="matrix(1 8.74228e-08 8.74228e-08 -1 103.066 259.336)" fill="#8DE1DC"/>
<circle cx="4.44036" cy="4.44036" r="4.44036" transform="matrix(1 8.74228e-08 8.74228e-08 -1 103.066 271.918)" fill="#8DE1DC"/>
<circle cx="4.44036" cy="4.44036" r="4.44036" transform="matrix(1 8.74228e-08 8.74228e-08 -1 103.066 246.756)" fill="#8DE1DC"/>
<circle cx="145.255" cy="229.734" r="4.44036" transform="rotate(-180 145.255 229.734)" fill="#9CD96C"/>
<circle cx="82.3458" cy="229.734" r="4.44036" transform="rotate(-180 82.3458 229.734)" fill="#9CD96C"/>
<circle cx="132.669" cy="229.734" r="4.44036" transform="rotate(-180 132.669 229.734)" fill="#9CD96C"/>
<circle cx="69.7672" cy="217.154" r="4.44036" transform="rotate(-180 69.7672 217.154)" fill="#9CD96C"/>
<circle cx="69.7672" cy="229.734" r="4.44036" transform="rotate(-180 69.7672 229.734)" fill="#9CD96C"/>
<circle cx="120.09" cy="229.734" r="4.44036" transform="rotate(-180 120.09 229.734)" fill="#9CD96C"/>
<circle cx="32.023" cy="204.572" r="4.44036" transform="rotate(-180 32.023 204.572)" fill="#9CD96C"/>
<circle cx="57.1842" cy="229.734" r="4.44036" transform="rotate(-180 57.1842 229.734)" fill="#9CD96C"/>
<circle cx="107.511" cy="217.154" r="4.44036" transform="rotate(-180 107.511 217.154)" fill="#9CD96C"/>
<circle cx="107.511" cy="229.734" r="4.44036" transform="rotate(-180 107.511 229.734)" fill="#9CD96C"/>
<circle cx="94.9283" cy="229.734" r="4.44036" transform="rotate(-180 94.9283 229.734)" fill="#9CD96C"/>
<circle cx="32.023" cy="229.734" r="4.44036" transform="rotate(-180 32.023 229.734)" fill="#9CD96C"/>
<circle cx="19.4405" cy="217.154" r="4.44036" transform="rotate(-180 19.4405 217.154)" fill="#9CD96C"/>
<circle cx="44.6055" cy="229.734" r="4.44036" transform="rotate(-180 44.6055 229.734)" fill="#9CD96C"/>
<circle cx="19.4405" cy="229.734" r="4.44036" transform="rotate(-180 19.4405 229.734)" fill="#9CD96C"/>
<circle cx="32.023" cy="128.346" r="4.44036" transform="rotate(-180 32.023 128.346)" fill="#ECE64E"/>
<circle cx="19.4405" cy="115.765" r="4.44036" transform="rotate(-180 19.4405 115.765)" fill="#ECE64E"/>
<circle cx="19.4405" cy="128.346" r="4.44036" transform="rotate(-180 19.4405 128.346)" fill="#ECE64E"/>
<circle cx="145.255" cy="204.572" r="4.44036" transform="rotate(-180 145.255 204.572)" fill="#ECE64E"/>
<circle cx="145.255" cy="179.409" r="4.44036" transform="rotate(-180 145.255 179.409)" fill="#ECE64E"/>
<circle cx="82.3458" cy="179.409" r="4.44036" transform="rotate(-180 82.3458 179.409)" fill="#ECE64E"/>
<circle cx="82.3458" cy="191.99" r="4.44036" transform="rotate(-180 82.3458 191.99)" fill="#ECE64E"/>
<circle cx="132.669" cy="204.572" r="4.44036" transform="rotate(-180 132.669 204.572)" fill="#ECE64E"/>
<circle cx="132.669" cy="191.99" r="4.44036" transform="rotate(-180 132.669 191.99)" fill="#ECE64E"/>
<circle cx="69.7672" cy="204.572" r="4.44036" transform="rotate(-180 69.7672 204.572)" fill="#ECE64E"/>
<circle cx="69.7672" cy="179.409" r="4.44036" transform="rotate(-180 69.7672 179.409)" fill="#ECE64E"/>
<circle cx="69.7672" cy="191.99" r="4.44036" transform="rotate(-180 69.7672 191.99)" fill="#ECE64E"/>
<circle cx="120.09" cy="204.572" r="4.44036" transform="rotate(-180 120.09 204.572)" fill="#ECE64E"/>
<circle cx="120.09" cy="179.409" r="4.44036" transform="rotate(-180 120.09 179.409)" fill="#ECE64E"/>
<circle cx="57.1842" cy="179.409" r="4.44036" transform="rotate(-180 57.1842 179.409)" fill="#ECE64E"/>
<circle cx="32.023" cy="179.409" r="4.44036" transform="rotate(-180 32.023 179.409)" fill="#ECE64E"/>
<circle cx="57.1842" cy="191.99" r="4.44036" transform="rotate(-180 57.1842 191.99)" fill="#ECE64E"/>
<circle cx="107.511" cy="204.572" r="4.44036" transform="rotate(-180 107.511 204.572)" fill="#ECE64E"/>
<circle cx="44.6055" cy="166.829" r="4.44036" transform="rotate(-180 44.6055 166.829)" fill="#ECE64E"/>
<circle cx="44.6055" cy="179.409" r="4.44036" transform="rotate(-180 44.6055 179.409)" fill="#ECE64E"/>
<circle cx="44.6055" cy="191.99" r="4.44036" transform="rotate(-180 44.6055 191.99)" fill="#ECE64E"/>
<circle cx="94.9283" cy="204.572" r="4.44036" transform="rotate(-180 94.9283 204.572)" fill="#ECE64E"/>
<circle cx="94.9283" cy="191.99" r="4.44036" transform="rotate(-180 94.9283 191.99)" fill="#ECE64E"/>
<circle cx="145.255" cy="166.829" r="4.44036" transform="rotate(-180 145.255 166.829)" fill="#FF8E3D"/>
<circle cx="132.669" cy="166.829" r="4.44036" transform="rotate(-180 132.669 166.829)" fill="#FF8E3D"/>
<circle cx="120.09" cy="166.829" r="4.44036" transform="rotate(-180 120.09 166.829)" fill="#FF8E3D"/>
<circle cx="107.511" cy="166.829" r="4.44036" transform="rotate(-180 107.511 166.829)" fill="#FF8E3D"/>
<circle cx="94.9283" cy="166.829" r="4.44036" transform="rotate(-180 94.9283 166.829)" fill="#FF8E3D"/>
<circle cx="82.3458" cy="128.346" r="4.44036" transform="rotate(-180 82.3458 128.346)" fill="#FF8E3D"/>
<circle cx="69.7672" cy="128.346" r="4.44036" transform="rotate(-180 69.7672 128.346)" fill="#FF8E3D"/>
<circle cx="120.09" cy="128.346" r="4.44036" transform="rotate(-180 120.09 128.346)" fill="#FF8E3D"/>
<circle cx="32.023" cy="103.184" r="4.44036" transform="rotate(-180 32.023 103.184)" fill="#FF8E3D"/>
<circle cx="32.023" cy="115.765" r="4.44036" transform="rotate(-180 32.023 115.765)" fill="#FF8E3D"/>
<circle cx="57.1842" cy="128.346" r="4.44036" transform="rotate(-180 57.1842 128.346)" fill="#FF8E3D"/>
<circle cx="32.023" cy="90.6028" r="4.44036" transform="rotate(-180 32.023 90.6028)" fill="#FF8E3D"/>
<circle cx="107.511" cy="128.346" r="4.44036" transform="rotate(-180 107.511 128.346)" fill="#FF8E3D"/>
<circle cx="19.4405" cy="103.184" r="4.44036" transform="rotate(-180 19.4405 103.184)" fill="#FF8E3D"/>
<circle cx="44.6055" cy="128.346" r="4.44036" transform="rotate(-180 44.6055 128.346)" fill="#FF8E3D"/>
<circle cx="19.4405" cy="90.6028" r="4.44036" transform="rotate(-180 19.4405 90.6028)" fill="#FF8E3D"/>
<circle cx="94.9283" cy="128.346" r="4.44036" transform="rotate(-180 94.9283 128.346)" fill="#FF8E3D"/>
<circle cx="44.6055" cy="115.765" r="4.44036" transform="rotate(-180 44.6055 115.765)" fill="#FF8E3D"/>
<circle cx="145.251" cy="115.764" r="4.44036" transform="rotate(-180 145.251 115.764)" fill="#DD0303"/>
<circle cx="82.3458" cy="103.184" r="4.44036" transform="rotate(-180 82.3458 103.184)" fill="#DD0303"/>
<circle cx="82.3458" cy="115.764" r="4.44036" transform="rotate(-180 82.3458 115.764)" fill="#DD0303"/>
<circle cx="82.3458" cy="90.6028" r="4.44036" transform="rotate(-180 82.3458 90.6028)" fill="#DD0303"/>
<circle cx="132.669" cy="115.764" r="4.44036" transform="rotate(-180 132.669 115.764)" fill="#DD0303"/>
<circle cx="69.7633" cy="103.184" r="4.44036" transform="rotate(-180 69.7633 103.184)" fill="#DD0303"/>
<circle cx="69.7633" cy="78.0221" r="4.44036" transform="rotate(-180 69.7633 78.0221)" fill="#DD0303"/>
<circle cx="69.7633" cy="115.764" r="4.44036" transform="rotate(-180 69.7633 115.764)" fill="#DD0303"/>
<circle cx="69.7633" cy="90.6028" r="4.44036" transform="rotate(-180 69.7633 90.6028)" fill="#DD0303"/>
<circle cx="120.09" cy="103.184" r="4.44036" transform="rotate(-180 120.09 103.184)" fill="#DD0303"/>
<circle cx="120.09" cy="115.764" r="4.44036" transform="rotate(-180 120.09 115.764)" fill="#DD0303"/>
<circle cx="57.1807" cy="103.184" r="4.44036" transform="rotate(-180 57.1807 103.184)" fill="#DD0303"/>
<circle cx="57.1807" cy="78.0221" r="4.44036" transform="rotate(-180 57.1807 78.0221)" fill="#DD0303"/>
<circle cx="57.1807" cy="115.764" r="4.44036" transform="rotate(-180 57.1807 115.764)" fill="#DD0303"/>
<circle cx="57.1807" cy="90.6028" r="4.44036" transform="rotate(-180 57.1807 90.6028)" fill="#DD0303"/>
<circle cx="107.507" cy="103.184" r="4.44036" transform="rotate(-180 107.507 103.184)" fill="#DD0303"/>
<circle cx="107.507" cy="115.764" r="4.44036" transform="rotate(-180 107.507 115.764)" fill="#DD0303"/>
<circle cx="44.6016" cy="65.4414" r="4.44036" transform="rotate(-180 44.6016 65.4414)" fill="#DD0303"/>
<circle cx="44.6016" cy="103.184" r="4.44036" transform="rotate(-180 44.6016 103.184)" fill="#DD0303"/>
<circle cx="44.6016" cy="78.0221" r="4.44036" transform="rotate(-180 44.6016 78.0221)" fill="#DD0303"/>
<circle cx="44.6016" cy="90.6028" r="4.44036" transform="rotate(-180 44.6016 90.6028)" fill="#DD0303"/>
<circle cx="94.9249" cy="103.184" r="4.44036" transform="rotate(-180 94.9249 103.184)" fill="#DD0303"/>
<circle cx="94.9249" cy="115.764" r="4.44036" transform="rotate(-180 94.9249 115.764)" fill="#DD0303"/>
<circle cx="94.9249" cy="90.6028" r="4.44036" transform="rotate(-180 94.9249 90.6028)" fill="#DD0303"/>
<circle cx="145.251" cy="128.346" r="4.44036" transform="rotate(-180 145.251 128.346)" fill="#DD0303"/>
<circle cx="132.669" cy="128.346" r="4.44036" transform="rotate(-180 132.669 128.346)" fill="#DD0303"/>
<circle cx="145.251" cy="103.184" r="4.44036" transform="rotate(-180 145.251 103.184)" fill="#DD0303"/>
<circle cx="145.251" cy="78.0221" r="4.44036" transform="rotate(-180 145.251 78.0221)" fill="#DD0303"/>
<circle cx="145.251" cy="90.6028" r="4.44036" transform="rotate(-180 145.251 90.6028)" fill="#DD0303"/>
<circle cx="82.3497" cy="65.4404" r="4.44036" transform="rotate(-180 82.3497 65.4404)" fill="#DD0303"/>
<circle cx="82.3497" cy="78.0221" r="4.44036" transform="rotate(-180 82.3497 78.0221)" fill="#DD0303"/>
<circle cx="132.672" cy="103.184" r="4.44036" transform="rotate(-180 132.672 103.184)" fill="#DD0303"/>
<circle cx="132.672" cy="78.0221" r="4.44036" transform="rotate(-180 132.672 78.0221)" fill="#DD0303"/>
<circle cx="132.672" cy="90.6028" r="4.44036" transform="rotate(-180 132.672 90.6028)" fill="#DD0303"/>
<circle cx="69.7672" cy="65.4404" r="4.44036" transform="rotate(-180 69.7672 65.4404)" fill="#DD0303"/>
<circle cx="120.09" cy="78.0221" r="4.44036" transform="rotate(-180 120.09 78.0221)" fill="#DD0303"/>
<circle cx="120.09" cy="90.6028" r="4.44036" transform="rotate(-180 120.09 90.6028)" fill="#DD0303"/>
<circle cx="107.507" cy="78.0221" r="4.44036" transform="rotate(-180 107.507 78.0221)" fill="#DD0303"/>
<circle cx="107.507" cy="90.6028" r="4.44036" transform="rotate(-180 107.507 90.6028)" fill="#DD0303"/>
<circle cx="94.9283" cy="78.0221" r="4.44036" transform="rotate(-180 94.9283 78.0221)" fill="#DD0303"/>
<circle cx="4.44036" cy="4.44036" r="4.44036" transform="matrix(1 8.74228e-08 8.74228e-08 -1 128.228 259.336)" fill="#CECECE"/>
<circle cx="4.44036" cy="4.44036" r="4.44036" transform="matrix(1 8.74228e-08 8.74228e-08 -1 128.228 246.755)" fill="#CECECE"/>
<circle cx="4.44036" cy="4.44036" r="4.44036" transform="matrix(1 8.74228e-08 8.74228e-08 -1 140.814 259.336)" fill="#CECECE"/>
<circle cx="4.44036" cy="4.44036" r="4.44036" transform="matrix(1 8.74228e-08 8.74228e-08 -1 140.814 246.755)" fill="#CECECE"/>
<circle cx="4.44036" cy="4.44036" r="4.44036" transform="matrix(1 8.74228e-08 8.74228e-08 -1 90.4878 259.336)" fill="#CECECE"/>
<circle cx="145.255" cy="217.153" r="4.44036" transform="rotate(-180 145.255 217.153)" fill="#CECECE"/>
<circle cx="82.3458" cy="217.153" r="4.44036" transform="rotate(-180 82.3458 217.153)" fill="#CECECE"/>
<circle cx="132.669" cy="217.153" r="4.44036" transform="rotate(-180 132.669 217.153)" fill="#CECECE"/>
<circle cx="120.09" cy="217.153" r="4.44036" transform="rotate(-180 120.09 217.153)" fill="#CECECE"/>
<circle cx="57.1842" cy="204.571" r="4.44036" transform="rotate(-180 57.1842 204.571)" fill="#CECECE"/>
<circle cx="57.1842" cy="217.153" r="4.44036" transform="rotate(-180 57.1842 217.153)" fill="#CECECE"/>
<circle cx="32.023" cy="217.153" r="4.44036" transform="rotate(-180 32.023 217.153)" fill="#CECECE"/>
<circle cx="32.023" cy="191.991" r="4.44036" transform="rotate(-180 32.023 191.991)" fill="#CECECE"/>
<circle cx="44.6055" cy="204.571" r="4.44036" transform="rotate(-180 44.6055 204.571)" fill="#CECECE"/>
<circle cx="19.4405" cy="204.571" r="4.44036" transform="rotate(-180 19.4405 204.571)" fill="#CECECE"/>
<circle cx="44.6055" cy="217.153" r="4.44036" transform="rotate(-180 44.6055 217.153)" fill="#CECECE"/>
<circle cx="19.4405" cy="191.991" r="4.44036" transform="rotate(-180 19.4405 191.991)" fill="#CECECE"/>
<circle cx="94.9283" cy="217.153" r="4.44036" transform="rotate(-180 94.9283 217.153)" fill="#CECECE"/>
<circle cx="145.255" cy="191.991" r="4.44036" transform="rotate(-180 145.255 191.991)" fill="#CECECE"/>
<circle cx="82.3458" cy="166.828" r="4.44036" transform="rotate(-180 82.3458 166.828)" fill="#CECECE"/>
<circle cx="82.3458" cy="204.571" r="4.44036" transform="rotate(-180 82.3458 204.571)" fill="#CECECE"/>
<circle cx="132.669" cy="179.41" r="4.44036" transform="rotate(-180 132.669 179.41)" fill="#CECECE"/>
<circle cx="69.7672" cy="166.828" r="4.44036" transform="rotate(-180 69.7672 166.828)" fill="#CECECE"/>
<circle cx="120.09" cy="191.991" r="4.44036" transform="rotate(-180 120.09 191.991)" fill="#CECECE"/>
<circle cx="57.1842" cy="166.828" r="4.44036" transform="rotate(-180 57.1842 166.828)" fill="#CECECE"/>
<circle cx="107.511" cy="179.41" r="4.44036" transform="rotate(-180 107.511 179.41)" fill="#CECECE"/>
<circle cx="107.511" cy="191.991" r="4.44036" transform="rotate(-180 107.511 191.991)" fill="#CECECE"/>
<circle cx="94.9283" cy="179.41" r="4.44036" transform="rotate(-180 94.9283 179.41)" fill="#CECECE"/>
<circle cx="32.023" cy="78.023" r="4.44036" transform="rotate(-180 32.023 78.023)" fill="#CECECE"/>
<circle cx="57.1842" cy="65.4414" r="4.44036" transform="rotate(-180 57.1842 65.4414)" fill="#CECECE"/>
<circle cx="145.255" cy="65.4414" r="4.44036" transform="rotate(-180 145.255 65.4414)" fill="#CECECE"/>
<circle cx="132.669" cy="65.4414" r="4.44036" transform="rotate(-180 132.669 65.4414)" fill="#CECECE"/>
<circle cx="120.09" cy="65.4414" r="4.44036" transform="rotate(-180 120.09 65.4414)" fill="#CECECE"/>
<circle cx="107.511" cy="65.4414" r="4.44036" transform="rotate(-180 107.511 65.4414)" fill="#CECECE"/>
<circle cx="94.9283" cy="65.4414" r="4.44036" transform="rotate(-180 94.9283 65.4414)" fill="#CECECE"/>
<path d="M156.8 5.41C156.47 5.24 156.14 5.15 155.81 5.15C155.39 5.15 155.03 5.3 154.73 5.6C154.42 5.91 154.27 6.29 154.27 6.75C154.27 7.23 154.43 7.62 154.74 7.91C155.05 8.2 155.43 8.35 155.89 8.35C156.26 8.35 156.58 8.25 156.85 8.04C156.96 7.95 157.06 7.91 157.16 7.91C157.25 7.91 157.32 7.94 157.39 8.01C157.46 8.08 157.5 8.16 157.5 8.26C157.5 8.37 157.46 8.46 157.39 8.52C156.96 8.91 156.44 9.1 155.83 9.1C155.11 9.1 154.53 8.88 154.09 8.45C153.64 8.02 153.42 7.46 153.42 6.75C153.42 6.09 153.64 5.53 154.07 5.08C154.5 4.63 155.05 4.4 155.7 4.4C156.26 4.4 156.75 4.52 157.16 4.75C157.3 4.82 157.37 4.94 157.37 5.09C157.37 5.16 157.35 5.22 157.32 5.27C157.25 5.39 157.14 5.45 156.99 5.45C156.92 5.45 156.85 5.44 156.8 5.41ZM163.236 8.63V9.72C163.236 9.93 163.066 10.1 162.866 10.1C162.656 10.1 162.486 9.93 162.486 9.72V9H158.866C158.656 9 158.486 8.83 158.486 8.62V4.83C158.446 4.34 159.326 4.34 159.286 4.83V8.25H161.686V4.83C161.646 4.34 162.526 4.34 162.486 4.83V8.25H162.856C163.066 8.25 163.236 8.42 163.236 8.63ZM164.651 6.35H167.381C167.341 5.6 166.851 5.15 166.081 5.15C165.281 5.15 164.741 5.64 164.651 6.35ZM168.211 6.46C168.211 6.56 168.211 6.63 168.201 6.68C168.191 6.84 168.021 7 167.861 7H164.701C164.771 7.84 165.381 8.35 166.271 8.35C166.691 8.35 167.061 8.26 167.371 8.08C167.441 8.04 167.521 8.02 167.591 8.02C167.691 8.02 167.781 8.06 167.861 8.15C167.901 8.2 167.921 8.26 167.921 8.33C167.921 8.46 167.881 8.55 167.801 8.6C167.331 8.93 166.801 9.1 166.211 9.1C165.481 9.1 164.901 8.89 164.461 8.46C164.021 8.03 163.801 7.46 163.801 6.75C163.801 6.07 164.011 5.51 164.421 5.06C164.831 4.62 165.401 4.4 166.121 4.4C166.711 4.4 167.211 4.59 167.611 4.97C168.011 5.36 168.211 5.85 168.211 6.46ZM173.455 4.83V8.69C173.495 9.18 172.615 9.18 172.655 8.69V7.1H170.155V8.69C170.195 9.18 169.315 9.18 169.355 8.69V4.83C169.315 4.34 170.195 4.34 170.155 4.83V6.35H172.655V4.83C172.615 4.34 173.495 4.34 173.455 4.83ZM174.572 7.68C174.572 6.79 175.272 6.25 176.272 6.25C176.752 6.25 177.122 6.35 177.392 6.54C177.392 5.58 177.202 5.12 176.372 5.12C176.082 5.12 175.782 5.18 175.472 5.3C175.422 5.32 175.372 5.33 175.322 5.33C175.172 5.33 175.072 5.26 175.012 5.13C174.992 5.08 174.982 5.04 174.982 4.99C174.982 4.83 175.052 4.72 175.182 4.67C175.612 4.49 176.032 4.4 176.422 4.4C177.662 4.4 178.152 5.01 178.152 6.24V8.72C178.152 8.91 177.982 9.07 177.772 9.07C177.562 9.07 177.392 8.91 177.392 8.72V8.42C177.042 8.85 176.562 9.07 175.952 9.07C175.122 9.07 174.572 8.53 174.572 7.68ZM177.392 7.77V7.2C177.112 7 176.772 6.9 176.382 6.9C175.852 6.9 175.422 7.16 175.422 7.64C175.422 8.08 175.722 8.35 176.232 8.35C176.682 8.35 177.062 8.16 177.392 7.77Z" fill="black"/>
<path d="M94 4C110.198 11.8924 136.03 17 165.131 17C193.488 17 218.74 12.1506 235 4.60057" stroke="black" stroke-width="1.5"/>
</svg>
